<?xml version="1.0" encoding="UTF-8"?>
<svg style="enable-background:new 0 0 620 740" version="1.1" viewBox="0 0 620 740" xmlns="http://www.w3.org/2000/svg"><style type="text/css">.st0{fill:#B3A988;}
	.st1{fill:#FFECD4;}
	.st2{fill:#999175;}
	.st3{opacity:0.48;fill:#999175;}
	.st4{opacity:0.11;fill:#999175;}
	.st5{opacity:0.6;fill:#999175;}
	.st6{opacity:0.53;fill:#999175;}
	.st7{opacity:0.5;fill:#999175;}
	.st8{opacity:0.35;fill:#999175;}
	.st9{opacity:0.33;fill:#999175;}
	.st10{opacity:0.31;fill:#999175;}
	.st11{opacity:0.59;fill:#999175;}
	.st12{opacity:0.26;fill:#999175;}
	.st13{fill:#FFF7DC;}
	.st14{fill:url(#SVGID_1_);}
	.st15{fill:url(#SVGID_2_);}
	.st16{fill:url(#SVGID_3_);}
	.st17{fill:url(#SVGID_4_);}
	.st18{fill:url(#SVGID_5_);}
	.st19{opacity:0.48;fill:#FFFFFF;}
	.st20{fill:#59322C;}
	.st21{opacity:0.11;}
	.st22{opacity:0.6;}
	.st23{opacity:0.53;fill:#FFFFFF;}
	.st24{opacity:0.5;fill:#FFFFFF;}
	.st25{fill:url(#SVGID_6_);}
	.st26{fill:url(#SVGID_7_);}
	.st27{fill:url(#SVGID_8_);}
	.st28{fill:url(#SVGID_9_);}
	.st29{fill:url(#SVGID_10_);}
	.st30{fill:url(#SVGID_11_);}
	.st31{fill:url(#SVGID_12_);}
	.st32{fill:url(#SVGID_13_);}
	.st33{fill:url(#SVGID_14_);}
	.st34{fill:#FFFFFF;}
	.st35{opacity:0.53;}
	.st36{opacity:0.35;}
	.st37{opacity:0.33;fill:#FFFFFF;}
	.st38{opacity:0.31;}
	.st39{opacity:0.59;}
	.st40{opacity:0.26;fill:#FFFFFF;}</style><rect class="st0" x="-4.2" y="-7.3" width="627" height="750"/><path class="st1" d="m538.6 60.1c-5.4-12.1-18.3-20.4-28.3-18.3-8.9 1.9-22.3 11.7-28.3 24.2-3.3 6.9-3.9 13.7-1.7 19.6l1.1-0.7c-2.1-5.5-1.5-11.8 1.6-18.3 5.8-12.1 18.8-21.6 27.4-23.4 9.5-2.1 21.9 6 27 17.6 3.7 8.3 3 16.6-2 23.4-3.2 4.3-7.7 6-11.9 4.4s-6.8-6.1-6.6-11.8c0.1-4.9 3.3-8.5 6.4-9.2 2.7-0.6 4.8 1.2 5.6 4.9l1.2-0.5c-1.1-5.2-4.3-6.4-6.9-5.8-3.6 0.8-7.3 5-7.5 10.7-0.1 6.3 2.7 11.3 7.4 13.1 4.6 1.7 9.7-0.1 13.2-4.9 5.4-7.3 6.2-16.2 2.3-25z"/><path class="st1" d="m536 62.7c-5.4-12.1-18.3-20.4-28.3-18.3-8.9 1.9-22.3 11.7-28.3 24.2-3.3 6.9-3.9 13.7-1.7 19.6l1.1-0.7c-2.1-5.5-1.5-11.8 1.6-18.3 5.8-12.1 18.8-21.6 27.4-23.4 9.5-2.1 21.9 6 27 17.6 3.7 8.3 3 16.6-2 23.4-3.2 4.3-7.7 6-11.9 4.4s-6.8-6.1-6.6-11.8c0.1-4.9 3.3-8.5 6.4-9.2 2.7-0.6 4.8 1.2 5.6 4.9l1.2-0.5c-1.1-5.2-4.3-6.4-6.9-5.8-3.6 0.8-7.3 5-7.5 10.7-0.1 6.3 2.7 11.3 7.4 13.1 4.6 1.8 9.7-0.1 13.2-4.9 5.5-7.2 6.3-16.1 2.3-25z"/><path class="st1" d="m529.5 75.7c-1.4 0.9-3 0.3-3.6-1.2s0-3.5 1.3-4.3c1.4-0.9 3-0.3 3.6 1.2s0 3.4-1.3 4.3z"/><path class="st1" d="m585.1 114.3c-7.7-8.7-16.3-11.9-25.5-9.4-33.3 9-66 88.8-78.3 118.8l-1.8 4.5c-41.1 99.3-83.7 147-130.2 145.8l-0.1 1.4c47.1 1.3 90-46.7 131.4-146.7l1.8-4.5c12.2-29.8 44.7-109.1 77.4-118 8.8-2.4 17 0.7 24.4 9.1 5.7 6.5 7.4 18.3 3.6 25.3-2.6 4.9-7.4 6.4-13.5 4.3-7.4-2.6-8.3-8.1-8.2-11.2 0.2-5 3.1-9.4 5.7-10.4 1.6-0.6 3 0 4 1.7l1-0.9c-1.3-2.3-3.2-3.1-5.3-2.2-3.4 1.4-6.4 6.7-6.6 11.8-0.3 5.9 3 10.5 9 12.5 9 3.1 13.2-1.8 14.9-5 4.1-7.5 2.4-20.1-3.7-26.9z"/><path class="st1" d="m590 115.1c-7.7-8.7-16.3-11.9-25.5-9.4-33.3 9-66 88.8-78.3 118.8l-1.8 4.5c-41.1 99.3-83.7 147-130.2 145.8l-0.1 1.4c47.1 1.3 90.1-46.7 131.4-146.7l1.8-4.5c12.2-29.8 44.7-109.1 77.4-118 8.8-2.4 17 0.7 24.4 9.1 5.7 6.5 7.4 18.3 3.6 25.3-2.6 4.9-7.4 6.4-13.5 4.3-7.4-2.6-8.3-8.1-8.2-11.2 0.2-5 3.1-9.4 5.7-10.4 1.6-0.6 3 0 4 1.7l1-0.9c-1.3-2.3-3.2-3.1-5.3-2.2-3.4 1.4-6.4 6.7-6.6 11.8-0.3 5.9 3 10.5 9 12.5 9 3.1 13.2-1.8 14.9-5 4.1-7.4 2.3-20.1-3.7-26.9z"/><path class="st1" d="m580.7 124.3c-2.2-1.1-5 0.2-6.1 2.9s-0.2 5.8 2 6.9 5-0.2 6.1-2.9 0.2-5.8-2-6.9zm-0.6 1.3c1.6 0.8 2.3 3.1 1.5 5.1s-2.8 3-4.5 2.1c-1.6-0.8-2.3-3.1-1.5-5.1 0.9-1.9 2.9-2.9 4.5-2.1z"/><path class="st1" d="m423.8 63.2c-2.2-1.1-5 0.2-6.1 2.9s-0.2 5.8 2 6.9 5-0.2 6.1-2.9 0.2-5.8-2-6.9zm-0.6 1.3c1.6 0.8 2.3 3.1 1.5 5.1s-2.8 3-4.5 2.1c-1.6-0.8-2.3-3.1-1.5-5.1 0.9-1.9 2.9-2.9 4.5-2.1z"/><path class="st1" d="m539.8 156.2c-1.5-0.8-3.4 0.1-4.2 2s-0.2 4 1.4 4.7c1.5 0.8 3.4-0.2 4.2-2s0.1-3.9-1.4-4.7zm-0.4 0.9c1.1 0.6 1.6 2.1 1 3.5s-1.9 2-3.1 1.5c-1.1-0.6-1.6-2.1-1-3.5s2-2 3.1-1.5z"/><path class="st1" d="m538.4 198.9c-1.5-0.8-3.4 0.2-4.2 2-0.8 1.9-0.1 4 1.4 4.7 1.5 0.8 3.4-0.2 4.2-2s0.1-3.9-1.4-4.7zm-0.4 0.9c1.1 0.6 1.6 2.1 1 3.5s-1.9 2-3.1 1.5c-1.1-0.6-1.6-2.1-1-3.5s2-2 3.1-1.5z"/><path class="st1" d="m483.5 353.5c-1.5-0.8-3.4 0.1-4.2 2s-0.2 4 1.4 4.7c1.5 0.8 3.4-0.2 4.2-2 0.7-1.8 0.1-3.9-1.4-4.7zm-0.4 0.9c1.1 0.6 1.6 2.1 1 3.5s-1.9 2-3.1 1.5c-1.1-0.6-1.6-2.1-1-3.5s2-2 3.1-1.5z"/><path class="st1" d="m471.1 298.5c-1.5-0.8-3.4 0.1-4.2 2s-0.2 4 1.4 4.7c1.5 0.8 3.4-0.1 4.2-2 0.8-1.8 0.2-3.9-1.4-4.7zm-0.4 0.9c1.1 0.6 1.6 2.1 1 3.5s-1.9 2-3.1 1.5c-1.1-0.6-1.6-2.1-1-3.5s2-2 3.1-1.5z"/><path class="st1" d="m415.2 246.7c-1.5-0.8-3.4 0.1-4.2 2s-0.1 4 1.4 4.7c1.5 0.8 3.4-0.1 4.2-2 0.7-1.9 0.1-4-1.4-4.7zm-0.4 0.9c1.1 0.6 1.6 2.1 1 3.5s-1.9 2-3.1 1.5c-1.1-0.6-1.6-2.1-1-3.5s2-2.1 3.1-1.5z"/><path class="st1" d="m372.5 332.3c-1.5-0.8-3.4 0.1-4.2 2s-0.1 4 1.4 4.8 3.4-0.2 4.2-2c0.8-1.9 0.2-4.1-1.4-4.8zm-0.3 0.9c1.1 0.6 1.6 2.1 1 3.5s-1.9 2-3.1 1.5c-1.1-0.6-1.6-2.1-1-3.5s1.9-2.1 3.1-1.5z"/><path class="st1" d="m378.9 260.4c-1.5-0.8-3.4 0.2-4.2 2-0.8 1.9-0.2 4 1.4 4.7 1.5 0.8 3.4-0.2 4.2-2 0.7-1.8 0.1-3.9-1.4-4.7zm-0.4 0.9c1.1 0.6 1.6 2.1 1 3.5s-1.9 2-3.1 1.5c-1.1-0.6-1.6-2.1-1-3.5s2-2 3.1-1.5z"/><path class="st1" d="m364.7 142.2c-1.5-0.8-3.4 0.1-4.2 2s-0.2 4 1.4 4.7c1.5 0.8 3.4-0.1 4.2-2 0.8-1.8 0.1-3.9-1.4-4.7zm-0.4 0.9c1.1 0.6 1.6 2.1 1 3.5s-1.9 2-3.1 1.5c-1.1-0.6-1.6-2.1-1-3.5 0.6-1.3 2-2 3.1-1.5z"/><path class="st1" d="m214 238c-1.6 1.1-1.7 3.5-0.4 5.3 1.3 1.9 3.6 2.5 5.2 1.4 1.5-1.1 1.7-3.5 0.4-5.3s-3.7-2.5-5.2-1.4zm0.6 0.9c1.1-0.8 2.8-0.3 3.8 1 1 1.4 0.8 3.1-0.3 3.9s-2.8 0.3-3.8-1c-1-1.4-0.8-3.1 0.3-3.9z"/><path class="st1" d="m105.2 136c-1.5 1.1-1.7 3.5-0.4 5.3 1.3 1.9 3.6 2.5 5.2 1.4s1.7-3.5 0.4-5.3-3.7-2.4-5.2-1.4zm0.6 0.9c1.1-0.8 2.8-0.3 3.8 1 1 1.4 0.8 3.1-0.3 3.9s-2.8 0.3-3.8-1-0.8-3.1 0.3-3.9z"/><path class="st1" d="m58 133.6c-1.6 1.1-1.7 3.5-0.4 5.3 1.3 1.9 3.6 2.5 5.2 1.4 1.5-1.1 1.7-3.5 0.4-5.3s-3.7-2.4-5.2-1.4zm0.6 0.9c1.1-0.8 2.8-0.3 3.8 1 1 1.4 0.8 3.1-0.3 3.9s-2.8 0.3-3.8-1c-0.9-1.3-0.8-3.1 0.3-3.9z"/><path class="st1" d="m91.4 218.6c-1.5 1.1-1.7 3.5-0.4 5.3 1.3 1.9 3.6 2.5 5.2 1.4s1.7-3.5 0.4-5.3-3.6-2.5-5.2-1.4zm0.6 0.9c1.1-0.8 2.8-0.3 3.8 1 1 1.4 0.8 3.1-0.3 3.9s-2.8 0.3-3.8-1c-0.9-1.4-0.8-3.1 0.3-3.9z"/><path class="st1" d="m356.7 273.4c-2.2-1.1-5 0.2-6.1 2.9s-0.2 5.8 2 6.9 5-0.2 6.1-2.9 0.2-5.8-2-6.9zm-0.5 1.3c1.6 0.8 2.3 3.1 1.5 5.1s-2.8 3-4.5 2.2c-1.6-0.8-2.3-3.1-1.5-5.1 0.8-2.1 2.8-3 4.5-2.2z"/><path class="st1" d="m382.2 204.6c-2.2-1.1-5 0.2-6.1 2.9s-0.2 5.8 2 6.9 5-0.2 6.1-2.9 0.2-5.8-2-6.9zm-0.6 1.3c1.6 0.8 2.3 3.1 1.5 5.1s-2.8 3-4.5 2.2c-1.6-0.8-2.3-3.1-1.5-5.1 0.9-2.1 2.9-3 4.5-2.2z"/><path class="st1" d="m504.9 191.9s9.6-4.6 16.2 0.5c0 0 1.1 2.4-3 2.3-4.1-0.2-13.2-2.8-13.2-2.8z"/><path class="st1" d="m505.2 194.8s10.5 1.4 13.3 6.4c2.8 5.1-2.8 2.9-4.1 1.5-1.4-1.3-9.2-7.9-9.2-7.9z"/><path class="st1" d="m505.5 197.8s7.7 8.7 5.7 10.9c-1.9 2.1-5.7-10.9-5.7-10.9z"/><path class="st1" d="m503.2 198.1s3.5 12 1 13.1-1-13.1-1-13.1z"/><path class="st1" d="m508.3 188.6s11.7-3.6 10.7-6c-1.1-2.3-10.1 4.4-10.7 6z"/><path class="st1" d="m538.1 241.8s5-7 11.1-6.8c0 0 1.5 1-1.3 2.7s-9.8 4.1-9.8 4.1z"/><path class="st1" d="m539.2 243.5s7.5-3.7 11-1.8-0.9 3-2.3 2.7c-1.3-0.3-8.7-0.9-8.7-0.9z"/><path class="st1" d="m540.4 245.1s7.9 2 7.3 4.2-7.3-4.2-7.3-4.2z"/><path class="st1" d="m538.9 246.3s6.2 5.8 4.9 7.6c-1.3 1.7-4.9-7.6-4.9-7.6z"/><path class="st1" d="m539.3 238.3s6.8-7.3 5.3-8.3-5.3 7-5.3 8.3z"/><path class="st1" d="m448.6 305.8s7.4-3.6 12.5 0.4c0 0 0.8 1.8-2.3 1.8-3.1-0.1-10.2-2.2-10.2-2.2z"/><path class="st1" d="m448.8 308.1s8.2 1.1 10.3 5-2.1 2.3-3.2 1.2c-1-1.1-7.1-6.2-7.1-6.2z"/><path class="st1" d="m449 310.4s5.9 6.8 4.4 8.4c-1.4 1.7-4.4-8.4-4.4-8.4z"/><path class="st1" d="m447.2 310.7s2.7 9.3 0.8 10.1-0.8-10.1-0.8-10.1z"/><path class="st1" d="m451.2 303.3s9.1-2.8 8.3-4.6c-0.9-1.9-7.8 3.4-8.3 4.6z"/><path class="st1" d="m512.3 315.1s8.4-4.1 14.3 0.4c0 0 0.9 2.1-2.6 2-3.7-0.1-11.7-2.4-11.7-2.4z"/><path class="st1" d="m512.5 317.7s9.3 1.2 11.7 5.7-2.4 2.6-3.6 1.3c-1.1-1.2-8.1-7-8.1-7z"/><path class="st1" d="m512.8 320.3s6.7 7.7 5.1 9.6c-1.7 1.9-5.1-9.6-5.1-9.6z"/><path class="st1" d="m510.8 320.6s3.1 10.6 0.9 11.5c-2.2 1-0.9-11.5-0.9-11.5z"/><path class="st1" d="m515.3 312.2s10.3-3.1 9.4-5.2c-1-2.1-8.8 3.8-9.4 5.2z"/><path class="st1" d="m477.2 437.4s6.5 4.4 6.7 11.8c0 0-0.8 2-2.5-0.9-1.7-3-4.2-10.9-4.2-10.9z"/><path class="st1" d="m475.8 439.2s3.8 8.2 2.4 12.9c-1.5 4.7-2.7-0.4-2.6-2.1s0.2-10.8 0.2-10.8z"/><path class="st1" d="m474.4 441s-1.3 10.1-3.2 9.9c-2-0.3 3.2-9.9 3.2-9.9z"/><path class="st1" d="m473.2 439.5s-4.8 8.9-6.4 7.7 6.4-7.7 6.4-7.7z"/><path class="st1" d="m480.4 438.1s6.9 6.5 7.7 4.4c0.7-2-6.7-4.8-7.7-4.4z"/><path class="st1" d="m429.4 101.4s-6.8-3.9-7.3-11.3c0 0 0.7-2.1 2.5 0.8 1.8 2.8 4.8 10.5 4.8 10.5z"/><path class="st1" d="m430.7 99.6s-4.2-7.9-3-12.7c1.2-4.7 2.7 0.2 2.7 1.9-0.1 1.7 0.3 10.8 0.3 10.8z"/><path class="st1" d="m432 97.7s0.8-10.1 2.8-10c2 0-2.8 10-2.8 10z"/><path class="st1" d="m433.3 99.1s4.3-9.1 6-8c1.7 1-6 8-6 8z"/><path class="st1" d="m426.2 100.9s-7.2-6-7.9-3.9c-0.8 2.1 6.8 4.3 7.9 3.9z"/><path class="st1" d="m396.8 207.3s5.6-6.9 11.9-6c0 0 1.5 1.2-1.5 2.7-3 1.4-10.4 3.3-10.4 3.3z"/><path class="st1" d="m397.8 209.1s8-3.2 11.5-0.9-1.2 3-2.5 2.6c-1.4-0.3-9-1.7-9-1.7z"/><path class="st1" d="m398.9 211s8.1 2.8 7.3 5.1c-0.7 2.1-7.3-5.1-7.3-5.1z"/><path class="st1" d="m397.3 212.1s6 6.7 4.5 8.4c-1.4 1.7-4.5-8.4-4.5-8.4z"/><path class="st1" d="m398.3 203.7s7.5-7 6-8.2c-1.4-1.2-6 6.9-6 8.2z"/><path class="st1" d="m151.9 80.1s-0.3-9.2 5.7-13.2c0 0 2.1-0.2 0.7 3.1-1.4 3.2-6.4 10.1-6.4 10.1z"/><path class="st1" d="m154.2 80.6s4.5-8.3 9.2-9.2 1.3 3.1-0.2 3.8c-1.6 0.8-9 5.4-9 5.4z"/><path class="st1" d="m156.5 81.2s9-3.9 10-1.7c0.9 2.1-10 1.7-10 1.7z"/><path class="st1" d="m155.9 83.2s10.1 0.4 10.1 2.8c0 2.3-10.1-2.8-10.1-2.8z"/><path class="st1" d="m150.6 76.3s1.2-10.7-0.9-10.4c-2.1 0.2-0.1 9.5 0.9 10.4z"/><path class="st1" d="m175.2 114.9s8.9-1.4 14.4 4c0 0 0.8 2.1-2.8 1.1s-11.6-5.1-11.6-5.1z"/><path class="st1" d="m175.3 117.2s9.3 3.4 11.4 7.9-2.7 1.6-3.8 0.3-7.6-8.2-7.6-8.2z"/><path class="st1" d="m175.4 119.6s6.2 8.4 4.3 9.7c-1.9 1.2-4.3-9.7-4.3-9.7z"/><path class="st1" d="m173.3 119.3s2.3 10 0 10.3 0-10.3 0-10.3z"/><path class="st1" d="m178.5 113.1s10.7-0.2 9.9-2.2c-0.7-2.1-9.2 1.2-9.9 2.2z"/><path class="st1" d="m450.1 57.7s7.8 0.1 11.9-5.9c0 0 0.4-2.1-2.6-0.6-3 1.4-9.3 6.5-9.3 6.5z"/><path class="st1" d="m449.8 55.4s7.6-4.7 8.9-9.4-2.5-1.2-3.3 0.3c-0.7 1.6-5.6 9.1-5.6 9.1z"/><path class="st1" d="m449.6 53.1s4.4-9.1 2.6-10c-1.7-0.9-2.6 10-2.6 10z"/><path class="st1" d="m447.9 53.7s0.8-10.1-1.2-10c-2 0 1.2 10 1.2 10z"/><path class="st1" d="m453.1 59s9.2-1.4 8.8 0.7c-0.5 2.1-8.1 0.2-8.8-0.7z"/><path class="st1" d="m48.5 249.7s-5.7-8.7-13.2-9.7c0 0-1.9 0.8 1.4 3.2s11.8 6.5 11.8 6.5z"/><path class="st1" d="m47 251.2s-9-5.7-13.5-4.4c-4.4 1.3 0.9 3.4 2.6 3.4 1.7 0.1 10.9 1 10.9 1z"/><path class="st1" d="m45.4 252.8s-10 0.4-9.4 2.9 9.4-2.9 9.4-2.9z"/><path class="st1" d="m47.2 254.4s-8.1 5-6.6 7.1c1.5 2.2 6.6-7.1 6.6-7.1z"/><path class="st1" d="m47.2 245.6s-7.8-9.4-5.9-10.1c1.9-0.8 6.1 8.8 5.9 10.1z"/><path class="st1" d="m411.4 44.2s2.4-8.9-1.5-14.4c0 0-1.7-0.8-1.3 2.8s2.8 11.6 2.8 11.6z"/><path class="st1" d="m409.4 44.1s-1.7-9.3-5.3-11.4-1.7 2.7-0.7 3.8 6 7.6 6 7.6z"/><path class="st1" d="m407.4 44.1s-6.4-6.2-7.7-4.3c-1.2 1.8 7.7 4.3 7.7 4.3z"/><path class="st1" d="m407.4 46.2s-8.2-2.2-8.8 0c-0.6 2.3 8.8 0 8.8 0z"/><path class="st1" d="m413.3 40.9s1.5-10.7 3.2-10c1.7 0.8-2.2 9.3-3.2 10z"/><path class="st1" d="m535.9 119.5s-10.1 0-14.3-7.8c0 0-0.2-2.8 3.4-0.8 3.6 1.9 10.9 8.6 10.9 8.6z"/><path class="st1" d="m536.6 116.6s-8.9-6.1-9.7-12.2 3.4-1.5 4.2 0.4c0.7 1.9 5.5 11.8 5.5 11.8z"/><path class="st1" d="m537.3 113.6s-3.9-11.8-1.5-13 1.5 13 1.5 13z"/><path class="st1" d="m539.5 114.3s0.9-13 3.4-13c2.5 0.2-3.4 13-3.4 13z"/><path class="st1" d="m531.7 121.1s-11.6-1.9-11.5 0.8c0.2 2.8 10.4 0.4 11.5-0.8z"/><path class="st1" d="m593.1 119s1.5-11.8 8.8-16.8c0 0 2.4-0.2 0.2 4s-9 12.8-9 12.8z"/><path class="st1" d="m595.5 119.8s6.6-10.5 11.9-11.5 0.8 4-1 4.9c-1.7 0.9-10.9 6.6-10.9 6.6z"/><path class="st1" d="m598 120.6s10.7-4.7 11.3-1.9c0.7 2.8-11.3 1.9-11.3 1.9z"/><path class="st1" d="m597 123.2s11 0.9 10.6 3.8c-0.5 3-10.6-3.8-10.6-3.8z"/><path class="st1" d="m592.4 114.2s3.4-13.6 1-13.4-1.9 12.2-1 13.4z"/><path class="st1" d="m467.5 116.1c-16.1-15.6-34.7-19-49.8-9.1-6.5 4.2-11.7 11.8-13.5 19.7-1.5 6.5-0.8 12.7 2.2 17.8 4.2 7.3 14.4 11.8 22.3 9.8 3.7-0.9 8.6-3.7 10.8-11.7 1.1-4.2 0.1-8.6-2.9-12.1-3-3.6-7.4-5.2-10.8-3.9-1.9 0.7-4.4 2.5-5.6 7.4l1.2 0.3c0.8-3.3 2.5-5.5 4.7-6.3 3-1.1 6.9 0.4 9.6 3.6 2.7 3.1 3.6 7 2.6 10.7-2 7.2-6.4 9.8-9.8 10.6-7.3 1.8-17.1-2.6-21.1-9.3-2.8-4.8-3.5-10.5-2-16.6 1.8-7.5 6.7-14.7 12.9-18.8 14.6-9.6 32.8-6.3 48.5 8.9 19.1 18.5 32.2 59 20 92l1.1 0.5c12.3-33.5-1-74.7-20.4-93.5z"/><path class="st1" d="m511.9 312.1c5.1-13.2 3.5-30.9-3.5-38.5-6.3-6.9-20.4-12.4-32.1-9.4-6.5 1.7-11.4 5.8-14.1 11.9l1.1 0.6c2.5-5.7 7.1-9.5 13.2-11.1 11.4-2.9 25 2.4 31.1 9.1 6.7 7.3 8.2 24.2 3.3 36.9-3.5 9.1-9.5 14.1-16.9 14.2-4.7 0-8.4-3-9.6-7.8-1.3-5 0.3-10.4 4.2-14.2 3.4-3.3 7.6-2.8 9.8-0.5 1.9 2.1 1.9 5.2-0.1 8.5l1 0.8c2.8-4.6 1.9-8.3 0-10.3-2.5-2.7-7.5-3.3-11.4 0.5-4.3 4.2-6.1 10.2-4.6 15.8 1.4 5.4 5.5 8.8 10.7 8.7 7.8-0.2 14.2-5.5 17.9-15.2z"/><path class="st1" d="m508.6 311.5c5.1-13.2 3.5-30.9-3.5-38.5-6.3-6.9-20.4-12.4-32.1-9.4-6.5 1.7-11.4 5.8-14.1 11.9l1.1 0.6c2.5-5.7 7.1-9.5 13.2-11.1 11.4-2.9 25 2.4 31.1 9.1 6.7 7.3 8.2 24.2 3.3 36.9-3.5 9.1-9.5 14.1-16.9 14.2-4.7 0-8.4-3-9.6-7.8-1.3-5 0.3-10.4 4.2-14.2 3.4-3.3 7.6-2.8 9.8-0.5 1.9 2.1 1.9 5.2-0.1 8.5l1 0.8c2.8-4.6 1.9-8.3 0-10.3-2.5-2.7-7.5-3.3-11.4 0.5-4.3 4.2-6.1 10.2-4.6 15.8 1.4 5.4 5.5 8.8 10.7 8.7 7.8-0.1 14.2-5.5 17.9-15.2z"/><path class="st1" d="m442.7 266.7c5.1-31.5-5.3-77-28.9-94.7-11.1-8.3-25.6-11.6-36.8-8.2-7.8 2.3-13.9 7.4-18.2 15.1-6.1 10.9-8.2 25.3-5.2 36.6 2.4 9 7.6 15.2 14.9 18 6 2.2 13.4 1.1 18.8-3 4.3-3.2 7-7.9 7.8-13.6 0.8-5.6-1-14.1-5.3-18.3-2.3-2.2-4.9-2.8-7.7-1.8-3.1 1.2-6.2 4.7-7.4 8.5-0.8 2.6-0.7 4.9 0.4 6.8l1-0.9c-1.1-1.9-0.8-4-0.3-5.5 1.1-3.3 3.9-6.5 6.6-7.5 2.4-0.9 4.6-0.4 6.6 1.6 3.8 3.8 5.6 11.9 4.9 17.1s-3.2 9.5-7.2 12.5c-5.1 3.8-12.1 4.9-17.8 2.8-8.9-3.3-12.7-11.1-14.2-17.1-2.9-10.9-0.9-24.8 5-35.4 4.1-7.4 10-12.3 17.4-14.5 11-3.2 25-0.1 35.9 8.1 23.2 17.4 33.5 62.3 28.4 93.3-5.5 34-24.4 65.3-53.3 88.2l-2.1 1.7c-9.6 7.7-29.7 23.9-39.6 16.9l-0.7 1.2c10.6 7.4 30.3-8.4 40.9-17l2.1-1.7c29.3-23.2 48.4-54.8 54-89.2z"/><path class="st1" d="m443.5 260c5.1-31.5-5.3-77-28.9-94.7-11.1-8.3-25.6-11.6-36.8-8.2-7.8 2.3-13.9 7.4-18.2 15.1-6.1 10.9-8.2 25.3-5.2 36.6 2.4 9 7.6 15.2 14.9 18 6 2.2 13.4 1.1 18.8-3 4.3-3.2 7-7.9 7.8-13.6 0.8-5.6-1-14.1-5.3-18.3-2.3-2.2-4.9-2.8-7.7-1.8-3.1 1.2-6.2 4.7-7.4 8.5-0.8 2.6-0.7 4.9 0.4 6.8l1-0.9c-1.1-1.9-0.8-4-0.3-5.5 1.1-3.3 3.9-6.5 6.6-7.5 2.4-0.9 4.6-0.4 6.6 1.6 3.8 3.8 5.6 11.9 4.9 17.1s-3.2 9.5-7.2 12.5c-5.1 3.8-12.1 4.9-17.8 2.8-8.9-3.3-12.7-11.1-14.2-17.1-2.9-10.9-0.9-24.8 5-35.4 4.1-7.4 10-12.3 17.4-14.5 11-3.2 25.1-0.1 35.9 8.1 23.2 17.4 33.5 62.3 28.4 93.3-5.5 34-24.4 65.3-53.3 88.2l-2.1 1.7c-9.6 7.7-29.7 23.9-39.6 16.9l-0.7 1.2c10.6 7.4 30.3-8.4 40.9-17l2.1-1.7c29.3-23.2 48.5-54.8 54-89.2z"/><path class="st1" d="m422.3 137.5c-1.3-0.7-1.9-2.5-1.2-4.1s2.3-2.4 3.7-1.8c1.3 0.7 1.9 2.5 1.2 4.1s-2.3 2.4-3.7 1.8z"/><path class="st1" d="m378.3 113.8c-1.3-0.7-1.9-2.5-1.2-4.1s2.3-2.4 3.7-1.8c1.3 0.7 1.9 2.5 1.2 4.1-0.7 1.7-2.3 2.5-3.7 1.8z"/><path class="st1" d="m126.1 293.4c-1.4 0.9-3.4 0.4-4.5-1.2-1.2-1.6-1-3.7 0.4-4.6s3.4-0.4 4.5 1.2 1 3.7-0.4 4.6z"/><path class="st1" d="m184.1 196.5c-1.4 0.9-3.4 0.4-4.5-1.2s-1-3.7 0.4-4.6 3.4-0.4 4.5 1.2c1.2 1.6 1 3.6-0.4 4.6z"/><path class="st1" d="m496.3 314.4c-1.3-0.7-1.9-2.5-1.2-4.1s2.3-2.4 3.7-1.8c1.3 0.7 1.9 2.5 1.2 4.1-0.7 1.7-2.3 2.5-3.7 1.8z"/><path class="st1" d="m481 407.9c-1.3-0.7-1.9-2.5-1.2-4.1s2.3-2.4 3.7-1.8c1.3 0.7 1.9 2.5 1.2 4.1-0.7 1.7-2.3 2.5-3.7 1.8z"/><path class="st1" d="m503.6 252.1c-1.3-0.7-1.9-2.5-1.2-4.1s2.3-2.4 3.7-1.8c1.3 0.7 1.9 2.5 1.2 4.1-0.7 1.7-2.4 2.5-3.7 1.8z"/><path class="st1" d="m508.8 258.2c-1-0.5-1.5-2-0.9-3.2 0.5-1.3 1.8-1.9 2.8-1.4s1.5 2 0.9 3.2c-0.4 1.3-1.7 1.9-2.8 1.4z"/><path class="st1" d="m514.5 263.7c-1-0.6-1.3-2.1-0.7-3.3s1.9-1.7 2.9-1.1 1.3 2.1 0.7 3.3c-0.6 1.3-1.9 1.8-2.9 1.1z"/><path class="st1" d="m520.3 266.6c-1-0.5-1.5-2-0.9-3.2 0.5-1.3 1.8-1.9 2.8-1.4s1.5 2 0.9 3.2c-0.4 1.3-1.7 1.9-2.8 1.4z"/><path class="st1" d="m527.8 269.9c-1-0.5-1.5-2-0.9-3.2 0.5-1.3 1.8-1.9 2.8-1.4s1.5 2 0.9 3.2c-0.5 1.3-1.8 1.9-2.8 1.4z"/><path class="st1" d="m534.7 268.9c-1-0.5-1.5-2-0.9-3.2 0.5-1.3 1.8-1.9 2.8-1.4s1.5 2 0.9 3.2c-0.5 1.3-1.8 1.9-2.8 1.4z"/><path class="st1" d="m540.2 264.9c-1-0.5-1.5-2-0.9-3.2 0.5-1.3 1.8-1.9 2.8-1.4s1.5 2 0.9 3.2c-0.4 1.3-1.7 1.9-2.8 1.4z"/><path class="st1" d="m539.7 229.2c-1-0.5-1.5-2-0.9-3.2 0.5-1.3 1.8-1.9 2.8-1.4s1.5 2 0.9 3.2c-0.4 1.3-1.7 1.9-2.8 1.4z"/><path class="st1" d="m535.4 223.9c-1-0.5-1.5-2-0.9-3.2 0.5-1.3 1.8-1.9 2.8-1.4s1.5 2 0.9 3.2c-0.5 1.3-1.7 1.9-2.8 1.4z"/><path class="st1" d="m528.8 221.8c-1-0.5-1.5-2-0.9-3.2 0.5-1.3 1.8-1.9 2.8-1.4s1.5 2 0.9 3.2c-0.5 1.3-1.8 2-2.8 1.4z"/><path class="st1" d="m521.6 225c-1-0.5-1.5-2-0.9-3.2 0.5-1.3 1.8-1.9 2.8-1.4s1.5 2 0.9 3.2c-0.5 1.3-1.7 1.9-2.8 1.4z"/><path class="st1" d="m516.2 228.7c-1-0.5-1.5-2-0.9-3.2 0.5-1.3 1.8-1.9 2.8-1.4s1.5 2 0.9 3.2c-0.5 1.3-1.8 1.9-2.8 1.4z"/><path class="st1" d="m510.4 234.9c-1-0.5-1.5-2-0.9-3.2 0.5-1.3 1.8-1.9 2.8-1.4s1.5 2 0.9 3.2c-0.5 1.3-1.8 1.9-2.8 1.4z"/><path class="st1" d="m506.2 241.9c-1-0.5-1.5-2-0.9-3.2 0.5-1.3 1.8-1.9 2.8-1.4s1.5 2 0.9 3.2c-0.5 1.3-1.8 1.9-2.8 1.4z"/><path class="st1" d="m390.2 309.8c-1.3-0.7-1.9-2.5-1.2-4.1s2.3-2.4 3.7-1.8c1.3 0.7 1.9 2.5 1.2 4.1s-2.3 2.4-3.7 1.8z"/><path class="st1" d="m183.6 149.6c-26.6-11-60.9 3.1-70.4 29.1-9 24.3-4.5 52.3 12.9 81.1 13.8 22.9 36.2 46.5 61.3 64.6l10.3 7.7c22.2 16.7 52.5 39.6 75.1 32.9l-0.6-1.5c-21.9 6.5-51.9-16.1-73.8-32.6l-10.4-7.7c-25-18-47.1-41.3-60.8-64-17.1-28.3-21.5-55.9-12.7-79.7 9.4-25.3 42.8-39.2 68.8-28.4 10.5 4.3 18.1 11.4 22.1 20.4 4.5 10.3 3.9 22.7-1.8 34.1-5 10.1-15.1 14.8-27.7 12.8-11.7-1.8-22.4-9-26.6-17.9-3.3-6.8-2.4-13.9 2.5-20.4 5.9-7.8 21.2-7.1 28.9-0.8 4.9 4 5.7 9.4 2.3 15.4l1.3 0.9c3.8-6.5 2.8-12.9-2.8-17.4-8.2-6.7-24.4-7.7-30.8 0.9-6.6 8.8-5 16.8-2.6 22 4.5 9.4 15.7 17 27.9 18.9 13.2 2.1 23.7-2.8 29-13.4 5.8-11.7 6.5-24.6 1.8-35.4-4.3-9.7-12.3-17.1-23.2-21.6z"/><path class="st1" d="m185.6 143.3c-26.6-11-60.9 3.1-70.4 29.1-9 24.3-4.5 52.3 12.9 81.1 13.8 22.9 36.2 46.5 61.3 64.6l10.3 7.7c22.2 16.7 52.5 39.6 75.1 32.9l-0.6-1.5c-21.9 6.5-51.9-16.1-73.8-32.6l-10.4-7.7c-25-18-47.1-41.3-60.8-64-17.1-28.3-21.5-55.9-12.7-79.7 9.4-25.3 42.8-39.2 68.8-28.4 10.5 4.3 18.1 11.4 22.1 20.4 4.5 10.3 3.9 22.7-1.8 34.1-5 10.1-15.1 14.8-27.7 12.8-11.7-1.8-22.4-9-26.6-17.9-3.3-6.8-2.4-13.9 2.5-20.4 5.9-7.8 21.2-7.1 28.9-0.8 4.9 4 5.7 9.4 2.3 15.4l1.3 0.9c3.8-6.5 2.8-12.9-2.8-17.4-8.2-6.7-24.4-7.7-30.8 0.9-6.6 8.8-5 16.8-2.6 22 4.5 9.4 15.7 17 27.9 18.9 13.2 2.1 23.7-2.8 29-13.4 5.8-11.7 6.5-24.6 1.8-35.4-4.2-9.7-12.2-17.1-23.2-21.6z"/><path class="st1" d="m409.2 295.4c-4.8-5-14.2-5.6-20.5-1.3-4.6 3.2-6.8 8.4-6 14.7 0.6 5 4 9.1 7.9 9.5 3 0.3 5.6-1.7 7.2-5.5s0.8-7.1-0.5-9c-1.2-1.8-3-2.7-4.7-2.2-1.1 0.3-3.1 1.4-4.2 5.7l1.2 0.3c0.7-2.6 1.8-4.2 3.2-4.6 1.2-0.4 2.6 0.3 3.6 1.8 1.4 2 1.5 4.9 0.4 7.5-1.3 3.2-3.5 4.9-6 4.6-3.4-0.3-6.4-3.9-6.9-8.4-0.7-5.7 1.2-10.3 5.3-13.2 5.9-4 14.6-3.5 19.1 1.2 9.9 10.3 4.6 25.7 1.8 31.8l1.1 0.6c3-6.5 8.5-22.5-2-33.5z"/><path class="st1" d="m411.2 291.6c-4.8-5-14.2-5.6-20.5-1.3-4.6 3.2-6.8 8.4-6 14.7 0.6 5 4 9.1 7.9 9.5 3 0.3 5.6-1.7 7.2-5.5s0.8-7.1-0.5-9c-1.2-1.8-3-2.7-4.7-2.2-1.1 0.3-3.1 1.5-4.2 5.7l1.2 0.3c0.7-2.6 1.8-4.2 3.2-4.6 1.2-0.4 2.6 0.3 3.6 1.8 1.4 2 1.5 4.9 0.4 7.5-1.3 3.2-3.5 4.9-6 4.6-3.4-0.3-6.4-3.9-6.9-8.4-0.7-5.7 1.2-10.3 5.3-13.2 5.9-4 14.6-3.5 19.1 1.2 9.9 10.3 4.6 25.7 1.8 31.8l1.1 0.6c3-6.4 8.5-22.5-2-33.5z"/><path class="st1" d="m338.6 160.4c-1-1.3-2.7-1.3-3.8-0.1-1.2 1.2-1.3 3.2-0.4 4.5 1 1.3 2.7 1.3 3.8 0.1 1.2-1.3 1.3-3.3 0.4-4.5z"/><path class="st1" d="m360.1 176.5c-4.3 4.8-15.5 15.3-27.1 7.7-5.3-3.4-8.4-12.8-6.8-20.3 1.1-5.4 4.5-8.8 9.4-9.8 3.9-0.7 7.8 1.4 9.1 5 1 2.6 0.2 5.4-2.1 7.9-1.9 2-4.3 2.7-6.4 1.9-1.5-0.6-2.5-1.9-2.6-3.3-0.1-1.6 0.9-3.4 2.9-4.9l-0.6-1.2c-3.2 2.5-3.5 5-3.5 6.3 0.1 2 1.4 3.7 3.3 4.5 2 0.8 5 0.6 7.7-2.2 2.7-2.9 3.6-6.3 2.4-9.5-1.5-4.1-5.9-6.6-10.4-5.7-5.5 1-9.2 4.9-10.5 10.9-1.7 8.1 1.7 18.1 7.3 21.8 12.4 8 24.1-2.9 28.6-7.9l-0.7-1.2z"/><path class="st1" d="m357.6 179.8c-4.3 4.8-15.5 15.3-27.1 7.7-5.3-3.4-8.4-12.8-6.8-20.4 1.1-5.4 4.5-8.8 9.4-9.8 3.9-0.7 7.8 1.4 9.1 5 1 2.6 0.2 5.4-2.1 7.9-1.9 2-4.3 2.7-6.4 1.9-1.5-0.6-2.5-1.9-2.6-3.3-0.1-1.6 0.9-3.4 2.9-4.9l-0.6-1.2c-3.2 2.5-3.5 5-3.5 6.3 0.1 2 1.4 3.7 3.3 4.5 2 0.8 5 0.6 7.7-2.2 2.7-2.9 3.6-6.3 2.4-9.5-1.5-4.1-6-6.6-10.4-5.7-5.5 1-9.2 4.9-10.5 10.9-1.7 8.1 1.7 18.1 7.3 21.8 12.4 8 24.1-2.9 28.6-7.9l-0.7-1.1z"/><path class="st1" d="m495.4 103.5c1.2-1.2 1.3-3.2 0.4-4.5-1-1.3-2.7-1.3-3.8-0.1-1.2 1.2-1.3 3.2-0.4 4.5s2.6 1.3 3.8 0.1z"/><path class="st1" d="m112.3 99.7c-0.6-2.2-2.7-3.8-4.8-3.6-2 0.2-3.2 2.2-2.6 4.4s2.7 3.8 4.8 3.6 3.2-2.2 2.6-4.4z"/><path class="st1" d="m502.2 99.2c-0.4-6.4-3.5-10.4-8.5-11.4-6.8-1.3-15.7 3.4-19.3 10.3-7.9 15.1 0.5 28 4.5 32.9l0.9-1c-3.8-4.6-11.8-16.9-4.3-31.2 3.4-6.5 11.7-10.9 18-9.6 4.5 0.9 7.2 4.5 7.6 10.3 0.3 4.5-1.8 9.3-5 11.1-2.3 1.3-4.7 0.7-6.6-1.8-1.6-2.1-2-4.8-1.1-7.4 0.6-1.8 1.8-3 3.1-3.3 1.4-0.2 2.8 0.8 4 3l1-0.8c-1.9-3.5-4-3.7-5.1-3.6-1.7 0.3-3.3 1.9-4.1 4.2-0.8 2.4-1 5.9 1.3 8.8 2.2 2.9 5.1 3.7 8 2.1 3.5-2 6-7.5 5.6-12.6z"/><path class="st1" d="m499.6 96.5c-0.4-6.4-3.5-10.4-8.5-11.4-6.8-1.3-15.7 3.4-19.3 10.3-7.9 15.1 0.5 28 4.5 32.9l0.9-1c-3.8-4.6-11.8-16.9-4.3-31.2 3.4-6.5 11.7-10.9 18-9.6 4.5 0.9 7.2 4.5 7.6 10.3 0.3 4.5-1.8 9.3-5 11.1-2.3 1.3-4.7 0.7-6.6-1.8-1.6-2.1-2-4.8-1.1-7.4 0.6-1.8 1.8-3 3.1-3.3 1.4-0.2 2.8 0.8 4 3l1-0.8c-1.9-3.5-4-3.7-5.1-3.6-1.7 0.3-3.3 1.9-4.1 4.2-0.8 2.4-1 5.9 1.3 8.8 2.2 2.9 5.1 3.7 8 2.1 3.5-2.1 6-7.5 5.6-12.6z"/><path class="st1" d="m538.9 254.8c0.7-4.8-4.2-10.4-9.2-13.1 5.2-4.5 8.6-12.4 7.1-16.9-0.7-2-2.9-4.9-10-2.4-6.6 2.3-16.9 13.1-19.7 20.5 0 0 0.3 0.1 0.5 0.2h-0.6c-0.1 4.1 2.6 7.7 4.9 10 5.4 5.4 13.6 9 18.6 8 6.4-1.1 8.1-4 8.4-6.3zm-10.6-12.2c4.9 2.1 10.1 7.8 9.5 12.1-0.5 3.2-4.2 4.6-7.3 5.2-2.6 0.5-6.3-0.4-9.9-2.1-2.8-1.4-5.6-3.3-7.9-5.6-3-3-4.5-6.1-4.5-8.9 2.8-7 12.7-17.4 18.8-19.5 4.6-1.6 7.7-1 8.6 1.7 1.4 4.2-2.3 12.1-7.4 15.9l-1 0.8 1.1 0.4z"/><path class="st1" d="m540.9 258.1c0.7-4.8-4.2-10.4-9.2-13.1 5.2-4.5 8.6-12.4 7.1-16.9-0.7-2-2.8-4.9-10-2.4-6.6 2.3-16.9 13.1-19.7 20.5 0 0 0.3 0.1 0.5 0.2h-0.6c-0.1 4.1 2.6 7.7 4.9 10 5.4 5.4 13.6 9 18.6 8 6.3-1.1 8-4 8.4-6.3zm-10.7-12.1c4.9 2.1 10.1 7.9 9.5 12.1-0.5 3.2-4.2 4.6-7.3 5.2-2.6 0.5-6.3-0.4-9.9-2.1-2.8-1.4-5.6-3.3-7.8-5.6-3-3-4.5-6.1-4.5-8.9 2.8-7 12.7-17.4 18.8-19.5 4.6-1.6 7.7-1 8.6 1.7 1.4 4.2-2.3 12.1-7.4 15.9l-1 0.8 1 0.4z"/><path class="st1" d="m523.2 244.7c3.4 0.1 8.5 6.1 3.5 8.2-3 1.3-11.1-4.9-12.7-7.4 3.8-13.1 18.1-12.7 9.4-1.3"/><path class="st1" d="m547.3 154.9c-1.1-6.4-8.2-12.2-15.2-12.4-5.8-0.2-10.3 3.4-12.7 10l1.1 0.5c2.9-8.1 8.4-9.1 11.4-9 6.4 0.2 13.2 5.6 14.1 11.4 0.5 3.3-0.9 6.2-4.1 8.5-2.4 1.7-7 1.4-9.9-0.6-1.3-0.9-2.8-2.5-2.6-5.2 0.3-3.3 2.5-5.3 4.3-5.3 1.6 0 2.4 1.4 2.2 3.8h1.2c0.2-3.9-1.6-5.2-3.3-5.2-2.4 0-5.3 2.5-5.6 6.7-0.2 2.6 0.9 4.9 3.1 6.4 3.3 2.3 8.4 2.5 11.2 0.6 3.8-2.7 5.5-6.3 4.8-10.2z"/><path class="st1" d="m547.8 156.8c-1.1-6.4-8.2-12.2-15.2-12.4-5.8-0.2-10.3 3.4-12.7 10l1.1 0.5c2.9-8.1 8.4-9.1 11.4-9 6.4 0.2 13.2 5.6 14.1 11.4 0.5 3.3-0.9 6.2-4.1 8.5-2.4 1.7-7 1.4-9.9-0.6-1.3-0.9-2.8-2.5-2.6-5.2 0.3-3.3 2.5-5.3 4.3-5.3 1.6 0 2.4 1.4 2.2 3.8h1.2c0.2-3.9-1.6-5.2-3.3-5.3-2.4 0-5.3 2.5-5.6 6.7-0.2 2.6 0.9 4.9 3.1 6.4 3.3 2.3 8.4 2.5 11.2 0.6 3.8-2.6 5.5-6.2 4.8-10.1z"/><path class="st1" d="m480 212.7c3.8-15 4.1-37.5-2.6-49.8-5.9-10.8-19.1-16.3-29.3-12.3-7.5 2.9-11.9 10.4-12.3 21-0.4 9.7 7.5 18.8 14.4 26.9 3.9 4.5 7.6 8.8 9.6 12.8 5.9 11.9 7.8 19.2 3.8 33 0 0 0.3 0.1 0.6 0.2l0.2 0.6c4.8-2.8 13.7-25 15.6-32.4zm-31.6-60.8c9.6-3.8 22.4 1.6 27.9 11.8 6.6 12 6.2 34 2.5 48.7-1.8 7.3-9.2 25-13.6 30.2 3.3-12.9 1.3-20.6-4.4-32.1-2.1-4.2-5.8-8.5-9.8-13.1-6.8-7.8-14.4-16.7-14.1-25.9 0.5-9.9 4.6-16.9 11.5-19.6z"/><path class="st1" d="m471.1 230.6c3.1-6 6.3-20.7 6.9-26.8 1.3-12.6-0.5-29.1-4.1-36.9-4.4-9.5-14.7-14.6-22.9-11.4-6.4 2.5-10.1 9.3-9.9 18.8 0.1 6.8 7.2 15 13 21.6 2.4 2.8 4.7 5.4 5.9 7.3 7.4 11.8 10.9 19.3 9 26.7-0.2 0.3-0.4 0.6-0.6 0.7l1 2.5c0.5-0.3 1-1 1.6-2h0.1v-0.5zm-19.5-72.4c3.5-1.4 7.5-1 11.1 0.8 3.7 1.8 7.1 5.1 9.1 9.4 3.4 7.2 5.2 23.4 3.9 35.2-0.6 5.7-2.4 13.3-4.1 19-0.9-6.7-4.8-13.6-9.7-21.3-1.3-2.1-3.5-4.6-6.1-7.6-5.2-5.9-12.2-14-12.3-19.7-0.1-8.1 2.7-13.7 8.1-15.8z"/><path class="st1" d="m469.1 202.7c1.2-0.7-0.1-9.7-0.3-13.5-0.2-4-1.2-10.6-2.8-14.1-3.5-7.2-13.1-8-12.8 2.3 0.1 4 5.9 9.5 7.7 12.4 3.4 5.1 6.4 6.5 8.2 12.9"/><path class="st1" d="m471.3 210c0-0.2 2.3-15.2 0.7-26.2-0.4-2.7-3.3-14.4-9.5-18.2-2.4-1.5-5-1.5-7.8-0.2-3.6 1.7-5.7 4.1-6.4 7-1 4.3 1.3 9.8 6.6 16.2 6 7.2 15.7 21.4 15.8 21.5l0.4 0.6 0.2-0.7zm-16.4-43.9c2.3-1.1 4.6-1.2 6.6-0.2 0.2 0.1 0.4 0.2 0.6 0.4 6 3.6 8.8 15.1 9.2 17.7 1.4 9.4-0.2 21.9-0.6 25.1-1.9-2.8-10.1-14.6-15.4-21-5.1-6.2-7.4-11.6-6.5-15.6 0.8-2.6 2.8-4.8 6.1-6.4z"/><path class="st1" d="m462.4 145.1c-1.1-1.3-2.6-1.8-4.1-1.3-2.1 0.6-3.1 3.2-4 5.5l0.6 0.2c0.8-2.1 1.7-4.5 3.5-5 1.3-0.4 2.6 0 3.5 1.2 1.1 1.3 1.6 3.4 1.1 5.1l0.6 0.1c0.5-2 0-4.3-1.2-5.8z"/><path class="st1" d="m472 153.4c0.4-2-0.6-4.8-1.9-5.6s-2.9-0.9-4.3-0.2-2.5 1.9-3.1 3.6l0.6 0.2c0.5-1.5 1.5-2.6 2.7-3.2 1.3-0.6 2.7-0.5 3.8 0.2s2 3.2 1.7 4.8c-0.2 0.8-0.6 1.4-1.3 1.5l0.1 0.7c0.9-0.1 1.5-0.9 1.7-2z"/><path class="st1" d="m478.9 156.9c-0.3-2.1-2.1-3.9-4.2-4.2-1.9-0.3-3.5 0.7-4.6 2.7l0.5 0.3c1.2-2.3 3-2.5 3.9-2.3 1.9 0.3 3.4 1.9 3.7 3.7 0.2 1.5-0.5 3-2.1 4.2l0.3 0.6c2.6-1.9 2.7-3.9 2.5-5z"/><path class="st1" d="m433.4 162.7c-0.1-1.5 0.5-2.8 1.6-3.8 1.3-1.2 3.2-1.6 4.6-1l0.3-0.7c-1.6-0.7-3.7-0.3-5.2 1.1-1.3 1.1-1.9 2.7-1.8 4.4 0.1 2.4 2.1 3.7 3.9 4.8l0.3-0.6c-1.8-1-3.6-2.2-3.7-4.2z"/><path class="st1" d="m436.8 175.9c-1.8-0.1-3.8-0.4-4.5-2-0.5-1.2-0.5-2.5 0.2-3.8 0.8-1.5 2.3-2.7 3.8-2.7v-0.7c-1.6 0.1-3.4 1.3-4.3 3.1-0.8 1.5-0.9 3.1-0.2 4.5 0.9 1.9 3 2.2 5 2.4v-0.8z"/><path class="st1" d="m440.2 184.1c-1.7 0.8-3.7 1.5-5 0.4-0.9-0.8-1.3-2-1.1-3.4 0.2-1.7 1.3-3.5 2.6-4.2l-0.2-0.6c-1.5 0.9-2.7 2.8-3 4.8-0.2 1.7 0.3 3.1 1.4 4.1 1.5 1.3 3.6 0.5 5.5-0.3l-0.2-0.8z"/><path class="st1" d="m445.6 191.2c-1.6 1.2-3.4 2.4-4.9 1.6-1.1-0.5-1.7-1.6-1.8-3-0.1-1.7 0.6-3.7 1.8-4.7l-0.3-0.5c-1.3 1.2-2.2 3.4-2 5.4 0.1 1.7 0.9 2.9 2.1 3.5 1.7 0.8 3.7-0.4 5.4-1.7l-0.3-0.6z"/><path class="st1" d="m446.4 149.5c-1.3-1.2-3.8-1.5-5.1-0.6s-2.2 2.4-2.5 4c-0.3 1.7 0 3.4 0.9 4.8l0.5-0.5c-0.8-1.2-1.1-2.7-0.8-4.2s1.1-2.7 2.2-3.5 3.3-0.5 4.4 0.5c0.6 0.5 0.7 1.2 0.5 1.9l0.6 0.2c0.3-0.9 0.1-1.9-0.7-2.6z"/><path class="st1" d="m452.7 144.3c-1.7-0.6-3.9 0.4-5.2 2.2-1.2 1.7-1.4 3.8-0.5 5.7l0.5-0.4c-1-2.3-0.2-4 0.4-4.9 1.2-1.6 3.1-2.5 4.6-2 1.3 0.4 2 1.9 2 4l0.6-0.1c-0.1-3.2-1.5-4.2-2.4-4.5z"/><path class="st1" d="m482.4 167.2c0.5-1.3 0.3-2.8-0.5-4.2-0.9-1.4-2.6-2.8-4.9-2.3l-0.2 0.2-0.3 0.1c-0.1 0-0.4 0.1-0.4 0.4s0.2 0.4 0.3 0.5l0.2-0.7s0.1 0.1 0.1 0.3l-0.2 0.3h0.1c0.2 0 0.4-0.1 0.6-0.4 0.9-0.2 1.7 0 2.4 0.3 0.8 0.4 1.5 1.1 1.9 1.7 0.7 1.1 0.9 2.5 0.5 3.5s-1.4 1.7-2.8 1.9v0.7c2-0.3 2.9-1.4 3.2-2.3z"/><path class="st1" d="m236.5 269.2c-0.1-0.4-0.2-0.7-0.2-0.7-12 2.3-18.7-0.8-30-9.2-3.8-2.8-8.1-7.6-12.6-12.6-8-8.9-17-19-25.8-20-9.5-1.2-15.8 2.6-17.7 10.4-2.5 10.7 3.9 26.1 14.2 34.3 11.8 9.4 32.1 12.4 45.1 10.5 6.5-0.9 25.5-7.5 27.6-12.3 0.1 0-0.3-0.2-0.6-0.4zm-84.9-31.5c0.8-3.3 2.4-5.8 4.8-7.4 2.8-2 6.8-2.7 11.6-2.1 8.2 1 17 10.8 24.7 19.5 4.6 5.1 8.9 9.9 12.8 12.8 10.8 8 17.9 11.4 29.1 9.8-0.4 0.3-0.8 0.7-1.3 1-5.5 3.8-18.5 8.3-24.2 9.2-12.8 1.9-32.5-1.1-44-10.1-9.6-7.8-15.8-22.7-13.5-32.7z"/><path class="st1" d="m224.2 271.5l-0.4 0.4s-0.1 0.1-0.2 0.1c-6.4 0.9-13.4-4-24.7-13.9-1.8-1.6-4.4-4.5-7.1-7.6-6.9-7.8-14.7-16.5-20.9-17.7-4.9-0.9-8.9-0.3-11.7 1.6-2.1 1.5-3.6 3.7-4.2 6.6-2.1 8.8 3.6 20.8 12.8 27.3 7.4 5.2 22.5 9.8 33.7 10.2 5.4 0.2 18.1-1 23.2-3.6h0.6l-0.1-0.2c0.2-0.1 0.5-0.2 0.6-0.3 0.5-0.4 0.9-0.7 1.1-1.2l-2.7-1.7zm-66.5-29.3c0.5-2.3 1.7-4 3.3-5.2 2.3-1.6 5.7-2.1 9.9-1.3 5.1 0.9 13.1 10 18.9 16.5 2.9 3.3 5.5 6.2 7.5 7.9 7.3 6.4 13.7 11.6 19.7 13.8-4.9 1-11.2 1.7-16 1.5-10.5-0.4-25.2-4.8-32-9.6-8.9-6.2-12.8-17.1-11.3-23.6z"/><path class="st1" d="m199.5 268.3c-0.5 1.2-8.7-1.6-12.2-2.3-3.6-0.8-9.7-2.9-13-5.3-6.8-4.9-8.6-15.7 0.7-13.9 3.6 0.7 9.2 8 12 10.4 4.9 4.5 6.5 8 12.5 11.1"/><path class="st1" d="m206.4 271.2c-0.1-0.1-13.9-13-21-20.7-6.4-6.9-11.5-10.2-15.3-9.8-2.6 0.3-4.5 2.3-5.7 6-0.9 2.9-0.6 5.8 1 8.7 4 7.4 14.9 12.4 17.4 13.3 10 3.4 23.4 3.2 23.5 3.2h0.8l-0.7-0.7zm-40.4-16.1c-1.5-2.7-1.8-5.4-0.9-8 0.7-2.3 1.7-3.9 3-4.8 0.6-0.4 1.4-0.7 2.1-0.8 3.5-0.4 8.6 2.9 14.7 9.5 6.2 6.8 17.5 17.4 20.4 20.1-3 0-13.9-0.2-22.4-3.2-2.5-0.8-13-5.7-16.9-12.8z"/><path class="st1" d="m145.2 247.3c-0.3 1.6 0.3 3.3 1.7 4.8 1.5 1.6 3.6 2.5 5.3 2.3l-0.2-0.7c-1.5 0.2-3.3-0.6-4.6-2-1.1-1.2-1.6-2.7-1.4-4.1 0.3-1.9 2.3-2.6 4.1-3.1l-0.3-0.7c-2.1 0.5-4.2 1.3-4.6 3.5z"/><path class="st1" d="m149.5 256.1c-0.5 1.5-0.2 3.3 0.7 4.9s3.5 3.1 5.3 3c1-0.1 1.6-0.7 1.7-1.7l-0.7-0.2c-0.1 0.7-0.5 1.1-1.2 1.1-1.5 0.1-3.8-1.2-4.5-2.6-0.8-1.4-1-3-0.6-4.2 0.4-1.3 1.3-2.2 2.5-2.5l-0.3-0.7c-1.4 0.4-2.5 1.4-2.9 2.9z"/><path class="st1" d="m162.9 269.8c-0.9 1.5-2.1 2.1-3.5 1.7-1.6-0.6-3.3-2.6-3.7-4.6-0.2-1-0.3-2.9 1.7-3.9l-0.4-0.7c-1.7 0.9-2.4 2.6-2 4.7 0.5 2.4 2.3 4.6 4.3 5.3 1 0.3 2.8 0.5 4.3-1.9l-0.7-0.6z"/><path class="st1" d="m159.7 222c-1.6-0.4-2.9 0.1-3.8 1.4-1.1 1.5-1.2 3.7-0.4 5.6l0.6-0.2c-0.7-1.6-0.5-3.6 0.4-4.9 0.8-1 1.9-1.5 3.2-1.1 1.8 0.4 3.1 2.6 4.2 4.6l0.6-0.3c-1.2-2.2-2.7-4.6-4.8-5.1z"/><path class="st1" d="m169.9 222.6c-1.3-0.9-2.8-1.1-4.1-0.4-1.5 0.8-2.5 2.5-2.4 4.3l0.7 0.1c-0.1-1.5 0.8-3 2.1-3.7 1.1-0.5 2.2-0.4 3.3 0.3 1.5 1.1 2 3.3 2.3 5.3h0.7c-0.2-2.2-0.8-4.6-2.6-5.9z"/><path class="st1" d="m176.1 225.5c-1.8 0-3.4 1-4 2.6l0.7 0.4c0.5-1.3 2-2.2 3.5-2.2 1.3 0 2.4 0.6 3.2 1.8 1.1 1.6 0.7 3.6 0.2 5.4l0.7 0.3c0.5-2 1-4.2-0.3-6.1-1.1-1.4-2.5-2.2-4-2.2z"/><path class="st1" d="m184.7 232.3c-1.8-0.4-3.7 0.1-4.6 1.4l0.6 0.5c0.8-1.1 2.5-1.6 4-1.2 1.3 0.3 2.3 1.2 2.9 2.4 0.8 1.7-0.1 3.5-1 5.1l0.6 0.5c1-1.7 1.9-3.7 1-5.8-0.7-1.5-1.9-2.5-3.5-2.9z"/><path class="st1" d="m151.5 227.2c-1.5 0.1-2.7 0.9-3.4 2.2s-0.2 4.1 1 5.7c0.7 1 1.7 1.3 2.6 1.1l-0.3-0.7c-0.6 0.2-1.2-0.1-1.8-0.8-1-1.3-1.5-3.8-0.9-4.8 0.6-1.1 1.6-1.8 2.9-1.9s2.7 0.5 3.9 1.5l0.4-0.5c-1.3-1.3-2.9-1.9-4.4-1.8z"/><path class="st1" d="m146.6 235.7c-1.5 1.2-2.2 3.5-1.5 5.5 0.4 1 1.4 2.9 4.4 3.4v-0.7c-1.9-0.4-3.3-1.4-3.8-2.8-0.6-1.7 0-3.7 1.3-4.7 0.7-0.5 2.2-1.2 4.3 0.3l0.3-0.6c-1.8-1.4-3.6-1.5-5-0.4z"/><path class="st1" d="m170 274.1c-0.1 1.5-0.6 2.5-1.4 2.8s-2-0.1-3.1-1.1c-1.2-1-2.4-2.9-2.3-5 0.2-0.2 0.2-0.5 0.2-0.7l-0.1 0.1s-0.1 0.1-0.2 0.1c0 0-0.1-0.1-0.2-0.1 0.1 0 0.6-0.2 0.6-0.2-0.1-0.1-0.2-0.5-0.5-0.5s-0.3 0.3-0.3 0.4l-0.1 0.4-0.2 0.2c-0.2 2.5 1.2 4.6 2.6 5.8 1.3 1.1 2.8 1.6 3.8 1.2 0.8-0.3 1.7-1 1.8-3.3l-0.6-0.1z"/><path class="st1" d="m490.9 394.3c-2.8-3.4-8-4.6-12.7-3-4.2 1.4-7.2 4.9-8.4 9.4-1 3.7-0.2 7.1 2.2 9.2 2.5 2.3 6.4 2.7 9.1 0.9 2.2-1.5 3.4-4.1 3.2-7.5l-1.2 0.2c0.1 2.8-0.8 4.9-2.6 6.1-2.2 1.5-5.6 1.1-7.7-0.8-1.2-1.1-2.9-3.5-1.8-7.7 1.4-5.5 5.3-7.6 7.5-8.3 4.3-1.5 9-0.4 11.6 2.7 5.8 7 2.4 21.7-2.4 28.8-2.7 4-6.2 6.3-10.1 6.5-4.5 0.3-8.8-2.2-12-6.7-6.1-8.9-4-21.5-1.9-33.6 0.7-4.2 1.4-8.1 1.7-11.8 1.3-15.1-4-30.6-13.4-39.5-9.2-8.8-17.1-6.8-24-5l-2.8 0.7 0.1 1.4 2.8-0.7c7-1.8 14.2-3.7 23 4.7 9.1 8.7 14.2 23.7 13 38.4-0.3 3.6-1 7.6-1.7 11.7-2 11.9-4.3 25.4 2.2 34.7 3.4 4.9 8.1 7.5 12.9 7.2 4.2-0.3 8.1-2.8 11.1-7.1 5.2-7.9 8.6-23.3 2.3-30.9z"/><path class="st1" d="m490.4 398.8c-2.9-3.4-8-4.6-12.7-3-4.2 1.4-7.2 4.9-8.4 9.4-1 3.7-0.2 7.1 2.2 9.2 2.5 2.3 6.4 2.7 9.1 0.9 2.2-1.5 3.4-4.1 3.2-7.5l-1.2 0.2c0.1 2.8-0.8 4.9-2.5 6.1-2.2 1.5-5.6 1.1-7.7-0.8-1.2-1.1-2.9-3.5-1.8-7.7 1.4-5.5 5.3-7.6 7.5-8.3 4.3-1.5 9-0.4 11.6 2.7 5.8 7 2.4 21.7-2.4 28.8-2.7 4-6.2 6.3-10.1 6.5-4.5 0.3-8.8-2.2-12-6.7-6.2-8.9-4-21.5-1.9-33.6 0.7-4.2 1.4-8.1 1.7-11.8 1.3-15.1-4-30.6-13.4-39.5s-19.9-6.2-27.6-4.3l-2.6 0.6 0.1 1.4 2.6-0.6c7.5-1.9 17.7-4.5 26.7 4 9.1 8.7 14.2 23.7 13 38.4-0.3 3.6-1 7.6-1.7 11.7-2 11.9-4.3 25.4 2.2 34.7 3.4 4.9 8.1 7.5 12.9 7.2 4.2-0.3 8.1-2.8 11.1-7.1 4.9-7.9 8.4-23.3 2.1-30.9z"/><path class="st1" d="m130.8 270.8c-8.7-1.7-18.2 2.7-20.6 9.5-1.8 4.9 0.1 10.5 5.3 15.7 3.4 3.5 8.7 5.1 12.8 4 3.4-1 5.4-3.7 5.5-7.6 0.2-4.8-3.9-9.7-7.5-10.7-2.9-0.8-4.9 0.9-5.3 4.5l1.4 0.4c0.3-2.8 1.7-4.1 3.8-3.5 2.9 0.8 6.4 5 6.2 8.9-0.1 3.4-1.8 5.7-4.7 6.5-3.6 1-8.2-0.4-11.3-3.5-4.7-4.8-6.4-9.6-4.8-14 2.3-6.3 11.1-10.3 19.3-8.8 3.6 0.7 9.9 3.1 12.5 11.4l1.4-0.2c-2.3-6.7-7.2-11.3-14-12.6z"/><path class="st1" d="m132.5 274.7c-9.5-1.8-19.8 2.8-22.4 10.1-1.2 3.4-1.3 8.9 5.1 15.4 3.4 3.5 8.7 5.1 12.8 4 3.4-1 5.4-3.7 5.5-7.6 0.2-4.8-3.9-9.7-7.5-10.7-2.9-0.8-4.9 0.9-5.3 4.5l1.4 0.4c0.3-2.8 1.7-4.1 3.8-3.5 2.9 0.8 6.4 5 6.2 8.9-0.1 3.4-1.8 5.7-4.7 6.5-3.6 1-8.2-0.4-11.3-3.5-4.6-4.6-6.2-9.3-4.6-13.6 2.4-6.7 12.3-11.1 21.1-9.4 6.2 1.2 10.7 5.2 12.6 11.3l1.4-0.2c-2.3-6.9-7.2-11.3-14.1-12.6z"/><path class="st1" d="m53.4 188c-1.4-1.4-1.7-3.5-0.6-4.8s3.1-1.2 4.5 0.2 1.7 3.5 0.6 4.8c-1 1.2-3.1 1.1-4.5-0.2z"/><path class="st1" d="m61.2 173.7c-5.3-1.7-9.8 0.5-12.7 6.1-1.9 3.7-1.4 9.3 1.3 13.5 2.3 3.6 5.6 5.5 9.3 5.6 4.6 0 7.6-4.4 7.1-8.3-0.4-3.1-2.8-5.1-6.3-5.4l0.1 1.5c2.8 0.3 4.5 1.6 4.8 3.8 0.4 3.1-2.2 6.9-5.9 6.8-3.2 0-6-1.7-8-4.7-2.4-3.7-2.8-8.7-1.1-11.9 2.7-5.1 6.6-7 11.3-5.5 6.8 2.2 14.1 11.3 15.8 19.9 0.8 3.7 1 10.5-5.9 13.5l0.7 1.4c5.6-2.5 7.9-7.8 6.5-15-1.9-9.2-9.7-19-17-21.3z"/><path class="st1" d="m56.9 173.7c-3.7-1.2-8.9-1.1-12.5 5.9-1.9 3.7-1.4 9.3 1.3 13.5 2.3 3.6 5.6 5.5 9.3 5.5 4.6 0 7.6-4.4 7.1-8.3-0.4-3.1-2.8-5.1-6.3-5.4l0.1 1.5c2.8 0.3 4.5 1.6 4.8 3.8 0.4 3.1-2.2 6.9-5.9 6.8-3.2 0-6-1.7-8-4.7-2.4-3.7-2.8-8.7-1.1-11.9 2.6-4.9 6.4-6.8 11-5.3 7.3 2.3 15.3 12.5 17.1 21.8 1.3 6.6-0.7 11.4-5.7 13.6l0.7 1.4c5.5-2.5 7.8-7.8 6.3-15.1-1.9-10-10.3-20.6-18.2-23.1z"/><path class="st1" d="m129.3 72.5c-10.1-9.5-22.9-13-33.6-9.1-10.2 3.7-15.9 13.5-15.4 26s10.3 19.7 19.7 21.3c9.5 1.6 19.6-2.6 19.5-13.4 0-4.6-2.3-8.7-6.2-10.8-3.6-2-7.7-1.8-9.8 0.5-1.3 1.4-3 4.9 0.9 12.2l1.2-0.5c-2.5-4.7-2.9-8.5-1-10.5 1.7-1.9 5.1-2 8.2-0.3 1.6 0.9 5.3 3.5 5.3 9.3 0 9.9-9.3 13.6-18.1 12.2-8.8-1.5-17.8-8.1-18.3-19.6-0.5-12 5-21.3 14.6-24.8 10.1-3.7 22.4-0.4 32 8.7 21.9 20.7 13.4 61.4 2.9 76.4l1.2 1c10.9-15.5 19.5-57.2-3.1-78.6z"/><path class="st1" d="m130.2 78.4c-10.1-9.5-22.9-13-33.6-9.1-10.2 3.7-15.9 13.5-15.4 26s10.3 19.7 19.7 21.3c9.5 1.6 19.6-2.6 19.5-13.4 0-4.6-2.3-8.7-6.2-10.8-3.6-2-7.7-1.8-9.8 0.5-1.3 1.4-3 4.9 0.9 12.2l1.2-0.5c-2.5-4.7-2.9-8.5-1-10.5 1.7-1.9 5.1-2 8.2-0.3 1.6 0.9 5.3 3.5 5.3 9.3 0 9.9-9.3 13.6-18.1 12.2-8.8-1.5-17.8-8.1-18.3-19.6-0.5-12 5-21.3 14.6-24.8 10.1-3.7 22.4-0.4 32 8.7 21.9 20.7 13.4 61.4 2.9 76.4l1.2 1c10.9-15.6 19.5-57.2-3.1-78.6z"/><path class="st1" d="m391.5 248.5c-2.3-9.2-7.1-15.1-13.7-16.8l-0.4 1.4c6.1 1.6 10.7 7.3 12.9 16 3.3 13 0.6 30.2-6.2 40-9.4 13.4-22.2 18.3-33.4 12.7-9.9-4.9-17.6-16.5-13.2-29.1 2.3-6.7 6.7-11 12.5-12.4 6.1-1.4 12.4 0.9 15.7 5.9 1.8 2.8 3.5 7.5 0.9 14.3-1.4 3.7-4.2 6.1-7.8 6.5-3.4 0.4-6.6-1.1-7.9-3.8-1.1-2.3-0.7-5.2 1.2-8.4l-1-0.7c-2.1 3.6-2.6 7.2-1.3 9.9 1.5 3.1 5.1 4.9 9 4.4 4-0.5 7.2-3.2 8.8-7.5 2.2-5.8 1.8-11.4-1-15.7-3.5-5.3-10.3-7.9-16.8-6.3-6.2 1.4-11 6.2-13.5 13.3-4.6 13.4 3.4 25.6 13.8 30.8 11.7 5.9 25.1 0.8 34.9-13.1 7.1-10.2 9.9-27.9 6.5-41.4z"/><path class="st1" d="m388.1 255.2c-3.1-12.3-9.2-20.5-16.8-22.5l-0.4 1.4c7.2 1.9 13 9.8 15.9 21.6 3.5 14.1 1.9 29.7-3.9 38-9.4 13.4-22.2 18.3-33.4 12.7-9.9-4.9-17.6-16.5-13.2-29.1 2.3-6.6 6.7-11 12.5-12.4 6.1-1.4 12.4 0.9 15.7 5.9 1.8 2.8 3.5 7.5 0.9 14.3-1.4 3.7-4.2 6.1-7.8 6.5-3.4 0.4-6.6-1.1-7.9-3.8-1.1-2.3-0.7-5.2 1.2-8.4l-1-0.7c-2.1 3.6-2.6 7.2-1.3 9.9 1.5 3.2 5.1 4.9 9 4.4 4-0.5 7.2-3.2 8.8-7.5 2.2-5.8 1.8-11.4-1-15.7-3.5-5.3-10.3-7.9-16.8-6.3-6.2 1.4-11 6.2-13.5 13.3-4.6 13.4 3.4 25.6 13.8 30.8 11.7 5.9 25.1 0.8 34.9-13.1 6.2-8.6 8-24.8 4.3-39.3z"/><path class="st1" d="m248 299.1c-4.5-1.3-9.8 0.5-12.3 4.2-1.9 2.9-1.8 6.4 0.5 9.5 2.2 3.1 5.1 4.4 7.8 3.6 2.2-0.7 3.8-2.7 3.7-4.8-0.1-1-0.6-3.5-4.7-4.8l-0.3 1.4c2.3 0.7 3.6 1.9 3.7 3.4s-1.1 3-2.8 3.5c-2.1 0.6-4.4-0.5-6.2-3-1.9-2.7-2.1-5.5-0.4-7.9 2.2-3.2 6.9-4.8 10.8-3.7 5.6 1.6 8.6 4.8 8.6 9.2 0.1 6.5-6.4 13.9-13.4 15.2-5.6 1.1-10.4-1.8-13.6-8.1l-1.2 0.6c4.8 9.4 11.6 9.6 15.2 9 7.7-1.5 14.6-9.3 14.5-16.5-0.2-3.1-1.6-8.3-9.9-10.8z"/><path class="st1" d="m27.8 116.5c-4.5-1.3-9.8 0.5-12.3 4.2-1.9 2.9-1.7 6.4 0.5 9.5s5.1 4.4 7.8 3.6c2.2-0.7 3.8-2.7 3.7-4.8-0.1-1-0.6-3.5-4.7-4.8l-0.3 1.4c2.3 0.7 3.6 1.9 3.6 3.4 0.1 1.5-1.1 3-2.8 3.5-2.1 0.6-4.4-0.5-6.2-3-1.9-2.7-2.1-5.5-0.4-7.9 2.2-3.2 6.9-4.8 10.8-3.7 5.6 1.6 8.6 4.8 8.6 9.2 0.1 6.5-6.4 13.9-13.4 15.2-5.6 1.1-10.4-1.8-13.6-8.1l-1.2 0.6c4.8 9.4 11.6 9.6 15.2 9 7.7-1.5 14.6-9.3 14.5-16.5-0.1-3.1-1.4-8.4-9.8-10.8z"/><path class="st1" d="m418.5 279.2c-4-3.8-8.7-5.1-13.6-3.7-6.4 1.8-13 8.1-17.1 16.5l1 0.6c3.9-8 10.1-14.1 16.2-15.8 4.6-1.3 8.8-0.1 12.6 3.5 7.4 7 3.7 32.9-1.3 40.6-1.7 2.7-2.8 1.9-3.2 1.7l-0.7 1.2c0.9 0.6 2.7 1.2 4.8-2.1 5.5-8.2 9.3-35 1.3-42.5z"/><path class="st1" d="m130.9 155.4c-7.5 10.2-17.3 18.5-26.8 26.5-13.9 11.7-28.2 23.8-36.1 42.4-15.6 36.8 9.3 81.6 40.7 105 31.5 23.5 62.5 27.9 95.3 32.5 15.1 2.1 30.7 4.3 46.4 8.6l0.1-1.5c-15.7-4.3-31.4-6.5-46.6-8.6-32.6-4.6-63.5-9-94.6-32.2-30.9-23-55.4-67-40.1-103 7.8-18.4 22.1-30.4 35.8-42 9.5-8 19.4-16.3 27-26.7l-1.1-1z"/><path class="st1" d="m124.7 155.9c-7.5 10.3-17.3 18.5-26.8 26.5-13.9 11.7-28.2 23.8-36 42.6-15.5 37 9.8 82.3 41.5 106.2s62.9 28.5 95.9 33.4c15.2 2.2 30.9 4.6 46.7 8.9l0.1-1.5c-15.8-4.4-31.6-6.7-46.8-9-32.8-4.8-63.8-9.4-95.2-33-31.1-23.4-56-67.9-40.9-104.2 7.7-18.5 22-30.5 35.7-42.2 9.5-8 19.4-16.3 26.9-26.7l-1.1-1z"/><path class="st1" d="m119.4 162.1c-7.5 10.3-17.3 18.6-26.7 26.6-13.8 11.7-28.2 23.8-36 42.7-15.4 37.2 10.2 82.8 42.1 106.9s63.2 28.9 96.3 33.9c15.2 2.3 31 4.7 46.8 9.2l0.1-1.5c-15.9-4.5-31.7-6.9-47-9.2-32.9-5-64-9.7-95.6-33.6-31.3-23.6-56.4-68.5-41.4-104.9 7.7-18.6 21.9-30.6 35.6-42.3 9.5-8 19.3-16.4 26.9-26.8l-1.1-1z"/><path class="st1" d="m457 74.3c-9.2-19.4-32.1-35.2-45.8-25.9-6.4 4.3-8.6 11.6-5.9 19.4 3.2 9.3 12.9 17.1 21.6 13.4 8.5-3.7 8.9-8.9 8.5-11.7-0.9-5.6-7.3-10.7-12.3-9.7-2 0.4-5.4 2.2-5.4 9.5l1.2-0.1c0-4.7 1.5-7.4 4.3-8 4.3-0.9 10.1 3.8 10.9 8.7 0.7 4-2 7.6-7.6 10-7.8 3.4-17.1-3.9-20.1-12.7-1.2-3.4-3-11.9 5.3-17.6 13.1-8.9 35.3 6.6 44.2 25.4 5.8 12.3 4.4 22.9-4 29.1l0.6 1.2c9-6.6 10.7-17.9 4.5-31z"/><path class="st1" d="m454.7 66.1c-9.2-18.2-29.1-32-42-23.3-6.4 4.3-8.6 11.6-5.9 19.4 3.2 9.3 12.9 17.1 21.6 13.4 8.5-3.7 8.9-8.9 8.5-11.7-0.9-5.6-7.3-10.7-12.3-9.7-2 0.4-5.4 2.2-5.4 9.5l1.2-0.1c0-4.7 1.5-7.4 4.3-8 4.3-0.9 10.1 3.8 11 8.7 0.7 4-2 7.6-7.6 10-7.8 3.4-17.1-3.9-20.1-12.7-1.2-3.4-3-11.9 5.3-17.6 12.4-8.4 31.5 5.2 40.4 22.8 7.6 15.2 5.9 29.4-4.6 38l0.6 1.1c11.1-9 13-23.9 5-39.8z"/><path class="st1" d="m113.8 170.5c-1.8 5.6-8.9 13.8-15.2 21-3.6 4.2-7.1 8.1-9.2 11.2-9.8 14.3-19.8 29-14.7 54 13 63.1 72.5 79.2 120.3 92.1 18.1 4.9 35.1 9.5 47.2 16l0.9-2.6c-12.4-6.7-29.7-11.3-47.9-16.3-46.8-12.8-105.2-28.5-117.7-89.4-4.9-23.7 4.9-38 14.3-51.8 2.1-3 5.5-6.9 9.1-11 6.4-7.4 13.7-15.7 15.7-21.9l-2.8-1.3z"/><path class="st1" d="m438.8 242.4c-2.4-25.6-14.9-47.5-37.2-65-0.7-0.4-14.6-9.6-29.2-4.3-7.9 2.9-14.5 9.5-19.5 19.7l2.1 1.2c4.6-9.5 10.7-15.6 17.9-18.2 13.6-5 27.2 3.9 27.3 4 21.6 17.1 33.8 38.3 36.1 63.1 3.9 41.6-21.6 79.4-21.8 79.8l1.8 1.7c0.3-0.5 26.5-39.2 22.5-82z"/><path class="st1" d="m434.5 245.7c-2.3-24.7-14.3-45.8-35.7-62.7-0.6-0.4-13.9-9.1-27.8-4-7.6 2.8-13.9 9.1-18.7 19l1 0.6c4.6-9.5 10.6-15.6 17.9-18.2 13.4-4.9 26.7 3.8 26.9 3.9 21.1 16.7 32.9 37.4 35.2 61.7 3.9 41-21.2 78.3-21.5 78.7l0.9 0.8c0.3-0.4 25.7-38.2 21.8-79.8z"/><path class="st2" d="m396.2 489.3c-0.7-12.7-14.7-42.7-22-68s-14-45.3-18-55.3-8.7-42-12.7-47.3-4.7-12-4.7-12l-3.3-0.7c-1.3-66-10-94-15.3-114.7s-2-34.7-0.7-42.7-1.3-14.7-1.3-14.7 14.7-38.7 17.3-50c2.7-11.3-3.3-8-3.3-15.3s-4-12.7-4-12.7c1.3-8-4-8-4-8s0-6-1.3-8.7-5.3-0.7-5.3-0.7c2-4.7-1.3-8.7-5.3-9.3-4-0.7-12 7.3-12 20s-6 8.7-5.3 26-7.3 41.3-7.3 41.3-16.7 39.3-2.7 42.7c14 3.3-0.7 96.7-0.7 96.7l-38.7 304 52.7 36.7 53.3-25.3s0.7-12.7-1.3-40.7-10.7-87.3-14.7-106-2-37.3-2-37.3 2 3.3 4 6 15.3 119.3 18.7 128.7c3.3 9.3 11.3 28 17.3 36.7s35.3-12 35.3-12c-6.7-15.4-12-44.7-12.7-57.4zm-83.7-434.3s-1.3 0.3-2.7-0.3 5.3-8.7 5.3-8.7l-2.6 9z"/><path class="st2" d="m272.2 84s-0.7-5.3 5.3-5.3 7.3 8 6.7 12 3.3 31.3 2 43.3 0 28-2.7 40-3.3 51.3-1.3 66.7 13.3 62 17.3 86.7 13.3 50 12 70-1.3 36-16 69.3-40 101.3-40 101.3 30.7 1.3 47.3 20.7c0 0 8-22 51.3-23.3 0 0 9.3-20 34-17.3 0 0 7.3-8.7 9.3-8.7s11.3 7.3 11.3 7.3 2.7-2.7 10-0.7 20 9.3 20 9.3l-60.5 82.7-84.7 4.7s-46 8-70.7 8-83.3 6-83.3-10.7 8.7-55.3 18-76.7c9.3-21.3 23.3-63.3 32-76.7 8.7-13.3 24-38 26.7-39.3s13.3-16.7 13.3-16.7l17.3-10.7s12-20.7 6-42-16-54-9.3-89.3 8.7-73.3 5.3-86 0.7-24-0.7-34c-1.3-10-5.3-44.7-2.7-51.3 2.7-6.7 6-12 8.7-10 0 0-0.7-6 2.7-8s3.3-2 3.3-2-2-6.7 4.7-7.3c0.1 0-2.6-6.7 7.4-6z"/><path class="st2" d="m188.2 607.3s2-40.7 7.3-63.3c0 0 4 8 31.3 8.7s95.3 6.7 110.7-2.7l10 15.3s-33.3 5.3-44.7 23.3c0 0-11.6-11.6-25-16.9-8.4-3.4-17.6-3.1-25 0.3-19.3 8.7-39.3 22-39.3 22l-25.3 13.3z"/><path class="st2" d="m213.5 594s2.7-17.3 15.3-23.3 18.7-5.3 18.7-5.3 34.7-1.3 55.3 23.3c0 0 13.3-28.7 51.3-23.3l-3.3 3.3s-24-6.7-47.3 22c0 0-23.3-24-36-18.7s-26.7 18-26.7 18 16 1.3 20.7 14.7 8 34.7-1.3 44h-6.7s8-8 6-26-8-39.4-46-28.7z"/><path class="st2" d="m335.5 306s-4 5-2 9.5 1 9 1 11.5-0.5 14.5-1 21.5 0 38.8 0 38.8l1 1.7s1-19.5 3-17.5 2 2 2 2-3-15.5-2.5-20.5-4.5-25 0.5-28c0 0-3.5-11.5-2-19z"/><path class="st2" d="m246.9 420s-0.8 2.5-4.3 7-10 17-12 17-0.5 0-2 4-7.5 19-7.5 19l5-2s2.5-8 4.5-13 11-18.5 12-20 5.6-9.5 4.3-12z"/><path class="st2" d="m248.5 453.5s4.5 3.5-1.5 9.5-15.5 10.5-20.5 17-7.5 15-14 17-8 8.5-8 8.5l-8 37s11-40 11.5-37.5 8-1.5 11.5-7 7.5-16 12-20.5 18.5-13 20-17-3-7-3-7z"/><path class="st2" d="m239 459l3.5 3.5 7-4.5s-0.5-6-4.5-4.5l-6 5.5z"/><path class="st3" d="m209 477.5s5-5.5 10.5-8 17-13 22.5-16c0 0-8 6.5-11 10s-9.5 7.5-12.5 8.5-9.5 5.5-9.5 5.5z"/><path class="st2" d="m188.2 607.3s-23.2 11.7-28.7 11.7-5.5 0-5.5 0l34.2-11.7z"/><path class="st2" d="m388.5 555s6.5-8 14-8.5l-1-2-1.5 1.5-2-2-0.5 2.5-2-2-0.5 2-2.5-1v2l-2.5-0.5 0.5 2.5h-2.5l1 2.5-2.5-0.5 2 3.5z"/><path class="st2" d="m368 589s8 13-6.5 22c0 0-6 2.5-9.5 1.5 0 0 7 6 12 4.5s8.5-7 9.5-11.5 2.5-15.5-5.5-16.5z"/><path class="st2" d="m365.5 589s3 6 0 12-4.5 6-4.5 6 5.5-7.5 3-13.5l1.5-4.5z"/><path class="st2" d="m357.5 597s2.5-4 3.5 0-1 3.5-2 5.5-1.5 4.5-5 3 1.5-2.5 0-4.5 0-4 3.5-4z"/><path class="st4" d="m261.5 554.7s43.3-110 48-131.3c0 0-16 57.3-20 68.7-4 11.3-18.7 52.7-18 54.7s4 8 4 8h-14z"/><path class="st2" d="m284.5 254.5s19 93.5 19.7 96.2 4 13.3 4 13.3-12.7-69.7-23.7-109.5z"/><path class="st5" d="m351.5 571.3s-11.3 23.3-13.3 24-16 6-16 6-16-4.7-18.7-4.7-29.3 8-29.3 8 8.7-5.3 14-8 15.3-6 15.3-6 21.3 0.7 24 0.7 9.3-0.7 11.3-2c2.1-1.3 12.7-18 12.7-18z"/><path class="st2" d="m310.2 602s8 0 6.7 2.7-3.3 2.7-3.3 2.7l-3.4-5.4z"/><path class="st2" d="m276.2 608s26.7-6 26-3.3-2 6-2 6l-3.3 1.3-2.7-2-18-2z"/><path class="st6" d="m352.2 569.3s10.7-15.3 30-17.3l2.7-2s-18.7-6.7-32.7 19.3z"/><path class="st6" d="m394.9 552s10.7-6 17.3-6c6.7 0 10.7 3.3 10.7 3.3l-10.7 3.3c0 0.1-4.7-3.9-17.3-0.6z"/><path class="st6" d="m308.9 609.3l29.3-14-28.7 19.3c0 0.1-2.6-3.9-0.6-5.3z"/><path class="st7" d="m156.2 622.7c-1.2 0.5-2.4 1.1-3.4 1.7-0.7-2.6-1.2-8.6 3.4-21.1l20.7-77.3s-2.7 2.7-5.3 8c-2.7 5.3-41.3 102-28.7 109.3 0 0 6 1.3 9.3 0.7 3.3-0.7 36-33.3 36-33.3s-18.7 6.6-32 12z"/><path class="st2" d="m306.5 40l6.3 2 4-7.7s-1.7-5-7.7-3.3l-2.6 9z"/><path class="st2" d="m317.9 44.3l4 1.3 1-6.3s-3.3-2-5.3-0.7l0.3 5.7z"/><path class="st2" d="m323.2 53l3.3 1.3 1-3.7s-1.3-2.3-4-1.7l-0.3 4.1z"/><path class="st2" d="m276.2 86.3l5.7 0.3v-5.6s-3.3-4-6.7-1l1 6.3z"/><path class="st2" d="m266.9 87.3l6-0.3-0.7-3s-5.3-0.3-6 1.7l0.7 1.6z"/><path class="st2" d="m263.2 94l3.3-0.3-1.7-3.7s-2.3 0.7-3.3 1.7l1.7 2.3z"/><path class="st2" d="m256.5 101.3h4.3l-0.3-3s-3.3-1-4 3z"/><path class="st2" d="m250.2 110h4v-2.7s-3.7-1.3-4 2.7z"/><path class="st2" d="m322.2 50.3s-4.3 9.3-3.7 10.7c0.7 1.3 2 0.3 2 0.3s-0.3-6.6 1.7-11z"/><path class="st2" d="m327.5 57.3s-2.7 9.3-2.3 10.3c0.3 1 0.3 1 0.3 1l2-11.3z"/><path class="st2" d="m317.5 38.7s-2.7 7-3.7 8l1-1c0.1 0 1.4 1 2.7-7z"/><path class="st2" d="m309.9 54.7s-2.3 5.7 0.7 5.7 2-5.3 2-5.3-1.1 0.9-2.7-0.4z"/><path class="st2" d="m275.5 91.3l0.3 13.7 2.3-1c0.1 0-0.9-1.3-2.6-12.7z"/><path class="st2" d="m266.5 93.7s2 5.7 2 8 2.3 1.7 2.3 1.7-1.7-12.7-6-13.3l1.7 3.6z"/><path class="st2" d="m260.9 101.3s0 4.7 1 4.7 2 0 2 0-0.7-8.3-3.3-7.7l0.3 3z"/><path class="st2" d="m254.2 110l0.3 4.7s2.3-3.3 1.7-5c-0.7-1.7 0.3-3.7-2-2.3v2.6z"/><path class="st2" d="m425.5 552.7s-10 3.3-16 6.7l-1.3-2-4 4v-3.4l-4.7 4 0.7-3.3-4.7 4.7-0.7-2.7s-9.3 11.3-13.3 16.7l-0.7-2.7-3.3 3.3 1.3-4.7-6 6.7 0.7-4.7-4.7 6.7v-4.7l-10 7.3 6-2-1.3 4.7 4.7-1.3s9.3 11.3-2 23.3l6.7-2-2.7 16-2-2.7-2 7.3-0.7-6-3.3 8-0.7-4.7-2.7 8.7-2-5.3-2 10.7s-10-13.3-21.3-12-20 11.3-20 11.3-22 4.7-22-9.3 16-14.7 16-14.7l-7.3-4-3.3 1.3v-3.3s-19.3 11.3-8 29.3c0 0-13.3-8.7-4.7-22.7 0 0-16 10-4 22.7 0 0-12-8-6-17.3 0 0-10.7 11.3 8 20.7 0 0-8.7-2.7-10 5.3 0 0 28.7-5.3 40-1.3s54 12 73.3 6 54.7-8 66.7-4.7 44.7 2 44.7 2-2.7-4.7-1.3-11.3c1.3-6.7-2-62-14-66.7s-12-4.7-12-4.7 8.7-7.3 17.3 0.7c8.7 8 8 12.7 8 12.7s-3.3-22.7-24-18l5.3-6s-6.7-6-14 2.7c0 0 5.3-12.7 2.7-12-2.7 0.7-8.7 6-8.7 6s-6.7-3.3-8 2c0 0-0.7-9.3-2.7-9.3s0 6-1.3 8.7l-4-1.3s0.7-6.7-2.7-6.7c0 0 0 4.7-2 5.3 0 0-1.3-7.3-2.7-5.3-1.3 2 0.7 4-1.3 6 0 0-0.7-5.3-3.3-4-2.7 1.3-2.7 5.3-2.7 5.3z"/><path class="st2" d="m309.2 31s-5 9-4 10 5.3 4 7.7 1l-6.3-2 2.6-9z"/><path class="st2" d="m282.2 82s2 5.3 0.3 6-6.3-1.7-6.3-1.7l5 0.3 1-4.6z"/><path class="st2" d="m309.2 32l7.3 3.7s0.3-2.3-3-4-4.3 0.3-4.3 0.3z"/><path class="st2" d="m316.5 35.7l4.3 1c0.1 0-1.3-5-4.3-1z"/><path class="st2" d="m334.9 308.3s-0.3 7.3 0.3 9c0.7 1.7-3.7-2.3-0.3-9z"/><path class="st2" d="m334.5 339.3l-1 48s1.3-22.3 2.3-21 1.3 2.3 1.3 2.3-2.6-26.9-2.6-29.3z"/><polygon class="st6" points="275.9 97.3 275.9 105 277.2 104"/><path class="st2" d="m285.9 121.7s0.7 11 0 15-0.3 22-0.3 22l2.3 2s-1.7-9.3-1.3-13 1.3-7.7 0.7-9c-0.8-1.4 0.6-15.4-1.4-17z"/><path class="st8" d="m245.2 423.7s-1.7 4.7-3.3 6.3c-1.7 1.7-10 15.3-11 15.3s-8 20.3-8 20.3h1.7s6.7-19 7.7-20.3 11.2-14.6 12.9-21.6z"/><path class="st8" d="m202.5 519s4.3-17.3 6.3-18 9-4.7 11.3-9 9.7-14.3 9.7-14.3-10 19.3-11.7 19.7c-1.7 0.3-6.3 5-9 5.3-2.6 0.3-6.6 16.3-6.6 16.3z"/><path class="st8" d="m250.2 456.3s2.3 3-4.7 8.7l-5.3 4.7s14.3-8 10-13.4z"/><path class="st2" d="m334.9 320.3l-0.3 10.3 1.7-6c-0.1 0.1-1.8-1.3-1.4-4.3z"/><polygon class="st2" points="351.5 571.3 336.9 595.3 332.9 596.7"/><path class="st7" d="m265.5 609.3s44-9.3 41.3-9.3-2-2-5.3-1.3c-3.3 0.6-36.6 8-36 10.6z"/><path class="st9" d="m342.5 324s-2 7-2 13 5 27 5 27l11 10s-6-13-7-18-0.6-32.7-7-32z"/><path class="st6" d="m417.5 574s-16.7 8-10 21.3l5.3 8s-10-1.3-10.7-5.3c-0.6-4-5.2-16 15.4-24z"/><path class="st6" d="m412.2 568s-22 16.7-9.3 35.3c0 0-22-16 9.3-35.3z"/><path class="st6" d="m428.9 552.7s3.3 20.7 3.3 25.3c0 4.7-1.3 8.7-1.3 8.7l-2-34z"/><path class="st6" d="m434.9 572.7s-2 15.3-0.7 20.7c1.3 5.3 3.3 14.7 3.3 14.7s1.3-8.7 0.7-12.7c-0.7-4.1-2.7-14.7-3.3-22.7z"/><path class="st6" d="m436.2 555.3s0.7 18.7 4 25.3c3.3 6.7 2 21.3 3.3 26s4.7 14 4.7 11.3-2.7-16-3.3-23.3c-0.7-7.3-1.3-17.3-3.3-21.3s-5.4-18-5.4-18z"/><path class="st6" d="m422.2 597.3s6 8 11.3 13.3 18.7 18.7 18 25.3l-0.7 6.7s5.3-5.3 2.7-11.3c-2.7-6-20.7-25.3-20.7-25.3l-10.6-8.7z"/><path class="st6" d="m415.5 597.3s7.3 14.7 13.3 19.3c6 4.7 16 12.7 14.7 19.3l-1.3 6.7s5.3-4 4-8.7-12-18.7-18-22.7-12.7-13.9-12.7-13.9z"/><path class="st6" d="m445.5 560.7s1.3 11.3 2 19.3 3.3 20.7 8.7 28c5.3 7.3 7.3 10.7 7.3 10.7s-7.3-18-10-28c-2.6-10-8-30-8-30z"/><path class="st6" d="m458.2 590s5.3 14 6.7 20.7c1.3 6.7 7.3 12 6 20s-4 10.7-4 10.7 7.3-6.7 7.3-15.3c0-8.7-5.3-13.3-8-20.7s-8-15.4-8-15.4z"/><path class="st6" d="m457.5 576.7s6.7 16 8.7 22 12.7 16 11.3 26c-1.3 10-7.3 18.7-7.3 18.7s11.3-8.7 10.7-21.3c-0.7-12.7-10.7-23.3-13.3-28.7-2.7-5.4-10.1-16.7-10.1-16.7z"/><path class="st6" d="m466.2 564.7s4.7 11.3 5.3 18.7c0.7 7.3 4.7 18.7 4.7 18.7s1.3-10.7-0.7-15.3-6-18.8-9.3-22.1z"/><path class="st6" d="m474.9 579.3s6.7 8.7 6 15.3c-0.7 6.7-1.3 10-1.3 10s4.7-6 2.7-14-7.4-11.3-7.4-11.3z"/><path class="st6" d="m482.9 585.3s5.3 14.7 3.3 21.3l-2 6.7 2.7 3.3c0 0.1 6-19.3-4-31.3z"/><path class="st6" d="m479.5 609.3s10.7 14.7-4 36.7c0 0 10-4 10-12.7 0-8.6-2-20-6-24z"/><path class="st6" d="m450.2 554.7s9.3 15.3 10.7 22c0 0-4-22-10.7-22z"/><path class="st6" d="m427.5 622.7s12 10.7 8 18c0 0 10-7.4-8-18z"/><path class="st6" d="m398.2 567.3s-16.7 19.3-10.7 32c0 0-12.6-11.3 10.7-32z"/><path class="st6" d="m391.5 568s-21.3 31.3-10 39.3c0 0-20-3.3 10-39.3z"/><path class="st2" d="m486.5 581s21 28 8 50c0 0 23-21-12-57l4 7z"/><path class="st2" d="m324.5 645s-26 11-38-4c0 0 9.7 21 41 7l-3-3z"/><path class="st10" d="m159.5 619s19.3-5.3 28.7-11.7c0 0-34.7 11.7-28.7 11.7z"/><path class="st11" d="m246.5 590s23-18 30-15 21 17 21 17l6-1.3s-22-25.7-36-18.7-26.7 18-26.7 18h5.7z"/><path class="st11" d="m303.5 590.7s20-30 48-19.3c0 0-18.7-4.7-43 19.7l-5-0.4z"/><path class="st6" d="m397.5 617s18 19 9 25h7s5-9-16-25z"/><path class="st6" d="m394.5 608s24 15 25 28c0 0-1-23-25-28z"/><path class="st6" d="m377.5 619s-2 25-18 27c0 0 22 5 18-27z"/><path class="st6" d="m382.5 626s5 19-18 26c0 0 28 3 18-26z"/><path class="st6" d="m385.5 613s9 23-2 35c0 0 16-12 2-35z"/><path class="st2" d="m268.5 648s-20-12-16-24l-6 5s3 18 22 19z"/><path class="st2" d="m274.5 646s-13-8-10-17h-4s1 16 14 17z"/><path class="st2" d="m260.2 648.7s-13.7-4.7-16.7-14.7c0 0-0.6 11.3 16.7 14.7z"/><path class="st2" d="m310.5 638s22-29 39 0l5.3 1.3c0.1 0-17.3-35.3-44.3-1.3z"/><path class="st2" d="m317.5 638s-26.7 1.3-23-20l-4 4s1 23 27 16z"/><path class="st2" d="m426.5 639s-5 21-31 7l-4 2s33.4 18.7 35-9z"/><path class="st2" d="m493.5 635s18.7 10.3 11 12-14-1-14-1l-4 2s46 6 7-13z"/><path class="st2" d="m330.8 641.7s10 19 37 4h5s-36 22-42-4z"/><path class="st2" d="m303.8 636.7s15 16 52 7h7s-49 14-59-7z"/><path class="st2" d="m426.5 556s-13-14-16 7l-3 1s4-25.3 19-8z"/><path class="st6" d="m345.5 637s-10-7-28 1c0 0 14-14 28-1z"/><path class="st11" d="m453.5 618s10 14 4 23c0 0 16.7-11-4-23z"/><path class="st11" d="m419.5 618s12 15 4 23c0 0 13.4-3-4-23z"/><path class="st11" d="m425.5 570s-4 16 4 27c0 0-15-10-4-27z"/><path class="st11" d="m390.5 616s7 28.7 1 32c0 0 14-8-1-32z"/><path class="st11" d="m416.5 580s-5 9.7-1 17.3c0 0-12-5.3 1-17.3z"/><path class="st11" d="m270.5 571s19 7.7 31 22h3s-16-18-34-22z"/><path class="st11" d="m304.5 593s17-24 44-23l3 1.3s-23-14.3-47 21.7z"/><path class="st8" d="m357.5 597s6 9-3.5 8.5c0 0 4.5-1.5 0-4.5l3.5-4z"/><path class="st6" d="m349.5 599l2 10s-14-1-2-10z"/><path class="st12" d="m195.5 550l11 7-3 40-15.3 10.3s3.3-51.3 7.3-57.3z"/><path class="st10" d="m265.5 543s-11 2-32 5c-3.6 0.5-7.1 0.7-10.3 0.6l-5-51.3-11.7 3.7 7.3 46.8c-10.5-1.7-17.3-5.3-17.3-5.3l-1 4.5c2.5 2.2 10 3.8 19 4.9v0.1h0.8c19.6 2.4 46.2 2.7 46.2 2.7l4-11.7z"/><path class="st11" d="m241.5 553s17 1 26-6c0 0 13 7 28 8 0 0-21 3-54-2z"/><polygon class="st11" points="341.5 381 345.5 378 346.5 395"/><path class="st6" d="m395.5 620s10 19 4 24c0 0 13-4-4-24z"/><path class="st13" d="m95.5 682.4c0.5-0.4 1.1-0.7 1.6-1.1-0.5 0.3-1.1 0.7-1.6 1.1z"/><path class="st13" d="m90.2 680.8c0.5-0.4 1.1-0.7 1.5-1.1-0.4 0.3-1 0.7-1.5 1.1z"/><path class="st13" d="m312.1 681.5c0.6 1.2 1.3 2.2 2.1 3.1-0.8-1-1.5-2-2.1-3.1z"/><path class="st13" d="m623.7 643.7c-5.5-0.9-11.3-1.6-15.4-3.7 2.6 3.6 6.4 6 10.2 7.6-5.3 0.1-10.8-3.4-15.2-6.9 1.8 1.8 3.6 4.9 5.6 6.7-4.3-1.5-8.5-4.9-12.8-4.5 1.7 1.3 3.3 3.3 5 4.6-5.6-2.5-10.8-4.7-16.1-8.3 1.1 1.1 2 2.4 4 3.7-3.7-2.3-9.7-2.9-14.3-4.2 2.5 1.9 5.2 3.5 8 4.5-5.8-1.9-12-2.2-17.7-5.3 2.6 4.4 7.7 5.8 11.6 8.8-5.3-1.7-11.9-3.9-17.3-3.3 0.2 0.1 0.5 0.3 0.7 0.4-3-0.9-6.3-1.6-9.1-1.8 1.5 1 3 2.3 4.6 3.2-4.8 0.1-9.5-2.7-14.3-2.9 1.2 1.1 2.5 1.9 3.8 2.4-5.4-1.2-11.7-3.6-16.9-5.9 1.7 1.7 3.1 3.5 4.8 5.1-2.3-1.7-5-2.9-7.4-4.3 0.9 1.6 1.5 3.8 2.4 5.3-1.5-1.8-4.2-3-5.8-4.8 0.1 1.2-0.5 3.7-0.5 5.3-3.7-2.2-7.8-4.9-11.6-6.7 1 1.5 1.7 3.7 2.8 5.3-3.4-2.7-7.1-3.7-10.9-5.2 0.7 1 1.8 3.2 3 4.5-5.1-3.6-11.7-8.1-17.6-9 1.7 1.8 2.9 4 4.5 5.7-2.6-1.6-5.4-3.2-8-4.6 2 2.2 2.9 5 4.5 7.5-4.3-3.1-8.5-7.5-13.4-8.7 3.4 2 8 4.8 8.3 10.1-4.6-1.5-9.9-3.5-14.5-6.3 2.1 1.6 4.2 3.5 6.3 5.1-3.7-1.9-7.7-2.2-11.6-3.2 1.9 1.6 3.4 3.2 5.7 4.5-7.7-2.8-15.2-4.3-23.1-5.6 1.2 1.6 2.4 2.9 3.8 3.9-2.7-1.1-5.4-1.8-8.1-2.5 1.4 1.6 2.5 2.6 3.8 3.4-3-1.3-6.3-2.5-9.3-3.7 1.4 1.5 3 4.1 5 5.6-3.3-0.8-6.5-3-9.3-5.3 1.5 1.7 2.8 4.1 4.3 5.9-5.8-4.8-13.9-7.7-20.9-8.5 1.4 1.5 3.2 3.9 5 5.3-1.8-1.7-4.5-2.9-6.5-4.4 1.4 2 2.3 4.6 3.8 6.6-5.3-2.2-10.2-5.7-15.4-8.5 1.3 1.8 2.5 4.5 4 6.3-3.4-2.5-6.9-5.3-10.6-7.3 3.1 1.9 5.6 5.2 7.8 8.2-4.6-4.2-10.5-8.4-16.1-8.5 1.2 1.6 3 5.2 4.2 6.5-3.3-1.6-7.4-2-11-3.1 1.8 0.9 3.6 2.4 5.4 3.3-8.9-0.3-18.9 1.7-27.4-1 2.6 2.1 6.9 3.8 10.2 5.2-6.7-1.6-15.1-7.1-22.2-6.5 3 0.4 5.9 2 8.2 4.6-5.7-0.1-10.9-2.6-16.5-3.3-5.2-1.9-10.5-3-15.3-3.4 1.4 1.4 3.1 4.3 4.1 5.4-2-1.6-4.7-2.5-6.6-4.3 0.5 1.2 0.9 2.7 1.3 3.7-3.9-0.7-8-1.8-11.1-5.1 1.7 2.1 3.5 3.8 5.7 4.7-8.1-1.4-12.6-7.1-17.1-14.7-0.2 4.1-0.1 6.9 2.2 10.1-4.5-1.2-7.5-6.9-10.9-10.1 0.8 2.6 2.3 6.2 4.4 8.5-5.4-5.2-12.4-10.4-19.3-11.8 0.6 0.4 2.2 1.9 3.2 2.7-2.9-1.6-5.9-2.2-9.1-1.8 3 1.8 5.9 3.7 7.5 6.7-4.7-2-8.2-6.7-13.6-5.3 1.6 1.3 3 3.2 4.7 4.4-2.2-0.7-4.6-1.2-6.7-2.2 3.4 2.3 9.8 6.2 12.1 11-4.1-2.2-8.6-2.5-12.8-4.5 1.7 1.5 2.4 2.9 3.8 4.5-3.7-0.2-7-3.1-10.8-3.3 1.7 0.9 3.1 2.5 4.1 3.2-9.4 1.1-17.2-0.9-26.8 2.6 1.4-1.6 2.6-3.9 4.1-5.3-2.6 2.1-5.4 3.1-8.4 2.8 1.1-1.4 1.8-3.3 3-4.6-2.1 1.4-4.4 2-6.4 3.5 0.9-1.5 1.4-4 2.2-5.4-2.9 1.9-6.6 3.1-10.1 3.3 1.6-1.1 2.6-2.9 4-4.2-3.3 0.2-8 2-11.2 4.8 1-1.1 2.1-3 3.1-4.2-3.6 1.9-8.2 2.6-11.9 5.4 0.7-1.1 1.5-2.9 2.3-3.9-4.2 1.4-8.9 4.2-13.4 5.3 0.6-0.9 1.6-3.1 2.8-4.5-5.2 0-9.5 4.2-14.3 6.4 2.2-3.2 1.6-4.8 2.4-8.4-2.9 5-8.1 10.3-13.5 9.9 0.6-1.3 0.9-2.8 1.4-4.1-2.6 2.6-5.8 3.8-9.1 3.1 0.2-0.7 1-1.3 1.3-2.1-3.3-0.4-6.5 1.6-9.3 3.9 0.5-0.7 1.9-3 2.9-4.2-3.8 3-9.3 3.5-13.4 1 2-1.4 3.3-3.6 5.6-4.5-4-0.6-8.2 3.4-12.7 3.5 1.6-2.9 2.8-5.1 6.4-5.5-8.4 0-13.1 1.5-20.4 6.4 0.4-1.5 0.4-3.6 0.6-4.8-2.3 2.9-5.4 5.9-8.3 6 0.8-2 0.9-4.1 1.4-5.7-5.4 4.4-12.4 5.6-18.8 7.3 3.5-2.8 7.5-4.7 10.9-7.8-4.6-0.2-8.8 2.5-13.5 2.1 1-0.7 2.1-1.5 3.1-2.2-3.1 1.8-6.6 2.8-10.1 2.2 1.6-1.2 3.2-2.6 4.8-3.7-7.2 4.4-17.9 8.2-25.7 8.3 1.2-0.8 2.5-1.7 3.7-2.4-2.8 0.8-5.8 1.3-8.5 2.1 1.5-0.9 4.1-3.1 5.9-4.2-4.9 1.6-10 4-15.2 4.4 2.4-1.8 4.9-4 7.3-5.8-5.4 2.9-11.2 5-16.9 5.8 2.4-1.6 4.8-3.9 7.3-5.5-5.2 2-11.2 3.6-17 4.4 1.9-0.9 3.8-2.3 5.6-3.2-3.4 0.6-7.4 1.3-10.8 3 1.8-1.2 3.6-3.2 5.6-4.5-5.9 0.9-12.2 2.6-17.7 5.8 2.8-1.5 4.1-3.7 6.2-6.8-3.5 2.2-7.6 3.4-11.4 4.3 0.8-1 1.9-3.1 3-4.2-3.6 0.9-7.5 2.4-11.1 4.5 2-2.4 3.2-4 5.6-5.9-2.3 1-4.6 2-6.7 3.5v113.6h625.8v-107.3z"/><linearGradient id="SVGID_1_" x1="405.6" x2="202.6" y1="311.6" y2="306.6" gradientUnits="userSpaceOnUse"><stop style="stop-color:#E4AD8D" offset="0"/><stop style="stop-color:#E4AD8D" offset=".01685"/><stop style="stop-color:#E8B99A" offset=".07001"/><stop style="stop-color:#F0CFB3" offset=".1923"/><stop style="stop-color:#F4DCC3" offset=".3036"/><stop style="stop-color:#F6E1C8" offset=".3933"/><stop style="stop-color:#F5DDC3" offset=".4251"/><stop style="stop-color:#ECC3A6" offset=".6575"/><stop style="stop-color:#E6B393" offset=".8572"/><stop style="stop-color:#E4AD8D" offset="1"/></linearGradient><path class="st14" d="m391.2 485.3c-0.7-12.7-14.7-42.7-22-68s-14-45.3-18-55.3-8.7-42-12.7-47.3-4.7-12-4.7-12l-3.3-0.7c-1.3-66-10-94-15.3-114.7s-2-34.7-0.7-42.7-1.3-14.7-1.3-14.7 14.7-38.7 17.3-50-3.3-8-3.3-15.3-4-12.7-4-12.7c1.3-8-4-8-4-8s0-6-1.3-8.7-5.3-0.7-5.3-0.7c2-4.7-1.3-8.7-5.3-9.3-4-0.7-12 7.3-12 20s-6 8.7-5.3 26-7.3 41.3-7.3 41.3-16.7 39.3-2.7 42.7-0.7 96.7-0.7 96.7l-38.7 304 52.7 36.7 53.3-25.3s0.7-12.7-1.3-40.7-10.7-87.3-14.7-106-2-37.3-2-37.3 2 3.3 4 6 15.3 119.3 18.7 128.7c3.3 9.3 11.3 28 17.3 36.7s35.3-12 35.3-12c-6.7-15.4-12-44.7-12.7-57.4zm-83.7-434.3s-1.3 0.3-2.7-0.3 5.3-8.7 5.3-8.7l-2.6 9z"/><linearGradient id="SVGID_2_" x1="134.5" x2="433.9" y1="361.2" y2="361.2" gradientUnits="userSpaceOnUse"><stop style="stop-color:#E4AD8D" offset="0"/><stop style="stop-color:#E4AD8D" offset=".01685"/><stop style="stop-color:#E8B99A" offset=".07001"/><stop style="stop-color:#F0CFB3" offset=".1923"/><stop style="stop-color:#F4DCC3" offset=".3036"/><stop style="stop-color:#F6E1C8" offset=".3933"/><stop style="stop-color:#F5DDC3" offset=".4251"/><stop style="stop-color:#ECC3A6" offset=".6575"/><stop style="stop-color:#E6B393" offset=".8572"/><stop style="stop-color:#E4AD8D" offset="1"/></linearGradient><path class="st15" d="m267.2 80s-0.7-5.3 5.3-5.3 7.3 8 6.7 12 3.3 31.3 2 43.3 0 28-2.7 40-3.3 51.3-1.3 66.7 13.3 62 17.3 86.7 13.3 50 12 70-1.3 36-16 69.3-40 101.3-40 101.3 30.7 1.3 47.3 20.7c0 0 8-22 51.3-23.3 0 0 9.3-20 34-17.3 0 0 7.3-8.7 9.3-8.7s11.3 7.3 11.3 7.3 2.7-2.7 10-0.7 20 9.3 20 9.3l-60.5 82.7-84.7 4.7s-46 8-70.7 8-83.3 6-83.3-10.7 8.7-55.3 18-76.7c9.3-21.3 23.3-63.3 32-76.7 8.7-13.3 24-38 26.7-39.3s13.3-16.7 13.3-16.7l17.3-10.7s12-20.7 6-42-16-54-9.3-89.3 8.7-73.3 5.3-86c-3.3-12.7 0.7-24-0.7-34-1.3-10-5.3-44.7-2.7-51.3s6-12 8.7-10c0 0-0.7-6 2.7-8l3.3-2s-2-6.7 4.7-7.3c0.1 0-2.6-6.7 7.4-6z"/><linearGradient id="SVGID_3_" x1="262.6" x2="263.6" y1="598.6" y2="541.6" gradientUnits="userSpaceOnUse"><stop style="stop-color:#FEBBBC" offset="0"/><stop style="stop-color:#FF5B5C" offset="1"/></linearGradient><path class="st16" d="m183.2 603.3s2-40.7 7.3-63.3c0 0 4 8 31.3 8.7s95.3 6.7 110.7-2.7l10 15.3s-33.3 5.3-44.7 23.3c0 0-11.6-11.6-25-16.9-8.4-3.4-17.6-3.1-25 0.3-19.3 8.7-39.3 22-39.3 22l-25.3 13.3z"/><linearGradient id="SVGID_4_" x1="271.3" x2="284" y1="632.3" y2="537.2" gradientUnits="userSpaceOnUse"><stop style="stop-color:#FF5B5C" offset="0"/><stop style="stop-color:#FF7071" offset=".194"/><stop style="stop-color:#FEA6A7" offset=".7364"/><stop style="stop-color:#FEBBBC" offset="1"/></linearGradient><path class="st17" d="m208.5 590s2.7-17.3 15.3-23.3c12.7-6 18.7-5.3 18.7-5.3s34.7-1.3 55.3 23.3c0 0 13.3-28.7 51.3-23.3l-3.3 3.3s-24-6.7-47.3 22c0 0-23.3-24-36-18.7s-26.7 18-26.7 18 16 1.3 20.7 14.7 8 34.7-1.3 44h-6.7s8-8 6-26-8-39.4-46-28.7z"/><path d="m330.5 302s-4 5-2 9.5 1 9 1 11.5-0.5 14.5-1 21.5 0 38.8 0 38.8l1 1.7s1-19.5 3-17.5 2 2 2 2-3-15.5-2.5-20.5-4.5-25 0.5-28c0 0-3.5-11.5-2-19z"/><path d="m241.9 416s-0.8 2.5-4.3 7-10 17-12 17-0.5 0-2 4-7.5 19-7.5 19l5-2s2.5-8 4.5-13 11-18.5 12-20 5.6-9.5 4.3-12z"/><path d="m243.5 449.5s4.5 3.5-1.5 9.5-15.5 10.5-20.5 17-7.5 15-14 17-8 8.5-8 8.5l-8 37s11-40 11.5-37.5 8-1.5 11.5-7 7.5-16 12-20.5 18.5-13 20-17-3-7-3-7z"/><linearGradient id="SVGID_5_" x1="234" x2="244.5" y1="453.9" y2="453.9" gradientUnits="userSpaceOnUse"><stop style="stop-color:#FF0084" offset="0"/><stop style="stop-color:#FF0084" offset="1"/></linearGradient><path class="st18" d="m234 455l3.5 3.5 7-4.5s-0.5-6-4.5-4.5l-6 5.5z"/><path class="st19" d="m204 473.5s5-5.5 10.5-8 17-13 22.5-16c0 0-8 6.5-11 10s-9.5 7.5-12.5 8.5-9.5 5.5-9.5 5.5z"/><path d="m183.2 603.3s-23.2 11.7-28.7 11.7-5.5 0-5.5 0l34.2-11.7z"/><path class="st20" d="m383.5 551s6.5-8 14-8.5l-1-2-1.5 1.5-2-2-0.5 2.5-2-2-0.5 2-2.5-1v2l-2.5-0.5 0.5 2.5h-2.5l1 2.5-2.5-0.5 2 3.5z"/><path d="m363 585s8 13-6.5 22c0 0-6 2.5-9.5 1.5 0 0 7 6 12 4.5s8.5-7 9.5-11.5 2.5-15.5-5.5-16.5z"/><path d="m360.5 585s3 6 0 12-4.5 6-4.5 6 5.5-7.5 3-13.5l1.5-4.5z"/><path d="m352.5 593s2.5-4 3.5 0-1 3.5-2 5.5-1.5 4.5-5 3 1.5-2.5 0-4.5 0-4 3.5-4z"/><path class="st21" d="m256.5 550.6s43.3-110 48-131.3c0 0-16 57.3-20 68.7-4 11.3-18.7 52.7-18 54.7s4 8 4 8h-14z"/><path d="m279.5 250.5s19 93.5 19.7 96.2 4 13.3 4 13.3-12.7-69.7-23.7-109.5z"/><path class="st22" d="m346.5 567.3s-11.3 23.3-13.3 24-16 6-16 6-16-4.7-18.7-4.7-29.3 8-29.3 8 8.7-5.3 14-8 15.3-6 15.3-6 21.3 0.7 24 0.7 9.3-0.7 11.3-2c2.1-1.3 12.7-18 12.7-18z"/><path d="m305.2 598s8 0 6.7 2.7-3.3 2.7-3.3 2.7l-3.4-5.4z"/><path d="m271.2 604s26.7-6 26-3.3-2 6-2 6l-3.3 1.3-2.7-2-18-2z"/><path class="st23" d="m347.2 565.3s10.7-15.3 30-17.3l2.7-2s-18.7-6.7-32.7 19.3z"/><path class="st23" d="m389.9 548s10.7-6 17.3-6c6.7 0 10.7 3.3 10.7 3.3l-10.7 3.3s-4.7-4-17.3-0.6z"/><path class="st23" d="m303.9 605.3l29.3-14-28.7 19.3s-2.6-4-0.6-5.3z"/><path class="st24" d="m151.2 618.6c-1.2 0.5-2.4 1.1-3.4 1.7-0.7-2.6-1.2-8.6 3.4-21.1l20.7-77.3s-2.7 2.7-5.3 8c-2.7 5.3-41.3 102-28.7 109.3 0 0 6 1.3 9.3 0.7 3.3-0.7 36-33.3 36-33.3s-18.7 6.7-32 12z"/><linearGradient id="SVGID_6_" x1="301.5" x2="311.9" y1="32.31" y2="32.31" gradientUnits="userSpaceOnUse"><stop style="stop-color:#FF0084" offset="0"/><stop style="stop-color:#FF0084" offset="1"/></linearGradient><path class="st25" d="m301.5 36l6.3 2 4-7.7s-1.7-5-7.7-3.3l-2.6 9z"/><linearGradient id="SVGID_7_" x1="312.5" x2="317.9" y1="37.92" y2="37.92" gradientUnits="userSpaceOnUse"><stop style="stop-color:#FF0084" offset="0"/><stop style="stop-color:#FF0084" offset="1"/></linearGradient><path class="st26" d="m312.9 40.3l4 1.3 1-6.3s-3.3-2-5.3-0.7l0.3 5.7z"/><linearGradient id="SVGID_8_" x1="318.2" x2="322.5" y1="47.59" y2="47.59" gradientUnits="userSpaceOnUse"><stop style="stop-color:#FF0084" offset="0"/><stop style="stop-color:#FF0084" offset="1"/></linearGradient><path class="st27" d="m318.2 49l3.3 1.3 1-3.7s-1.3-2.3-4-1.7l-0.3 4.1z"/><linearGradient id="SVGID_9_" x1="270.2" x2="276.9" y1="78.76" y2="78.76" gradientUnits="userSpaceOnUse"><stop style="stop-color:#FF0084" offset="0"/><stop style="stop-color:#FF0084" offset="1"/></linearGradient><path class="st28" d="m271.2 82.3l5.7 0.3v-5.6s-3.3-4-6.7-1l1 6.3z"/><linearGradient id="SVGID_10_" x1="261.2" x2="267.9" y1="81.64" y2="81.64" gradientUnits="userSpaceOnUse"><stop style="stop-color:#FF0084" offset="0"/><stop style="stop-color:#FF0084" offset="1"/></linearGradient><path class="st29" d="m261.9 83.3l6-0.3-0.7-3s-5.3-0.3-6 1.7l0.7 1.6z"/><linearGradient id="SVGID_11_" x1="256.5" x2="261.5" y1="87.98" y2="87.98" gradientUnits="userSpaceOnUse"><stop style="stop-color:#FF0084" offset="0"/><stop style="stop-color:#FF0084" offset="1"/></linearGradient><path class="st30" d="m258.2 90l3.3-0.3-1.7-3.7s-2.3 0.7-3.3 1.7l1.7 2.3z"/><linearGradient id="SVGID_12_" x1="251.5" x2="255.9" y1="95.76" y2="95.76" gradientUnits="userSpaceOnUse"><stop style="stop-color:#FF0084" offset="0"/><stop style="stop-color:#FF0084" offset="1"/></linearGradient><path class="st31" d="m251.5 97.3h4.3l-0.3-3s-3.3-1-4 3z"/><linearGradient id="SVGID_13_" x1="245.2" x2="249.2" y1="104.5" y2="104.5" gradientUnits="userSpaceOnUse"><stop style="stop-color:#FF0084" offset="0"/><stop style="stop-color:#FF0084" offset="1"/></linearGradient><path class="st32" d="m245.2 106h4v-2.7s-3.7-1.3-4 2.7z"/><path d="m317.2 46.3s-4.3 9.3-3.7 10.7 2 0.3 2 0.3-0.3-6.7 1.7-11z"/><path d="m322.5 53.3s-2.7 9.3-2.3 10.3c0.3 1 0.3 1 0.3 1l2-11.3z"/><path d="m312.5 34.6s-2.7 7-3.7 8l1-1c0.1 0 1.4 1 2.7-7z"/><path d="m304.9 50.6s-2.3 5.7 0.7 5.7 2-5.3 2-5.3-1.1 1-2.7-0.4z"/><path d="m270.5 87.3l0.3 13.7 2.3-1c0.1 0-0.9-1.4-2.6-12.7z"/><path d="m261.5 89.6s2 5.7 2 8 2.3 1.7 2.3 1.7-1.7-12.7-6-13.3l1.7 3.6z"/><path d="m255.9 97.3s0 4.7 1 4.7 2 0 2 0-0.7-8.3-3.3-7.7l0.3 3z"/><path d="m249.2 106l0.3 4.7s2.3-3.3 1.7-5c-0.7-1.7 0.3-3.7-2-2.3v2.6z"/><linearGradient id="SVGID_14_" x1="359.9" x2="373.9" y1="564.2" y2="597.2" gradientUnits="userSpaceOnUse"><stop style="stop-color:#896D69" offset="0"/><stop style="stop-color:#40130D" offset="1"/></linearGradient><path class="st33" d="m420.5 548.6s-10 3.3-16 6.7l-1.3-2-4 4v-3.3l-4.7 4 0.7-3.3-4.7 4.7-0.7-2.7s-9.3 11.3-13.3 16.7l-0.7-2.7-3.3 3.3 1.3-4.7-6 6.7 0.7-4.7-4.7 6.7v-4.7l-10 7.3 6-2-1.3 4.7 4.7-1.3s9.3 11.3-2 23.3l6.7-2-2.7 16-2-2.7-2 7.3-0.7-6-3.3 8-0.7-4.7-2.7 8.7-2-5.3-2 10.7s-10-13.3-21.3-12-20 11.3-20 11.3-22 4.7-22-9.3 16-14.7 16-14.7l-7.3-4-3.3 1.3v-3.3s-19.3 11.3-8 29.3c0 0-13.3-8.7-4.7-22.7 0 0-16 10-4 22.7 0 0-12-8-6-17.3 0 0-10.7 11.3 8 20.7 0 0-8.7-2.7-10 5.3 0 0 28.7-5.3 40-1.3s54 12 73.3 6 54.7-8 66.7-4.7 44.7 2 44.7 2-2.7-4.7-1.3-11.3c1.3-6.7-2-62-14-66.7s-12-4.7-12-4.7 8.7-7.3 17.3 0.7c8.7 8 8 12.7 8 12.7s-3.3-22.7-24-18l5.3-6s-6.7-6-14 2.7c0 0 5.3-12.7 2.7-12-2.7 0.7-8.7 6-8.7 6s-6.7-3.3-8 2c0 0-0.7-9.3-2.7-9.3s0 6-1.3 8.7l-4-1.3s0.7-6.7-2.7-6.7c0 0 0 4.7-2 5.3 0 0-1.3-7.3-2.7-5.3-1.3 2 0.7 4-1.3 6 0 0-0.7-5.3-3.3-4-2.7 1.2-2.7 5.2-2.7 5.2z"/><path d="m304.2 27s-5 9-4 10 5.3 4 7.7 1l-6.3-2 2.6-9z"/><path d="m277.2 78s2 5.3 0.3 6-6.3-1.7-6.3-1.7l5 0.3 1-4.6z"/><path class="st34" d="m304.2 28l7.3 3.7s0.3-2.3-3-4-4.3 0.3-4.3 0.3z"/><path class="st34" d="m311.5 31.6l4.3 1c0.1 0-1.3-5-4.3-1z"/><path d="m329.9 304.3s-0.3 7.3 0.3 9c0.7 1.7-3.7-2.3-0.3-9z"/><path d="m329.5 335.3l-1 48s1.3-22.3 2.3-21 1.3 2.3 1.3 2.3-2.6-27-2.6-29.3z"/><polygon class="st35" points="270.9 93.3 270.9 101 272.2 100"/><path d="m280.9 117.6s0.7 11 0 15-0.3 22-0.3 22l2.3 2s-1.7-9.3-1.3-13c0.3-3.7 1.3-7.7 0.7-9-0.8-1.3 0.6-15.3-1.4-17z"/><path class="st36" d="m240.2 419.6s-1.7 4.7-3.3 6.3c-1.7 1.7-10 15.3-11 15.3s-8 20.3-8 20.3h1.7s6.7-19 7.7-20.3c0.9-1.2 11.2-14.6 12.9-21.6z"/><path class="st36" d="m197.5 515s4.3-17.3 6.3-18 9-4.7 11.3-9 9.7-14.3 9.7-14.3-10 19.3-11.7 19.7c-1.7 0.3-6.3 5-9 5.3s-6.6 16.3-6.6 16.3z"/><path class="st36" d="m245.2 452.3s2.3 3-4.7 8.7l-5.3 4.7c0-0.1 14.3-8.1 10-13.4z"/><path d="m329.9 316.3l-0.3 10.3 1.7-6c-0.1 0-1.8-1.3-1.4-4.3z"/><polygon points="346.5 567.3 331.9 591.3 327.9 592.6"/><path class="st24" d="m260.5 605.3s44-9.3 41.3-9.3-2-2-5.3-1.3-36.6 7.9-36 10.6z"/><path class="st37" d="m337.5 320s-2 7-2 13 5 27 5 27l11 10s-6-13-7-18-0.6-32.7-7-32z"/><path class="st23" d="m412.5 570s-16.7 8-10 21.3l5.3 8s-10-1.3-10.7-5.3-5.2-16 15.4-24z"/><path class="st23" d="m407.2 564s-22 16.7-9.3 35.3c0 0-22-16 9.3-35.3z"/><path class="st23" d="m423.9 548.6s3.3 20.7 3.3 25.3-1.3 8.7-1.3 8.7l-2-34z"/><path class="st23" d="m429.9 568.6s-2 15.3-0.7 20.7c1.3 5.3 3.3 14.7 3.3 14.7s1.3-8.7 0.7-12.7-2.7-14.7-3.3-22.7z"/><path class="st23" d="m431.2 551.3s0.7 18.7 4 25.3 2 21.3 3.3 26 4.7 14 4.7 11.3-2.7-16-3.3-23.3c-0.7-7.3-1.3-17.3-3.3-21.3s-5.4-18-5.4-18z"/><path class="st23" d="m417.2 593.3s6 8 11.3 13.3 18.7 18.7 18 25.3-0.7 6.7-0.7 6.7 5.3-5.3 2.7-11.3-20.6-25.3-20.6-25.3l-10.7-8.7z"/><path class="st23" d="m410.5 593.3s7.3 14.7 13.3 19.3 16 12.7 14.7 19.3-1.3 6.7-1.3 6.7 5.3-4 4-8.7-12-18.7-18-22.7-12.7-13.9-12.7-13.9z"/><path class="st23" d="m440.5 556.6s1.3 11.3 2 19.3 3.3 20.7 8.7 28 7.3 10.7 7.3 10.7-7.3-18-10-28-8-30-8-30z"/><path class="st23" d="m453.2 586s5.3 14 6.7 20.7c1.3 6.7 7.3 12 6 20s-4 10.7-4 10.7 7.3-6.7 7.3-15.3-5.3-13.3-8-20.7-8-15.4-8-15.4z"/><path class="st23" d="m452.5 572.6s6.7 16 8.7 22 12.7 16 11.3 26-7.3 18.7-7.3 18.7 11.3-8.7 10.7-21.3c-0.7-12.7-10.7-23.3-13.3-28.7-2.7-5.3-10.1-16.7-10.1-16.7z"/><path class="st23" d="m461.2 560.6s4.7 11.3 5.3 18.7c0.7 7.3 4.7 18.7 4.7 18.7s1.3-10.7-0.7-15.3-6-18.7-9.3-22.1z"/><path class="st23" d="m469.9 575.3s6.7 8.7 6 15.3c-0.7 6.7-1.3 10-1.3 10s4.7-6 2.7-14-7.4-11.3-7.4-11.3z"/><path class="st23" d="m477.9 581.3s5.3 14.7 3.3 21.3-2 6.7-2 6.7l2.7 3.3s6-19.3-4-31.3z"/><path class="st23" d="m474.5 605.3s10.7 14.7-4 36.7c0 0 10-4 10-12.7s-2-20-6-24z"/><path class="st23" d="m445.2 550.6s9.3 15.3 10.7 22c0 0-4-22-10.7-22z"/><path class="st23" d="m422.5 618.6s12 10.7 8 18c0 0 10-7.3-8-18z"/><path class="st23" d="m393.2 563.3s-16.7 19.3-10.7 32c0 0-12.6-11.3 10.7-32z"/><path class="st23" d="m386.5 564s-21.3 31.3-10 39.3c0 0-20-3.3 10-39.3z"/><path class="st20" d="m481.5 577s21 28 8 50c0 0 23-21-12-57l4 7z"/><path class="st20" d="m319.5 641s-26 11-38-4c0 0 9.7 21 41 7l-3-3z"/><path class="st38" d="m154.5 615s19.3-5.3 28.7-11.7c0 0-34.7 11.7-28.7 11.7z"/><path class="st39" d="m241.5 586s23-18 30-15 21 17 21 17l6-1.3s-22-25.7-36-18.7-26.7 18-26.7 18h5.7z"/><path class="st39" d="m298.5 586.6s20-30 48-19.3c0 0-18.7-4.7-43 19.7l-5-0.4z"/><path class="st23" d="m392.5 613s18 19 9 25h7s5-9-16-25z"/><path class="st23" d="m389.5 604s24 15 25 28c0 0-1-23-25-28z"/><path class="st23" d="m372.5 615s-2 25-18 27c0 0 22 5 18-27z"/><path class="st23" d="m377.5 622s5 19-18 26c0 0 28 3 18-26z"/><path class="st23" d="m380.5 609s9 23-2 35c0 0 16-12 2-35z"/><path class="st20" d="m263.5 644s-20-12-16-24l-6 5s3 18 22 19z"/><path class="st20" d="m269.5 642s-13-8-10-17h-4s1 16 14 17z"/><path class="st20" d="m255.2 644.6s-13.7-4.7-16.7-14.7c0 0.1-0.6 11.4 16.7 14.7z"/><path class="st20" d="m305.5 634s22-29 39 0l5.3 1.3c0.1 0-17.3-35.3-44.3-1.3z"/><path class="st20" d="m312.5 634s-26.7 1.3-23-20l-4 4s1 23 27 16z"/><path class="st20" d="m421.5 635s-5 21-31 7l-4 2s33.4 18.6 35-9z"/><path class="st20" d="m488.5 631s18.7 10.3 11 12-14-1-14-1l-4 2s46 6 7-13z"/><path class="st20" d="m325.8 637.7s10 19 37 4h5s-36 22-42-4z"/><path class="st20" d="m298.8 632.7s15 16 52 7h7s-49 14-59-7z"/><path class="st20" d="m421.5 552s-13-14-16 7l-3 1s4-25.4 19-8z"/><path class="st23" d="m340.5 633s-10-7-28 1c0 0 14-14 28-1z"/><path class="st39" d="m448.5 614s10 14 4 23c0 0 16.7-11-4-23z"/><path class="st39" d="m414.5 614s12 15 4 23c0 0 13.4-3-4-23z"/><path class="st39" d="m420.5 566s-4 16 4 27c0 0-15-10-4-27z"/><path class="st39" d="m385.5 612s7 28.7 1 32c0 0 14-8-1-32z"/><path class="st39" d="m411.5 576s-5 9.7-1 17.3c0 0-12-5.3 1-17.3z"/><path class="st39" d="m265.5 567s19 7.7 31 22h3s-16-18-34-22z"/><path class="st39" d="m299.5 589s17-24 44-23l3 1.3s-23-14.3-47 21.7z"/><path class="st36" d="m352.5 593s6 9-3.5 8.5c0 0 4.5-1.5 0-4.5l3.5-4z"/><path class="st23" d="m344.5 595l2 10s-14-1-2-10z"/><path class="st40" d="m190.5 546l11 7-3 40-15.3 10.3s3.3-51.3 7.3-57.3z"/><path class="st38" d="m260.5 539s-11 2-32 5c-3.6 0.5-7.1 0.7-10.3 0.6l-5-51.3-11.7 3.7 7.3 46.8c-10.5-1.7-17.3-5.3-17.3-5.3l-1 4.5c2.5 2.2 10 3.8 19 4.9v0.1h0.8c19.6 2.4 46.2 2.7 46.2 2.7l4-11.7z"/><path class="st39" d="m236.5 549s17 1 26-6c0 0 13 7 28 8 0 0-21 3-54-2z"/><polygon class="st39" points="336.5 377 340.5 374 341.5 391"/><path class="st23" d="m390.5 616s10 19 4 24c0 0 13-4-4-24z"/><path class="st1" d="m180.7 399.2c17.2-2.5 28.4-0.8 38.3 0.8 6.9 1.1 12.9 2 19.5 1.1l0.1 2.7c-7 0.9-13.1 0-20.3-1.1-9.7-1.5-20.6-3.2-37.4-0.8-27.9 4.1-38.8 28-39.2 42.1-0.7 28.4-12.6 44-13.1 44.7l-2.1-1.5c0.1-0.2 11.8-15.5 12.5-43 0.3-15.1 12-40.6 41.7-45z"/><path class="st1" d="m206.6 386.6c-1.5 1.4-1.7 3.6-0.5 5 1.2 1.3 3.5 1.3 5-0.1s1.7-3.6 0.5-5c-1.3-1.3-3.5-1.3-5 0.1zm3.9 4.2c-1.1 1-2.7 1-3.7 0.1-0.9-1-0.8-2.6 0.3-3.6s2.7-1 3.6-0.1c1.1 1 0.9 2.6-0.2 3.6z"/><path class="st1" d="m118.6 476.3c1.1-0.3 1.8-1.3 1.7-2.4-0.2-1-1.2-1.7-2.2-1.4-1.1 0.3-1.8 1.3-1.7 2.4 0.1 1 1.1 1.6 2.2 1.4z"/><path class="st1" d="m114 467c2.7-1.9 6.7-2.2 9.8-0.7 2.7 1.3 4.3 3.7 4.3 6.6 0 2.4-1.3 4.5-3.4 5.6-2.3 1.2-5.2 1.1-6.8-0.3-1.4-1.1-1.7-2.9-0.9-5l1.3 0.3c-0.6 1.6-0.4 2.8 0.6 3.6 1.2 1 3.5 1.1 5.4 0.2 1-0.5 2.6-1.7 2.6-4.3 0-3.3-2.2-4.9-3.6-5.5-2.7-1.2-6.1-1-8.4 0.6-5.3 3.6-5.7 12.6-3.7 17.2 1.1 2.6 3.1 4.2 5.7 4.7 3 0.5 6.5-0.5 9.5-2.9 5.9-4.7 9.6-14.5 12.7-22.5 1.2-3.1 2.3-6 3.4-8.3 25.2-52.2 57.5-51.1 74.8-50.5 4.3 0.1 7.8 0.3 9.4-0.6 8.3-4.5 13.5-2.6 18.1-0.9l1.8 0.7-0.6 1.3-1.8-0.7c-4.5-1.7-9.2-3.4-17 0.8-2 1.1-5.4 1-10.2 0.8-17-0.6-48.7-1.6-73.4 49.6-1.1 2.3-2.2 5.1-3.4 8.2-3.1 8.1-7 18.2-13.2 23.2-3.4 2.7-7.3 3.9-10.7 3.2-3-0.5-5.3-2.5-6.6-5.4-2.2-5.2-1.7-14.9 4.3-19z"/><path class="st1" d="m113.6 469.7c2.7-1.9 6.7-2.2 9.8-0.7 2.7 1.3 4.3 3.7 4.3 6.6 0 2.4-1.3 4.5-3.4 5.6-2.3 1.2-5.2 1.1-6.8-0.3-1.4-1.1-1.7-2.9-0.9-5l1.3 0.3c-0.6 1.6-0.4 2.8 0.6 3.6 1.2 1 3.5 1.1 5.4 0.2 1-0.5 2.6-1.7 2.6-4.3 0-3.3-2.2-4.9-3.6-5.5-2.7-1.2-6.1-1-8.4 0.6-5.3 3.6-5.7 12.6-3.7 17.2 1.1 2.6 3.1 4.2 5.7 4.7 3 0.5 6.5-0.5 9.5-2.9 6.5-5.2 12.5-17 17-25.6l3.1-5.9c23.4-42.5 54.5-46.5 71.2-48.6 4.2-0.5 7.5-0.9 9.2-1.8 8.4-4.6 15.4-2 20.6-0.2l1.7 0.6-0.6 1.3-1.7-0.6c-4.9-1.8-11.6-4.2-19.4 0.1-1.9 1-5.2 1.5-9.7 2-16.4 2.1-47 5.9-70 47.8l-3 5.8c-4.5 8.8-10.6 20.8-17.4 26.1-3.4 2.7-7.3 3.9-10.7 3.2-3-0.5-5.3-2.5-6.6-5.4-2.7-5-2.2-14.8 3.9-18.9z"/><path class="st1" d="m139.3 490.4c0.7 0.5 0.7 1.6 0 2.5s-1.8 1.3-2.5 0.8-0.7-1.6 0-2.5 1.8-1.3 2.5-0.8z"/><path class="st1" d="m131 483l0.8 1c-3.3 2.5-4.6 6-3.8 9.6 0.8 3.5 3.7 6.2 6.6 6.3 2.6 0.1 5-1.7 6.8-5.2 1.2-2.2 1.1-4.9-0.1-6.3-0.8-1-2.1-1.2-3.6-0.6-2.3 0.8-3.8 3.7-3.5 5.1 0.2 0.7 0.8 0.9 2 0.5l0.2 1.3c-2.8 0.8-3.4-0.9-3.6-1.4-0.5-2.1 1.6-5.7 4.5-6.7 2.1-0.7 3.9-0.4 5 1 1.5 1.8 1.6 5.1 0.2 7.8-2.9 5.4-6.4 6.1-8.2 6-3.6-0.1-6.8-3.2-7.8-7.2-0.8-4.3 0.8-8.3 4.5-11.2z"/><path class="st1" d="m132.7 481.4l0.8 1c-3.2 2.4-4.6 6-3.7 9.7 0.9 3.9 4 6.9 7.2 7 2.6 0.1 4.9-1.7 6.7-5 1.2-2.2 1.1-4.9-0.1-6.3-0.8-1-2.1-1.2-3.6-0.6-2.3 0.8-3.8 3.7-3.5 5.1 0.1 0.7 0.8 0.9 2 0.5l0.2 1.3c-2.8 0.8-3.4-0.9-3.6-1.4-0.5-2.1 1.6-5.7 4.5-6.8 2.1-0.7 3.8-0.4 5 1 1.5 1.8 1.6 5.1 0.2 7.8-2.8 5.2-6.3 5.9-8.1 5.9-3.7-0.1-7.3-3.5-8.4-7.9-0.9-4.4 0.7-8.5 4.4-11.3z"/><path class="st1" d="m146.5 472c-1.5 1.4-1.7 3.6-0.5 5 1.2 1.3 3.5 1.3 5-0.1s1.7-3.6 0.5-5-3.5-1.3-5 0.1zm4 4.2c-1.1 1-2.7 1-3.7 0.1-0.9-1-0.8-2.6 0.3-3.6s2.7-1 3.7-0.1c0.9 0.9 0.8 2.6-0.3 3.6z"/><path class="st1" d="m181 440.1c-1.5 1.4-1.7 3.6-0.5 5 1.2 1.3 3.5 1.3 5-0.1s1.7-3.6 0.5-5-3.5-1.3-5 0.1zm3.9 4.2c-1.1 1-2.7 1-3.7 0.1-0.9-1-0.8-2.6 0.3-3.6s2.7-1 3.7-0.1 0.8 2.6-0.3 3.6z"/></svg>
