<svg aria-hidden="true" style="position: absolute; width: 0; height: 0; overflow: hidden;" version="1.1" xmlns="http://www.w3.org/2000/svg" xmlns:xlink="http://www.w3.org/1999/xlink">
<defs>
<symbol id="icon-inbox" viewBox="0 0 32 32">
<title>inbox</title>
<path d="M26 1c0-0.552-0.447-1-1-1h-18c-0.552 0-1 0.448-1 1l-6 15v14c0 1.104 0.896 2 2 2h28c1.104 0 2-0.896 2-2v-14l-6-15zM23 16l-3 5c0 0.553-0.447 1-1 1h-6c-0.553 0-1-0.447-1-1l-3-5h-5l5.143-12h13.715l5.142 12h-5z"></path>
</symbol>
<symbol id="icon-user" viewBox="0 0 32 32">
<title>user</title>
<path d="M0 32v-3c0-4.484 5.649-6.179 13.099-6.862-1.636-1.014-2.92-3.864-3.589-6.14-0.003 0-0.006 0.002-0.010 0.002-0.068 0-1.5-1.791-1.5-4 0-1.938-0.138-3.554 1.007-3.92-0.001-0.027-0.007-0.053-0.007-0.080 0-2.457 1.271-4.61 3.187-5.859 0.495-1.235 2.004-2.141 3.813-2.141s3.318 0.906 3.813 2.141c1.916 1.249 3.187 3.402 3.187 5.859 0 0.027-0.006 0.053-0.007 0.080 1.145 0.366 1.007 1.982 1.007 3.92 0 2.209-1.588 4-1.5 4-0.004 0-0.007-0.002-0.010-0.002-0.669 2.275-1.953 5.126-3.589 6.14 7.45 0.683 13.099 2.315 13.099 6.862v3h-32z"></path>
</symbol>
<symbol id="icon-key" viewBox="0 0 32 32">
<title>key</title>
<path d="M14 20h-3v-0.061c-0.33 0.034-0.661 0.061-1 0.061-5.522 0-10-4.477-10-10s4.478-10 10-10 10 4.477 10 10v4h1v1h1v1h1v1h1v1h1v1h1v1h1v1h1v1h1v1h1v1h1v1h1v6c0 0.553-0.447 1-1 1h-4c-0.553 0-1-0.447-1-1v-4h-5c-0.552 0-1-0.447-1-1v-4h-5M8 4c-2.209 0-4 1.791-4 4s1.791 4 4 4 4-1.791 4-4-1.791-4-4-4z"></path>
</symbol>
<symbol id="icon-location" viewBox="0 0 32 32">
<title>location</title>
<path d="M15.938 32c0 0-9.938-14.062-9.938-20.062 0-11.813 9.938-11.938 9.938-11.938s10.062 0.125 10.062 11.875c0 6.187-10.062 20.125-10.062 20.125zM16 6c-2.209 0-4 1.791-4 4s1.791 4 4 4 4-1.791 4-4-1.791-4-4-4z"></path>
</symbol>
<symbol id="icon-forward" viewBox="0 0 32 32">
<title>forward</title>
<path d="M17.961 11.954v-9.954l14.039 14-14.039 14v-10.042c-7.135 0-14.177 1.242-17.961 7.136 0.394-10.741 8.43-13.298 17.961-15.14z"></path>
</symbol>
<symbol id="icon-trophy" viewBox="0 0 32 32">
<title>trophy</title>
<path d="M24.5 0h-17c-4.143 0-7.5 3.357-7.5 7.5s3.357 7.5 7.5 7.5h1.364c1.596 1.626 3.74 2.71 6.136 2.948v10.052h-3l-4 4h16l-4-4h-3v-10.052c2.396-0.238 4.54-1.322 6.136-2.948h1.364c4.143 0 7.5-3.357 7.5-7.5s-3.357-7.5-7.5-7.5zM2 7.5c0-2.514 1.696-4.61 4-5.267v5.767c0 1.816 0.492 3.516 1.339 4.983-2.961-0.087-5.339-2.501-5.339-5.483zM24.661 12.983c0.847-1.467 1.339-3.167 1.339-4.983v-5.767c2.304 0.656 4 2.753 4 5.267 0 2.982-2.378 5.396-5.339 5.483z"></path>
</symbol>
</defs>
</svg>
