<?xml version="1.0" encoding="UTF-8"?>
<svg width="110.4" height="51.5" preserveAspectRatio="none" version="1.1" viewBox="0 0 110.38265 51.5" xmlns="http://www.w3.org/2000/svg" xmlns:xlink="http://www.w3.org/1999/xlink"><defs><radialGradient id="radialGradient4778" cx="0" cy="0" r="27.75" gradientTransform="translate(.1 .1)" gradientUnits="userSpaceOnUse"><stop stop-color="#900" offset="0"/><stop stop-color="#C54200" offset=".349"/><stop stop-color="#F68C00" offset=".4157"/><stop stop-color="#D25600" offset=".7176"/><stop stop-color="#f90" offset="1"/></radialGradient><radialGradient id="radialGradient4780" cx="0" cy="0" r="27.75" gradientTransform="translate(.1 .1)" gradientUnits="userSpaceOnUse"><stop stop-color="#900" offset="0"/><stop stop-color="#f90" offset="1"/></radialGradient><radialGradient id="radialGradient4782" cx="0" cy="0" r="28.26" gradientTransform="translate(1.9,-1.9)" gradientUnits="userSpaceOnUse"><stop stop-color="#FFF100" offset="0"/><stop stop-color="#f90" offset=".8824"/><stop stop-color="#ff0" offset="1"/></radialGradient></defs><g id="hero" transform="translate(25.75,25.75)"><path d="m17.85-17.85q-7.4-7.4-17.85-7.4t-17.85 7.4-7.4 17.85 7.4 17.85 17.85 7.4 17.85-7.4 7.4-17.85-7.4-17.85m-9.1 4.95q0.55-1.05 1.3-1.05t1.3 1.05q0.55 1.1 0.55 2.65t-0.55 2.6q-0.55 1.1-1.3 1.1t-1.3-1.1q-0.55-1.05-0.55-2.6t0.55-2.65m-7.45 2.65q0 1.55-0.7 2.6-0.7 1.1-1.65 1.1t-1.65-1.1q-0.7-1.05-0.7-2.6t0.7-2.65q0.7-1.05 1.65-1.05t1.65 1.05q0.7 1.1 0.7 2.65m-9.3 23.25q11.35-12 18.85-6.1-7.5-5.9-18.85 6.1z" style="fill:url(#radialGradient4782)"/><path d="m0.6-7.65q0.7-1.05 0.7-2.6t-0.7-2.65q-0.7-1.05-1.65-1.05t-1.65 1.05q-0.7 1.1-0.7 2.65t0.7 2.6q0.7 1.1 1.65 1.1t1.65-1.1m9.45-6.3q-0.75 0-1.3 1.05-0.55 1.1-0.55 2.65t0.55 2.6q0.55 1.1 1.3 1.1t1.3-1.1q0.55-1.05 0.55-2.6t-0.55-2.65q-0.55-1.05-1.3-1.05z"/><path d="m11.9-10.25q0 1.55-0.55 2.6-0.55 1.1-1.3 1.1t-1.3-1.1q-0.55-1.05-0.55-2.6t0.55-2.65q0.55-1.05 1.3-1.05t1.3 1.05q0.55 1.1 0.55 2.65zm-10.6 0q0 1.55-0.7 2.6-0.7 1.1-1.65 1.1t-1.65-1.1q-0.7-1.05-0.7-2.6t0.7-2.65q0.7-1.05 1.65-1.05t1.65 1.05q0.7 1.1 0.7 2.65zm23.95 10.25q0 10.45-7.4 17.85t-17.85 7.4-17.85-7.4-7.4-17.85 7.4-17.85 17.85-7.4 17.85 7.4 7.4 17.85zm-33.25 13q11.35-12 18.85-6.1" style="fill:none;stroke-linecap:round;stroke-linejoin:round;stroke:#000"/></g><g id="star" transform="translate(-13.66 -10.51)"><g id="star-body" transform="translate(98.15,37.2)"><path d="m6.6-23.4q-3.95-4.3-6.4-1.6-4.8 6.8-8 14.7-4 0.35-8.15 1.05-2.1 0.35-4.3-4.5-5.3 2.4-3.5 5.55 5 6.6 11.5 12.15-0.9 3.95-1.5 8.1-0.3 2.1-5.65 2.65 0.65 5.8 4.35 5.2 7.8-2.8 15.05-7.25 3.45 2.05 7.2 3.9 1.9 0.95 0.8 6.2 5.7 1.15 6.25-2.5-0.25-8.25-2.25-16.5 3-2.7 5.95-5.7 1.5-1.55 6.1 1.1 2.9-5.05-0.45-6.7-7.95-2.3-16.4-2.95-1.6-3.7-3.55-7.45-1-1.9 2.95-5.45z" style="fill:url(#radialGradient4778)"/><path d="m0.2-25q2.45-2.7 6.4 1.6-3.95 3.55-2.95 5.45 1.95 3.75 3.55 7.45 8.45 0.65 16.4 2.95 3.35 1.65 0.45 6.7-4.6-2.65-6.1-1.1-2.95 3-5.95 5.7 2 8.25 2.25 16.5-0.55 3.65-6.25 2.5 1.1-5.25-0.8-6.2-3.75-1.85-7.2-3.9-7.25 4.45-15.05 7.25-3.7 0.6-4.35-5.2 5.35-0.55 5.65-2.65 0.6-4.15 1.5-8.1-6.5-5.55-11.5-12.15-1.8-3.15 3.5-5.55 2.2 4.85 4.3 4.5 4.15-0.7 8.15-1.05 3.2-7.9 8-14.7z" style="fill:none;stroke-linecap:round;stroke-linejoin:round;stroke:#000"/><path d="m4.45-1.6 2.75-8.9-7.45 5.55-7.55-5.35 3 8.75-7.45 5.5l9.3-0.05 2.95 8.75 2.75-8.8 9.25-0.1z" style="fill:url(#radialGradient4780)"/></g><g id="star-face" transform="translate(97,39.7)"><g transform="translate(-161.4,-71.1)"><path d="m157.6 67.9 0.3 0.2q0-0.6-0.3-0.2m-2.45-2.65q-0.2 0.2-0.35 0.5-0.55 1.1-0.55 2.65t0.55 2.6q0.55 1.1 1.3 1.1t1.3-1.1q0.55-1.05 0.55-2.6 0-0.1322-0.05-0.25 0.0141-0.0098 0-0.05l-0.3-0.2-2.45-2.65m13.7 0.5q-0.15-0.2-0.3-0.35l-3.7 2.95v0.05q0 1.55 0.7 2.6 0.7 1.1 1.65 1.1t1.65-1.1q0.7-1.05 0.7-2.6t-0.7-2.65z"/><path d="m169.6 76.15-7.4 1.3 6.95 2.05 0.45-3.35m-7.4 1.3 7.4-1.3 0.35-2.15-12.5 2.05z" style="fill:#fff"/><path d="m168.5 65.4-3.7 2.95q-2.8 2.6-3.45 0.85m9.1-5.3-1.95 1.5m-6.35 12.05 7.425-1.3 0.325-2.15-12.5 2.05 4.75 1.4 6.95 2.05 0.475-3.35m-14.48-10.9-2.75-2.5m5.525 5.425q-0.0109-0.03477-0.025-0.075l-0.3-0.2-2.45-2.65m5.7 3.7q-1.826 2.271-2.925-0.775" style="fill:none;stroke-linecap:round;stroke-linejoin:round;stroke:#000"/></g></g></g></svg>
