<?xml version="1.0" encoding="UTF-8"?>
<svg version="1.1" viewBox="0 0 500 500" xmlns="http://www.w3.org/2000/svg"><defs><linearGradient id="linearGradient4497" x1="100" x2="400" y1="250" y2="250" gradientTransform="matrix(.4915 0 0 .4915 151.7 151.7)" gradientUnits="userSpaceOnUse"><stop style="stop-color:#cd3333" offset="0"/><stop style="stop-color:#ff0" offset="1"/></linearGradient><filter id="filter5771" y="-.2" height="1.4" style="color-interpolation-filters:sRGB"><feMorphology in="SourceGraphic" operator="dilate" radius="7" result="result8"/><feComposite in="SourceGraphic" in2="result8" k1="0.5" k3="0.5" operator="arithmetic" result="result10"/><feTurbulence baseFrequency="0.07" numOctaves="3" result="result11" type="fractalNoise"/><feDisplacementMap in="result10" in2="result11" result="result12" scale="10" xChannelSelector="R"/><feComposite in="SourceGraphic" in2="result12" k1="0.25" k2="0.25" k3="0.75" operator="arithmetic" result="result13"/></filter></defs><g style="filter:url(#filter5771)"><rect x="100" y="100" width="300" height="300" style="fill:#916f6f"/><circle cx="250" cy="250" r="122.9" style="fill:url(#linearGradient4497);stroke-width:.4915"/><g transform="translate(385.6 379.2)" aria-label="FILTER"><path d="m-203.7-143.6h16.76v3.32h-12.81v8.594h11.56v3.32h-11.56v13.93h-3.945z" style=""/><path d="m-180.7-143.6h3.945v29.16h-3.945z" style=""/><path d="m-168.9-143.6h3.945v25.84h14.2v3.32h-18.14z" style=""/><path d="m-156.1-143.6h24.67v3.32h-10.35v25.84h-3.965v-25.84h-10.35z" style=""/><path d="m-127.6-143.6h18.44v3.32h-14.49v8.633h13.89v3.32h-13.89v10.57h14.84v3.32h-18.79z" style=""/><path d="m-88.47-128.1q1.27 0.4297 2.461 1.836 1.211 1.406 2.422 3.867l4.004 7.969h-4.238l-3.73-7.48q-1.445-2.93-2.812-3.887-1.348-0.957-3.691-0.957h-4.297v12.32h-3.945v-29.16h8.906q5 0 7.461 2.09 2.461 2.09 2.461 6.309 0 2.754-1.289 4.57-1.27 1.816-3.711 2.52zm-9.883-12.25v10.35h4.961q2.852 0 4.297-1.309 1.465-1.328 1.465-3.887 0-2.559-1.465-3.848-1.445-1.309-4.297-1.309z" style=""/></g></g></svg>
