<?xml version="1.0" encoding="UTF-8" standalone="no"?>
<svg
   xmlns:dc="http://purl.org/dc/elements/1.1/"
   xmlns:cc="http://creativecommons.org/ns#"
   xmlns:rdf="http://www.w3.org/1999/02/22-rdf-syntax-ns#"
   xmlns:svg="http://www.w3.org/2000/svg"
   xmlns="http://www.w3.org/2000/svg"
   xmlns:sodipodi="http://sodipodi.sourceforge.net/DTD/sodipodi-0.dtd"
   xmlns:inkscape="http://www.inkscape.org/namespaces/inkscape"
   width="500"
   height="500"
   version="1.1"
   viewBox="0 0 500 500"
   id="svg13"
   sodipodi:docname="filter-target-blueprint.svg"
   inkscape:version="0.92.1 r15371">
  <metadata
     id="metadata17">
    <rdf:RDF>
      <cc:Work
         rdf:about="">
        <dc:format>image/svg+xml</dc:format>
        <dc:type
           rdf:resource="http://purl.org/dc/dcmitype/StillImage" />
        <dc:title></dc:title>
      </cc:Work>
    </rdf:RDF>
  </metadata>
  <sodipodi:namedview
     pagecolor="#ffffff"
     bordercolor="#666666"
     borderopacity="1"
     objecttolerance="10"
     gridtolerance="10"
     guidetolerance="10"
     inkscape:pageopacity="0"
     inkscape:pageshadow="2"
     inkscape:window-width="1191"
     inkscape:window-height="755"
     id="namedview15"
     showgrid="false"
     inkscape:zoom="0.472"
     inkscape:cx="250"
     inkscape:cy="250"
     inkscape:window-x="0"
     inkscape:window-y="0"
     inkscape:window-maximized="0"
     inkscape:current-layer="svg13" />
  <defs
     id="defs7">
    <linearGradient
       id="linearGradient4497"
       x1="100"
       x2="400"
       y1="250"
       y2="250"
       gradientUnits="userSpaceOnUse"
       gradientTransform="matrix(0.49152542,0,0,0.49152542,151.69492,151.69492)">
      <stop
         style="stop-color:#cd3333"
         offset="0"
         id="stop2" />
      <stop
         style="stop-color:#ff0"
         offset="1"
         id="stop4" />
    </linearGradient>
    <filter
       inkscape:label="Blueprint"
       inkscape:menu="Image Paint and Draw"
       inkscape:menu-tooltip="Detect color edges and retrace them in blue"
       style="color-interpolation-filters:sRGB;"
       id="filter5421">
      <feConvolveMatrix
         order="3 3"
         kernelMatrix="1 1 1 1 -8 1 1 1 1"
         in="SourceGraphic"
         divisor="1"
         targetX="1"
         targetY="1"
         preserveAlpha="true"
         result="result0"
         bias="0"
         id="feConvolveMatrix5417" />
      <feColorMatrix
         result="result3"
         values="-0.15 -0.3 -0.05 0 1 -0.15 -0.3 -0.05 0 1 0 0 0 0 1 0 0 0 1 0"
         id="feColorMatrix5419" />
    </filter>
  </defs>
  <g
     id="g4521"
     style="filter:url(#filter5421)">
    <rect
       id="rect9"
       style="fill:#916f6f"
       height="300"
       width="300"
       y="100"
       x="100" />
    <circle
       r="122.88136"
       id="ellipse11"
       style="fill:url(#linearGradient4497);stroke-width:0.49152541"
       cy="250"
       cx="250" />
    <g
       transform="translate(385.59322,379.23729)"
       id="text4497"
       style="font-style:normal;font-weight:normal;font-size:40px;line-height:1.25;font-family:sans-serif;letter-spacing:0px;word-spacing:0px;fill:#000000;fill-opacity:1;stroke:none"
       aria-label="FILTER">
      <path
         inkscape:connector-curvature="0"
         id="path4499"
         d="m -203.70134,-143.56693 h 16.75781 v 3.32031 h -12.8125 v 8.59375 h 11.5625 v 3.32031 h -11.5625 v 13.92578 h -3.94531 z" />
      <path
         inkscape:connector-curvature="0"
         id="path4501"
         d="m -180.65446,-143.56693 h 3.94531 v 29.16015 h -3.94531 z" />
      <path
         inkscape:connector-curvature="0"
         id="path4503"
         d="m -168.85759,-143.56693 h 3.94531 v 25.83984 h 14.19922 v 3.32031 h -18.14453 z" />
      <path
         inkscape:connector-curvature="0"
         id="path4505"
         d="m -156.10368,-143.56693 h 24.66797 v 3.32031 h -10.35157 v 25.83984 h -3.96484 v -25.83984 h -10.35156 z" />
      <path
         inkscape:connector-curvature="0"
         id="path4507"
         d="m -127.60759,-143.56693 h 18.4375 v 3.32031 h -14.49219 v 8.63281 h 13.88672 v 3.32031 h -13.88672 v 10.56641 h 14.84375 v 3.32031 h -18.78906 z" />
      <path
         inkscape:connector-curvature="0"
         id="path4509"
         d="m -88.466965,-128.07865 q 1.269532,0.42969 2.460938,1.83594 1.210937,1.40625 2.421875,3.86718 l 4.003906,7.96875 h -4.238281 l -3.730469,-7.48047 q -1.445312,-2.92968 -2.8125,-3.88671 -1.347656,-0.95704 -3.691406,-0.95704 h -4.296875 v 12.32422 h -3.945313 v -29.16015 h 8.90625 q 5,0 7.460938,2.08984 2.460937,2.08984 2.460937,6.30859 0,2.75391 -1.289062,4.57032 -1.269531,1.8164 -3.710938,2.51953 z m -9.882812,-12.2461 v 10.35157 h 4.960937 q 2.851563,0 4.296875,-1.3086 1.464844,-1.32812 1.464844,-3.88672 0,-2.55859 -1.464844,-3.84765 -1.445312,-1.3086 -4.296875,-1.3086 z" />
    </g>
  </g>
</svg>
