<?xml version="1.0" encoding="UTF-8"?>
<svg preserveAspectRatio="none" version="1.1" viewBox="0 0 280 180" xmlns="http://www.w3.org/2000/svg" xmlns:xlink="http://www.w3.org/1999/xlink"><defs><radialGradient id="Gradient_1" cx="0" cy="0" r="27.75" gradientTransform="translate(.1 .1)" gradientUnits="userSpaceOnUse"><stop stop-color="#900" offset="0"/><stop stop-color="#C54200" offset=".349"/><stop stop-color="#F68C00" offset=".4157"/><stop stop-color="#D25600" offset=".7176"/><stop stop-color="#f90" offset="1"/></radialGradient><radialGradient id="Gradient_2" cx="0" cy="0" r="27.75" gradientTransform="translate(.1 .1)" gradientUnits="userSpaceOnUse"><stop stop-color="#900" offset="0"/><stop stop-color="#f90" offset="1"/></radialGradient><radialGradient id="Gradient_3" cx="0" cy="0" r="28.26" gradientTransform="matrix(1 0 0 1 1.9 -1.9)" gradientUnits="userSpaceOnUse"><stop stop-color="#FFF100" offset="0"/><stop stop-color="#f90" offset=".8824"/><stop stop-color="#ff0" offset="1"/></radialGradient><radialGradient id="Gradient_4" cx="0" cy="0" r="28.26" gradientTransform="translate(218.3 211.2)" gradientUnits="userSpaceOnUse"><stop stop-color="#FFF100" offset="0"/><stop stop-color="#f90" offset=".8824"/><stop stop-color="#ff0" offset="1"/></radialGradient><radialGradient id="Gradient_5" cx="0" cy="0" r="28.26" gradientTransform="translate(92.3,214.4)" gradientUnits="userSpaceOnUse"><stop stop-color="#FFF100" offset="0"/><stop stop-color="#f90" offset=".8824"/><stop stop-color="#ff0" offset="1"/></radialGradient><radialGradient id="radialGradient4778" cx="0" cy="0" r="27.75" gradientTransform="translate(.1 .1)" gradientUnits="userSpaceOnUse" xlink:href="#Gradient_1"/><radialGradient id="radialGradient4780" cx="0" cy="0" r="27.75" gradientTransform="translate(.1 .1)" gradientUnits="userSpaceOnUse" xlink:href="#Gradient_2"/><radialGradient id="radialGradient4782" cx="0" cy="0" r="28.26" gradientTransform="translate(1.9,-1.9)" gradientUnits="userSpaceOnUse" xlink:href="#Gradient_3"/></defs><path d="m249.2 92.4q-0.45-0.95-1.1-1.6-0.7-0.7-1.65-1.15-0.95-0.4-2-0.4t-2 0.4q-0.9 0.45-1.6 1.15-0.7 0.65-1.1 1.6t-0.4 2q0 1.1 0.4 2.05 0.4 0.9 1.1 1.6t1.6 1.1q0.95 0.4 2 0.4t2-0.4 1.65-1.1q0.65-0.7 1.1-1.6 0.4-0.95 0.4-2.05 0-1.05-0.4-2m0-5.5 2-25.7h-11.95l0.9 25.7h9.05m-29.4-8.9-7.3 0.45v18.55l5.85-0.35 1.45-18.65m0.45-0.25-0.1 6.4 4.05-0.2v13.05l5.75-0.35 1.1-12.95 4.05-0.2 0.15-5.85-15 0.1m-25.05 0.25-0.6 19.35h6.2l0.25-6h3.15v6.3l6.85-0.3-0.45-19.6-6.2-0.2-0.1 10.65h-3.05l0.45-9.9-6.5-0.3m-17.7 19 0.7-3.05h3.15l0.9 3.05 6.75-0.8-5.3-18.55-7.65 0.45-5.5 18.2 6.95 0.7m2.4-12.05 1 4.75h-2.05l1.05-4.75m-109.1-0.75-10 0.05-0.05 4.3 2.7-0.15v8.7l3.8-0.25 0.75-8.6 2.7-0.15 0.1-3.9m-17.85 1.05q-0.75 0.2-1.35 0.6-0.6 0.45-1.15 0.95-0.5 0.6-0.9 1.3-0.35 0.65-0.5 1.4-0.25 0.75-0.25 1.6 0 0.8 0.25 1.55 0.2 0.75 0.6 1.45 0.3 0.6 0.9 1.2 0.45 0.5 1.1 0.9 0.7 0.35 1.45 0.6 0.75 0.15 1.55 0.15 0.85 0 1.6-0.25 0.75-0.2 1.4-0.6 0.7-0.35 1.15-0.95 0.5-0.55 0.9-1.2 0.35-0.7 0.6-1.5 0.15-0.75 0.15-1.6 0-1.35-0.45-2.4-0.4-1.1-1.2-1.85-0.75-0.75-1.8-1.2-1.15-0.4-2.5-0.4-0.8 0-1.55 0.25m3.3 5.1q0.15 0.35 0.15 0.75 0 0.35-0.15 0.75-0.15 0.35-0.4 0.65-0.2 0.3-0.5 0.45-0.4 0.25-0.85 0.25-0.35 0-0.75-0.25-0.3-0.2-0.5-0.5-0.25-0.3-0.3-0.7-0.15-0.35-0.15-0.75 0-0.45 0.15-0.75 0.05-0.35 0.35-0.65 0.25-0.25 0.55-0.45 0.35-0.15 0.8-0.15 0.4 0 0.75 0.2 0.3 0.15 0.55 0.45 0.2 0.3 0.3 0.7m-20.1-6.15-0.3 12.95h4.1l0.4-6.75 2.55 6.6 4.8-0.45 0.65-12.35-4.25 0.15-0.15 6.2-3.25-6.6-4.55 0.25m71.1 4.35 2.7-0.15v8.7l3.8-0.25 0.75-8.6 2.7-0.15 0.1-3.9-10 0.05-0.05 4.3m-0.25-4.15-4.85 0.3v12.4l3.9-0.25 0.95-12.45m-25.05 12.7 4.5-0.55-3.5-12.35l-5.1 0.3-3.7 12.15 4.65 0.45 0.45-2.05h2.1l0.6 2.05m-2.25-4.9 0.7-3.15 0.65 3.15h-1.35m21.15-7.95-4.1-0.15-0.1 7.15h-2l0.3-6.6-4.35-0.25-0.4 12.9h4.15l0.15-3.95h2.1v4.2l4.55-0.25z" style="fill:#900"/><path d="m199.6 21.25 0.9-5.05m-2.2 5.1-1.7-4.7m4.85 6.2 4.8-1.75m-5.5 0.75 3.25-3.9m-4.9 95.1h47.35v50.5h-47.35zm-125.2 2.5h50v50h-50z" style="fill:none;stroke-linecap:round;stroke-linejoin:round;stroke:#99c"/><g id="star" transform="translate(98.15,37.2)"><path d="m6.6-23.4q-3.95-4.3-6.4-1.6-4.8 6.8-8 14.7-4 0.35-8.15 1.05-2.1 0.35-4.3-4.5-5.3 2.4-3.5 5.55 5 6.6 11.5 12.15-0.9 3.95-1.5 8.1-0.3 2.1-5.65 2.65 0.65 5.8 4.35 5.2 7.8-2.8 15.05-7.25 3.45 2.05 7.2 3.9 1.9 0.95 0.8 6.2 5.7 1.15 6.25-2.5-0.25-8.25-2.25-16.5 3-2.7 5.95-5.7 1.5-1.55 6.1 1.1 2.9-5.05-0.45-6.7-7.95-2.3-16.4-2.95-1.6-3.7-3.55-7.45-1-1.9 2.95-5.45z" style="fill:url(#radialGradient4778)"/><path d="m0.2-25q2.45-2.7 6.4 1.6-3.95 3.55-2.95 5.45 1.95 3.75 3.55 7.45 8.45 0.65 16.4 2.95 3.35 1.65 0.45 6.7-4.6-2.65-6.1-1.1-2.95 3-5.95 5.7 2 8.25 2.25 16.5-0.55 3.65-6.25 2.5 1.1-5.25-0.8-6.2-3.75-1.85-7.2-3.9-7.25 4.45-15.05 7.25-3.7 0.6-4.35-5.2 5.35-0.55 5.65-2.65 0.6-4.15 1.5-8.1-6.5-5.55-11.5-12.15-1.8-3.15 3.5-5.55 2.2 4.85 4.3 4.5 4.15-0.7 8.15-1.05 3.2-7.9 8-14.7z" style="fill:none;stroke-linecap:round;stroke-linejoin:round;stroke:#000"/><path d="m4.45-1.6 2.75-8.9-7.45 5.55-7.55-5.35 3 8.75-7.45 5.5l9.3-0.05 2.95 8.75 2.75-8.8 9.25-0.1z" style="fill:url(#radialGradient4780)"/></g><g id="hero" transform="translate(52,47.3)"><path d="m17.85-17.85q-7.4-7.4-17.85-7.4t-17.85 7.4-7.4 17.85 7.4 17.85 17.85 7.4 17.85-7.4 7.4-17.85-7.4-17.85m-9.1 4.95q0.55-1.05 1.3-1.05t1.3 1.05q0.55 1.1 0.55 2.65t-0.55 2.6q-0.55 1.1-1.3 1.1t-1.3-1.1q-0.55-1.05-0.55-2.6t0.55-2.65m-7.45 2.65q0 1.55-0.7 2.6-0.7 1.1-1.65 1.1t-1.65-1.1q-0.7-1.05-0.7-2.6t0.7-2.65q0.7-1.05 1.65-1.05t1.65 1.05q0.7 1.1 0.7 2.65m-9.3 23.25q11.35-12 18.85-6.1-7.5-5.9-18.85 6.1z" style="fill:url(#radialGradient4782)"/><path d="m0.6-7.65q0.7-1.05 0.7-2.6t-0.7-2.65q-0.7-1.05-1.65-1.05t-1.65 1.05q-0.7 1.1-0.7 2.65t0.7 2.6q0.7 1.1 1.65 1.1t1.65-1.1m9.45-6.3q-0.75 0-1.3 1.05-0.55 1.1-0.55 2.65t0.55 2.6q0.55 1.1 1.3 1.1t1.3-1.1q0.55-1.05 0.55-2.6t-0.55-2.65q-0.55-1.05-1.3-1.05z"/><path d="m11.9-10.25q0 1.55-0.55 2.6-0.55 1.1-1.3 1.1t-1.3-1.1q-0.55-1.05-0.55-2.6t0.55-2.65q0.55-1.05 1.3-1.05t1.3 1.05q0.55 1.1 0.55 2.65zm-10.6 0q0 1.55-0.7 2.6-0.7 1.1-1.65 1.1t-1.65-1.1q-0.7-1.05-0.7-2.6t0.7-2.65q0.7-1.05 1.65-1.05t1.65 1.05q0.7 1.1 0.7 2.65zm23.95 10.25q0 10.45-7.4 17.85t-17.85 7.4-17.85-7.4-7.4-17.85 7.4-17.85 17.85-7.4 17.85 7.4 7.4 17.85zm-33.25 13q11.35-12 18.85-6.1" style="fill:none;stroke-linecap:round;stroke-linejoin:round;stroke:#000"/></g><g id="star-face" transform="translate(97,39.7)"><g transform="translate(-161.4,-71.1)"><path d="m157.6 67.9 0.3 0.2q0-0.6-0.3-0.2m-2.45-2.65q-0.2 0.2-0.35 0.5-0.55 1.1-0.55 2.65t0.55 2.6q0.55 1.1 1.3 1.1t1.3-1.1q0.55-1.05 0.55-2.6 0-0.1322-0.05-0.25 0.0141-0.0098 0-0.05l-0.3-0.2-2.45-2.65m13.7 0.5q-0.15-0.2-0.3-0.35l-3.7 2.95v0.05q0 1.55 0.7 2.6 0.7 1.1 1.65 1.1t1.65-1.1q0.7-1.05 0.7-2.6t-0.7-2.65z"/><path d="m169.6 76.15-7.4 1.3 6.95 2.05 0.45-3.35m-7.4 1.3 7.4-1.3 0.35-2.15-12.5 2.05z" style="fill:#fff"/><path d="m168.5 65.4-3.7 2.95q-2.8 2.6-3.45 0.85m9.1-5.3-1.95 1.5m-6.35 12.05 7.425-1.3 0.325-2.15-12.5 2.05 4.75 1.4 6.95 2.05 0.475-3.35m-14.48-10.9-2.75-2.5m5.525 5.425q-0.0109-0.03477-0.025-0.075l-0.3-0.2-2.45-2.65m5.7 3.7q-1.826 2.271-2.925-0.775" style="fill:none;stroke-linecap:round;stroke-linejoin:round;stroke:#000"/></g></g><g transform="matrix(.9397 -.342 .342 .9397 224.2 33.9)"><path d="m6.6-23.4q-3.95-4.3-6.4-1.6-4.8 6.8-8 14.7-4 0.35-8.15 1.05-2.1 0.35-4.3-4.5-5.3 2.4-3.5 5.55 5 6.6 11.5 12.15-0.9 3.95-1.5 8.1-0.3 2.1-5.65 2.65 0.65 5.8 4.35 5.2 7.8-2.8 15.05-7.25 3.45 2.05 7.2 3.9 1.9 0.95 0.8 6.2 5.7 1.15 6.25-2.5-0.25-8.25-2.25-16.5 3-2.7 5.95-5.7 1.5-1.55 6.1 1.1 2.9-5.05-0.45-6.7-7.95-2.3-16.4-2.95-1.6-3.7-3.55-7.45-1-1.9 2.95-5.45z" style="fill:url(#radialGradient4778)"/><path d="m0.2-25q2.45-2.7 6.4 1.6-3.95 3.55-2.95 5.45 1.95 3.75 3.55 7.45 8.45 0.65 16.4 2.95 3.35 1.65 0.45 6.7-4.6-2.65-6.1-1.1-2.95 3-5.95 5.7 2 8.25 2.25 16.5-0.55 3.65-6.25 2.5 1.1-5.25-0.8-6.2-3.75-1.85-7.2-3.9-7.25 4.45-15.05 7.25-3.7 0.6-4.35-5.2 5.35-0.55 5.65-2.65 0.6-4.15 1.5-8.1-6.5-5.55-11.5-12.15-1.8-3.15 3.5-5.55 2.2 4.85 4.3 4.5 4.15-0.7 8.15-1.05 3.2-7.9 8-14.7z" style="fill:none;stroke-linecap:round;stroke-linejoin:round;stroke:#000"/><path d="m4.45-1.6 2.75-8.9-7.45 5.55-7.55-5.35 3 8.75-7.45 5.5l9.3-0.05 2.95 8.75 2.75-8.8 9.25-0.1z" style="fill:url(#radialGradient4780)"/></g><g transform="translate(178,44.05)"><path d="m17.85-17.85q-7.4-7.4-17.85-7.4t-17.85 7.4-7.4 17.85 7.4 17.85 17.85 7.4 17.85-7.4 7.4-17.85-7.4-17.85m-9.1 4.95q0.55-1.05 1.3-1.05t1.3 1.05q0.55 1.1 0.55 2.65t-0.55 2.6q-0.55 1.1-1.3 1.1t-1.3-1.1q-0.55-1.05-0.55-2.6t0.55-2.65m-7.45 2.65q0 1.55-0.7 2.6-0.7 1.1-1.65 1.1t-1.65-1.1q-0.7-1.05-0.7-2.6t0.7-2.65q0.7-1.05 1.65-1.05t1.65 1.05q0.7 1.1 0.7 2.65m-9.3 23.25q11.35-12 18.85-6.1-7.5-5.9-18.85 6.1z" style="fill:url(#radialGradient4782)"/><path d="m0.6-7.65q0.7-1.05 0.7-2.6t-0.7-2.65q-0.7-1.05-1.65-1.05t-1.65 1.05q-0.7 1.1-0.7 2.65t0.7 2.6q0.7 1.1 1.65 1.1t1.65-1.1m9.45-6.3q-0.75 0-1.3 1.05-0.55 1.1-0.55 2.65t0.55 2.6q0.55 1.1 1.3 1.1t1.3-1.1q0.55-1.05 0.55-2.6t-0.55-2.65q-0.55-1.05-1.3-1.05z"/><path d="m11.9-10.25q0 1.55-0.55 2.6-0.55 1.1-1.3 1.1t-1.3-1.1q-0.55-1.05-0.55-2.6t0.55-2.65q0.55-1.05 1.3-1.05t1.3 1.05q0.55 1.1 0.55 2.65zm-10.6 0q0 1.55-0.7 2.6-0.7 1.1-1.65 1.1t-1.65-1.1q-0.7-1.05-0.7-2.6t0.7-2.65q0.7-1.05 1.65-1.05t1.65 1.05q0.7 1.1 0.7 2.65zm23.95 10.25q0 10.45-7.4 17.85t-17.85 7.4-17.85-7.4-7.4-17.85 7.4-17.85 17.85-7.4 17.85 7.4 7.4 17.85zm-33.25 13q11.35-12 18.85-6.1" style="fill:none;stroke-linecap:round;stroke-linejoin:round;stroke:#000"/></g><g transform="translate(223,36.45)"><g transform="translate(-161.4,-71.1)"><path d="m157.6 67.9 0.3 0.2q0-0.6-0.3-0.2m-2.45-2.65q-0.2 0.2-0.35 0.5-0.55 1.1-0.55 2.65t0.55 2.6q0.55 1.1 1.3 1.1t1.3-1.1q0.55-1.05 0.55-2.6 0-0.1322-0.05-0.25 0.0141-0.0098 0-0.05l-0.3-0.2-2.45-2.65m13.7 0.5q-0.15-0.2-0.3-0.35l-3.7 2.95v0.05q0 1.55 0.7 2.6 0.7 1.1 1.65 1.1t1.65-1.1q0.7-1.05 0.7-2.6t-0.7-2.65z"/><path d="m169.6 76.15-7.4 1.3 6.95 2.05 0.45-3.35m-7.4 1.3 7.4-1.3 0.35-2.15-12.5 2.05z" style="fill:#fff"/><path d="m168.5 65.4-3.7 2.95q-2.8 2.6-3.45 0.85m9.1-5.3-1.95 1.5m-6.35 12.05 7.425-1.3 0.325-2.15-12.5 2.05 4.75 1.4 6.95 2.05 0.475-3.35m-14.48-10.9-2.75-2.5m5.525 5.425q-0.0109-0.03477-0.025-0.075l-0.3-0.2-2.45-2.65m5.7 3.7q-1.826 2.271-2.925-0.775" style="fill:none;stroke-linecap:round;stroke-linejoin:round;stroke:#000"/></g></g><g transform="translate(98.15,142.2)"><path d="m6.6-23.4q-3.95-4.3-6.4-1.6-4.8 6.8-8 14.7-4 0.35-8.15 1.05-2.1 0.35-4.3-4.5-5.3 2.4-3.5 5.55 5 6.6 11.5 12.15-0.9 3.95-1.5 8.1-0.3 2.1-5.65 2.65 0.65 5.8 4.35 5.2 7.8-2.8 15.05-7.25 3.45 2.05 7.2 3.9 1.9 0.95 0.8 6.2 5.7 1.15 6.25-2.5-0.25-8.25-2.25-16.5 3-2.7 5.95-5.7 1.5-1.55 6.1 1.1 2.9-5.05-0.45-6.7-7.95-2.3-16.4-2.95-1.6-3.7-3.55-7.45-1-1.9 2.95-5.45z" style="fill:url(#radialGradient4778)"/><path d="m0.2-25q2.45-2.7 6.4 1.6-3.95 3.55-2.95 5.45 1.95 3.75 3.55 7.45 8.45 0.65 16.4 2.95 3.35 1.65 0.45 6.7-4.6-2.65-6.1-1.1-2.95 3-5.95 5.7 2 8.25 2.25 16.5-0.55 3.65-6.25 2.5 1.1-5.25-0.8-6.2-3.75-1.85-7.2-3.9-7.25 4.45-15.05 7.25-3.7 0.6-4.35-5.2 5.35-0.55 5.65-2.65 0.6-4.15 1.5-8.1-6.5-5.55-11.5-12.15-1.8-3.15 3.5-5.55 2.2 4.85 4.3 4.5 4.15-0.7 8.15-1.05 3.2-7.9 8-14.7z" style="fill:none;stroke-linecap:round;stroke-linejoin:round;stroke:#000"/><path d="m4.45-1.6 2.75-8.9-7.45 5.55-7.55-5.35 3 8.75-7.45 5.5l9.3-0.05 2.95 8.75 2.75-8.8 9.25-0.1z" style="fill:url(#radialGradient4780)"/></g><g transform="translate(97,144.7)"><g transform="translate(-161.4,-71.1)"><path d="m157.6 67.9 0.3 0.2q0-0.6-0.3-0.2m-2.45-2.65q-0.2 0.2-0.35 0.5-0.55 1.1-0.55 2.65t0.55 2.6q0.55 1.1 1.3 1.1t1.3-1.1q0.55-1.05 0.55-2.6 0-0.1322-0.05-0.25 0.0141-0.0098 0-0.05l-0.3-0.2-2.45-2.65m13.7 0.5q-0.15-0.2-0.3-0.35l-3.7 2.95v0.05q0 1.55 0.7 2.6 0.7 1.1 1.65 1.1t1.65-1.1q0.7-1.05 0.7-2.6t-0.7-2.65z"/><path d="m169.6 76.15-7.4 1.3 6.95 2.05 0.45-3.35m-7.4 1.3 7.4-1.3 0.35-2.15-12.5 2.05z" style="fill:#fff"/><path d="m168.5 65.4-3.7 2.95q-2.8 2.6-3.45 0.85m9.1-5.3-1.95 1.5m-6.35 12.05 7.425-1.3 0.325-2.15-12.5 2.05 4.75 1.4 6.95 2.05 0.475-3.35m-14.48-10.9-2.75-2.5m5.525 5.425q-0.0109-0.03477-0.025-0.075l-0.3-0.2-2.45-2.65m5.7 3.7q-1.826 2.271-2.925-0.775" style="fill:none;stroke-linecap:round;stroke-linejoin:round;stroke:#000"/></g></g><g transform="matrix(.9397 -.342 .342 .9397 224.2 138.9)"><path d="m6.6-23.4q-3.95-4.3-6.4-1.6-4.8 6.8-8 14.7-4 0.35-8.15 1.05-2.1 0.35-4.3-4.5-5.3 2.4-3.5 5.55 5 6.6 11.5 12.15-0.9 3.95-1.5 8.1-0.3 2.1-5.65 2.65 0.65 5.8 4.35 5.2 7.8-2.8 15.05-7.25 3.45 2.05 7.2 3.9 1.9 0.95 0.8 6.2 5.7 1.15 6.25-2.5-0.25-8.25-2.25-16.5 3-2.7 5.95-5.7 1.5-1.55 6.1 1.1 2.9-5.05-0.45-6.7-7.95-2.3-16.4-2.95-1.6-3.7-3.55-7.45-1-1.9 2.95-5.45z" style="fill:url(#radialGradient4778)"/><path d="m0.2-25q2.45-2.7 6.4 1.6-3.95 3.55-2.95 5.45 1.95 3.75 3.55 7.45 8.45 0.65 16.4 2.95 3.35 1.65 0.45 6.7-4.6-2.65-6.1-1.1-2.95 3-5.95 5.7 2 8.25 2.25 16.5-0.55 3.65-6.25 2.5 1.1-5.25-0.8-6.2-3.75-1.85-7.2-3.9-7.25 4.45-15.05 7.25-3.7 0.6-4.35-5.2 5.35-0.55 5.65-2.65 0.6-4.15 1.5-8.1-6.5-5.55-11.5-12.15-1.8-3.15 3.5-5.55 2.2 4.85 4.3 4.5 4.15-0.7 8.15-1.05 3.2-7.9 8-14.7z" style="fill:none;stroke-linecap:round;stroke-linejoin:round;stroke:#000"/><path d="m4.45-1.6 2.75-8.9-7.45 5.55-7.55-5.35 3 8.75-7.45 5.5l9.3-0.05 2.95 8.75 2.75-8.8 9.25-0.1z" style="fill:url(#radialGradient4780)"/></g><g transform="translate(223 141.4)"><g transform="translate(-161.4,-71.1)"><path d="m157.6 67.9 0.3 0.2q0-0.6-0.3-0.2m-2.45-2.65q-0.2 0.2-0.35 0.5-0.55 1.1-0.55 2.65t0.55 2.6q0.55 1.1 1.3 1.1t1.3-1.1q0.55-1.05 0.55-2.6 0-0.1322-0.05-0.25 0.0141-0.0098 0-0.05l-0.3-0.2-2.45-2.65m13.7 0.5q-0.15-0.2-0.3-0.35l-3.7 2.95v0.05q0 1.55 0.7 2.6 0.7 1.1 1.65 1.1t1.65-1.1q0.7-1.05 0.7-2.6t-0.7-2.65z"/><path d="m169.6 76.15-7.4 1.3 6.95 2.05 0.45-3.35m-7.4 1.3 7.4-1.3 0.35-2.15-12.5 2.05z" style="fill:#fff"/><path d="m168.5 65.4-3.7 2.95q-2.8 2.6-3.45 0.85m9.1-5.3-1.95 1.5m-6.35 12.05 7.425-1.3 0.325-2.15-12.5 2.05 4.75 1.4 6.95 2.05 0.475-3.35m-14.48-10.9-2.75-2.5m5.525 5.425q-0.0109-0.03477-0.025-0.075l-0.3-0.2-2.45-2.65m5.7 3.7q-1.826 2.271-2.925-0.775" style="fill:none;stroke-linecap:round;stroke-linejoin:round;stroke:#000"/></g></g><g transform="translate(-38.4,-64)"><path d="m234.2 195.2q-7.4-7.4-17.85-7.4t-17.85 7.4-7.4 17.85 7.4 17.85 17.85 7.4 17.85-7.4 7.4-17.85-7.4-17.85m-9.1 4.95q0.55-1.05 1.3-1.05t1.3 1.05q0.55 1.1 0.55 2.65t-0.55 2.6q-0.55 1.1-1.3 1.1t-1.3-1.1q-0.55-1.05-0.55-2.6t0.55-2.65m-8.15 0q0.7 1.1 0.7 2.65t-0.7 2.6q-0.7 1.1-1.65 1.1t-1.65-1.1q-0.7-1.05-0.7-2.6t0.7-2.65q0.7-1.05 1.65-1.05t1.65 1.05m-8.6 25.9q11.35-12 18.85-6.1-7.5-5.9-18.85 6.1z" style="fill:url(#Gradient_4)"/><path d="m217.7 202.8q0-1.55-0.7-2.65-0.7-1.05-1.65-1.05t-1.65 1.05q-0.7 1.1-0.7 2.65t0.7 2.6q0.7 1.1 1.65 1.1t1.65-1.1q0.7-1.05 0.7-2.6m8.75-3.7q-0.75 0-1.3 1.05-0.55 1.1-0.55 2.65t0.55 2.6q0.55 1.1 1.3 1.1t1.3-1.1q0.55-1.05 0.55-2.6t-0.55-2.65q-0.55-1.05-1.3-1.05m-137.1 3.25q-0.95 0-1.65 1.05-0.7 1.1-0.7 2.65t0.7 2.6q0.7 1.1 1.65 1.1t1.65-1.1q0.7-1.05 0.7-2.6t-0.7-2.65q-0.7-1.05-1.65-1.05m12.4 6.3q0.55-1.05 0.55-2.6t-0.55-2.65q-0.55-1.05-1.3-1.05t-1.3 1.05q-0.55 1.1-0.55 2.65t0.55 2.6q0.55 1.1 1.3 1.1t1.3-1.1z"/><path d="m115.6 216.3q0-10.45-7.4-17.85t-17.85-7.4-17.85 7.4-7.4 17.85 7.4 17.85 17.85 7.4 17.85-7.4 7.4-17.85m-13.35-10.25q0 1.55-0.55 2.6-0.55 1.1-1.3 1.1t-1.3-1.1q-0.55-1.05-0.55-2.6t0.55-2.65q0.55-1.05 1.3-1.05t1.3 1.05q0.55 1.1 0.55 2.65m-14.6-2.65q0.7-1.05 1.65-1.05t1.65 1.05q0.7 1.1 0.7 2.65t-0.7 2.6q-0.7 1.1-1.65 1.1t-1.65-1.1q-0.7-1.05-0.7-2.6t0.7-2.65m-5.3 25.9q11.35-12 18.85-6.1-7.5-5.9-18.85 6.1z" style="fill:url(#Gradient_5)"/><path d="m190.8 187.4h51.25v51.25h-51.25zm-126 3.25h51.25v51.25h-51.25z" style="fill:none;stroke-linecap:round;stroke-linejoin:round;stroke:#99c"/><path d="m241.6 213q0 10.45-7.4 17.85t-17.85 7.4-17.85-7.4-7.4-17.85 7.4-17.85 17.85-7.4 17.85 7.4 7.4 17.85zm-139.4-7q0 1.55-0.55 2.6-0.55 1.1-1.3 1.1t-1.3-1.1q-0.55-1.05-0.55-2.6t0.55-2.65q0.55-1.05 1.3-1.05t1.3 1.05q0.55 1.1 0.55 2.65zm13.35 10.25q0 10.45-7.4 17.85t-17.85 7.4-17.85-7.4-7.4-17.85 7.4-17.85 17.85-7.4 17.85 7.4 7.4 17.85zm-23.95-10.25q0 1.55-0.7 2.6-0.7 1.1-1.65 1.1t-1.65-1.1q-0.7-1.05-0.7-2.6t0.7-2.65q0.7-1.05 1.65-1.05t1.65 1.05q0.7 1.1 0.7 2.65zm-9.3 23.25q11.35-12 18.85-6.1m127-20.4q0 1.55-0.55 2.6-0.55 1.1-1.3 1.1t-1.3-1.1q-0.55-1.05-0.55-2.6t0.55-2.65q0.55-1.05 1.3-1.05t1.3 1.05q0.55 1.1 0.55 2.65zm-10.6 0q0 1.55-0.7 2.6-0.7 1.1-1.65 1.1t-1.65-1.1q-0.7-1.05-0.7-2.6t0.7-2.65q0.7-1.05 1.65-1.05t1.65 1.05q0.7 1.1 0.7 2.65zm-9.3 23.25q11.35-12 18.85-6.1" style="fill:none;stroke-linecap:round;stroke-linejoin:round;stroke:#000"/></g></svg>
