
<svg xmlns="http://www.w3.org/2000/svg" version="1.1" xmlns:xlink="http://www.w3.org/1999/xlink" preserveAspectRatio="none" x="0px" y="0px" width="210px" height="55px" viewBox="0 0 210 55">
<defs/>

<g id="Laag_1">
<g transform="matrix( 1, 0, 0, 1, 0,0) ">
<g>
<g>
<path fill="#999999" stroke="none" d="
M 156.2 21.4
Q 156.15 21.3 156.1 21.2
L 156.1 21.25
Q 156.15 21.3 156.15 21.35
L 156.2 21.4
M 155.75 19.9
L 155.75 20.05
Q 155.775 20.2875 155.85 20.55
L 155.85 20.6 155.9 20.65 155.9 20.7
Q 155.9 20.75 155.95 20.8
L 155.95 20.85
Q 155.975 20.9 156 20.95
L 156 21
Q 156.05 21.05 156.05 21.1
L 156.1 21.15 156.1 21.2
Q 156.15 21.3 156.2 21.4 157.5 23.1 158.9 24.75 158.5 20.9 157 17.5 156.05 18.35 155.8 19.3 155.775 19.6 155.75 19.9
M 151.65 9.85
Q 149 7.2 145.95 5.5 140.5 2.45 133.8 2.45 123.35 2.45 115.95 9.85 108.55 17.25 108.55 27.7 108.55 38.15 115.95 45.55 123.35 52.95 133.8 52.95 140.5 52.95 145.95 49.9 149 48.2 151.65 45.55 159.05 38.15 159.05 27.7 159.05 26.2 158.9 24.75 157.5 23.1 156.2 21.4
L 156.15 21.35
Q 156.15 21.3 156.1 21.25
L 156.1 21.2 156.1 21.15 156.05 21.1
Q 156.05 21.05 156 21
L 156 20.95
Q 155.975 20.9 155.95 20.85 155.8875 20.7125 155.85 20.6 155.771875 20.3265625 155.75 20.05
L 155.75 19.9
Q 155.775 19.6 155.8 19.3 156.05 18.35 157 17.5 155.15 13.35 151.65 9.85
M 155.85 20.6
L 155.85 20.55
Q 155.775 20.2875 155.75 20.05 155.771875 20.3265625 155.85 20.6
M 155.9 20.65
L 155.85 20.6
Q 155.8875 20.7125 155.95 20.85
L 155.95 20.8
Q 155.9 20.75 155.9 20.7
L 155.9 20.65 Z"/>
</g>
</g>

<g>
<path stroke="#000000" stroke-width="0.5" stroke-linejoin="round" stroke-linecap="round" fill="none" d="
M 157 17.5
Q 157.95 16.65 159.7 15.85 161.9 20.7 164 20.35 168.15 19.65 172.15 19.3 175.35 11.4 180.15 4.6 182.6 1.9 186.55 6.2 182.6 9.75 183.6 11.65 185.55 15.4 187.15 19.1 195.6 19.75 203.55 22.05 206.9 23.7 204 28.75 199.4 26.1 197.9 27.65 194.95 30.65 191.95 33.35 193.95 41.6 194.2 49.85 193.65 53.5 187.95 52.35 189.05 47.1 187.15 46.15 183.4 44.3 179.95 42.25 172.7 46.7 164.9 49.5 161.2 50.1 160.55 44.3 165.9 43.75 166.2 41.65 166.8 37.5 167.7 33.55 162.9 29.45 158.9 24.75 157.5 23.1 156.2 21.4
L 156.15 21.35
Q 156.15 21.3 156.1 21.25
L 156.1 21.2 156.1 21.15 156.05 21.1
Q 156.05 21.05 156 21
L 156 20.95
Q 155.975 20.9 155.95 20.85 155.8875 20.7125 155.85 20.6 155.771875 20.3265625 155.75 20.05
L 155.75 19.9
Q 155.775 19.6 155.8 19.3 156.05 18.35 157 17.5 Z
M 155.95 20.85
L 155.95 20.8
Q 155.9 20.75 155.9 20.7
L 155.9 20.65 155.85 20.6 155.85 20.55
Q 155.775 20.2875 155.75 20.05
M 156.2 21.4
Q 156.15 21.3 156.1 21.2"/>
</g>
</g>

<g transform="matrix( 1, 0, 0, 1, 0,0) ">
<g>
<g>
<path fill="#FF0000" stroke="none" d="
M 160.35 46.1
Q 160.05 46.4 160.05 46.8 160.05 47.2 160.35 47.5 160.65 47.8 161.05 47.8 161.45 47.8 161.75 47.5 162.05 47.2 162.05 46.8 162.05 46.4 161.75 46.1 161.45 45.8 161.05 45.8 160.65 45.8 160.35 46.1
M 159.5 25.55
Q 159.2 25.85 159.2 26.25 159.2 26.65 159.5 26.95 159.8 27.25 160.2 27.25 160.6 27.25 160.9 26.95 161.2 26.65 161.2 26.25 161.2 25.85 160.9 25.55 160.6 25.25 160.2 25.25 159.8 25.25 159.5 25.55
M 156.75 20.05
Q 156.75 19.65 156.45 19.35 156.15 19.05 155.75 19.05 155.35 19.05 155.05 19.35 154.75 19.65 154.75 20.05 154.75 20.2853515625 154.85 20.45 154.9052734375 20.5697265625 154.95 20.65 154.95 20.7515625 154.95 20.85 154.95 20.9673828125 154.95 21.05 155.01640625 21.2482421875 155.1 21.4 155.1560546875 21.450390625 155.2 21.5 155.2267578125 21.5267578125 155.25 21.55 155.55 21.85 155.95 21.85 156.35 21.85 156.65 21.55 156.95 21.25 156.95 20.85 156.95 20.816015625 156.95 20.75
L 156.95 20.75 156.9 20.55
Q 156.87890625 20.4875 156.8 20.4 156.78671875 20.32109375 156.7 20.25
L 156.7 20.2
Q 156.7359375 20.2013671875 156.75 20.15
L 156.75 20.15
Q 156.75 20.1033203125 156.75 20.05
M 159.3 15.8
Q 159 16.1 159 16.5 159 16.9 159.3 17.2 159.6 17.5 160 17.5 160.4 17.5 160.7 17.2 161 16.9 161 16.5 161 16.1 160.7 15.8 160.4 15.5 160 15.5 159.6 15.5 159.3 15.8
M 188.95 49.8
Q 188.65 49.5 188.25 49.5 187.85 49.5 187.55 49.8 187.25 50.1 187.25 50.5 187.25 50.9 187.55 51.2 187.85 51.5 188.25 51.5 188.65 51.5 188.95 51.2 189.25 50.9 189.25 50.5 189.25 50.1 188.95 49.8
M 193.65 51.3
Q 193.35 51 192.95 51 192.55 51 192.25 51.3 191.95 51.6 191.95 52 191.95 52.4 192.25 52.7 192.55 53 192.95 53 193.35 53 193.65 52.7 193.95 52.4 193.95 52 193.95 51.6 193.65 51.3
M 192.95 45.45
Q 192.95 45.85 193.25 46.15 193.55 46.45 193.95 46.45 194.35 46.45 194.65 46.15 194.95 45.85 194.95 45.45 194.95 45.05 194.65 44.75 194.35 44.45 193.95 44.45 193.55 44.45 193.25 44.75 192.95 45.05 192.95 45.45
M 186.3 45.25
Q 186.3 44.85 186 44.55 185.7 44.25 185.3 44.25 184.9 44.25 184.6 44.55 184.3 44.85 184.3 45.25 184.3 45.65 184.6 45.95 184.9 46.25 185.3 46.25 185.7 46.25 186 45.95 186.3 45.65 186.3 45.25
M 192 38.45
Q 192 38.85 192.3 39.15 192.6 39.45 193 39.45 193.4 39.45 193.7 39.15 194 38.85 194 38.45 194 38.05 193.7 37.75 193.4 37.45 193 37.45 192.6 37.45 192.3 37.75 192 38.05 192 38.45
M 194 31.4
Q 193.7 31.1 193.3 31.1 192.9 31.1 192.6 31.4 192.3 31.7 192.3 32.1 192.3 32.5 192.6 32.8 192.9 33.1 193.3 33.1 193.7 33.1 194 32.8 194.3 32.5 194.3 32.1 194.3 31.7 194 31.4
M 198.95 26.7
Q 198.65 26.4 198.25 26.4 197.85 26.4 197.55 26.7 197.25 27 197.25 27.4 197.25 27.8 197.55 28.1 197.85 28.4 198.25 28.4 198.65 28.4 198.95 28.1 199.25 27.8 199.25 27.4 199.25 27 198.95 26.7
M 173.95 45.25
Q 173.65 44.95 173.25 44.95 172.85 44.95 172.55 45.25 172.25 45.55 172.25 45.95 172.25 46.35 172.55 46.65 172.85 46.95 173.25 46.95 173.65 46.95 173.95 46.65 174.25 46.35 174.25 45.95 174.25 45.55 173.95 45.25
M 178.65 41.9
Q 178.35 42.2 178.35 42.6 178.35 43 178.65 43.3 178.95 43.6 179.35 43.6 179.75 43.6 180.05 43.3 180.35 43 180.35 42.6 180.35 42.2 180.05 41.9 179.75 41.6 179.35 41.6 178.95 41.6 178.65 41.9
M 166.8 47.8
Q 166.4 47.8 166.1 48.1 165.8 48.4 165.8 48.8 165.8 49.2 166.1 49.5 166.4 49.8 166.8 49.8 167.2 49.8 167.5 49.5 167.8 49.2 167.8 48.8 167.8 48.4 167.5 48.1 167.2 47.8 166.8 47.8
M 164.1 42.6
Q 163.8 42.9 163.8 43.3 163.8 43.7 164.1 44 164.4 44.3 164.8 44.3 165.2 44.3 165.5 44 165.8 43.7 165.8 43.3 165.8 42.9 165.5 42.6 165.2 42.3 164.8 42.3 164.4 42.3 164.1 42.6
M 166.3 36.3
Q 166 36.6 166 37 166 37.4 166.3 37.7 166.6 38 167 38 167.4 38 167.7 37.7 168 37.4 168 37 168 36.6 167.7 36.3 167.4 36 167 36 166.6 36 166.3 36.3
M 165.15 30.25
Q 164.75 30.25 164.45 30.55 164.15 30.85 164.15 31.25 164.15 31.65 164.45 31.95 164.75 32.25 165.15 32.25 165.55 32.25 165.85 31.95 166.15 31.65 166.15 31.25 166.15 30.85 165.85 30.55 165.55 30.25 165.15 30.25
M 174.9 14.25
Q 175.3 14.25 175.6 13.95 175.9 13.65 175.9 13.25 175.9 12.85 175.6 12.55 175.3 12.25 174.9 12.25 174.5 12.25 174.2 12.55 173.9 12.85 173.9 13.25 173.9 13.65 174.2 13.95 174.5 14.25 174.9 14.25
M 170.85 19.3
Q 170.85 19.7 171.15 20 171.45 20.3 171.85 20.3 172.25 20.3 172.55 20 172.85 19.7 172.85 19.3 172.85 18.9 172.55 18.6 172.25 18.3 171.85 18.3 171.45 18.3 171.15 18.6 170.85 18.9 170.85 19.3
M 165.6 19.55
Q 165.3 19.25 164.9 19.25 164.5 19.25 164.2 19.55 163.9 19.85 163.9 20.25 163.9 20.65 164.2 20.95 164.5 21.25 164.9 21.25 165.3 21.25 165.6 20.95 165.9 20.65 165.9 20.25 165.9 19.85 165.6 19.55
M 177.65 6.6
Q 177.35 6.9 177.35 7.3 177.35 7.7 177.65 8 177.95 8.3 178.35 8.3 178.75 8.3 179.05 8 179.35 7.7 179.35 7.3 179.35 6.9 179.05 6.6 178.75 6.3 178.35 6.3 177.95 6.3 177.65 6.6
M 197.05 19.6
Q 196.75 19.3 196.35 19.3 195.95 19.3 195.65 19.6 195.35 19.9 195.35 20.3 195.35 20.7 195.65 21 195.95 21.3 196.35 21.3 196.75 21.3 197.05 21 197.35 20.7 197.35 20.3 197.35 19.9 197.05 19.6
M 189.35 20.3
Q 189.75 20.3 190.05 20 190.35 19.7 190.35 19.3 190.35 18.9 190.05 18.6 189.75 18.3 189.35 18.3 188.95 18.3 188.65 18.6 188.35 18.9 188.35 19.3 188.35 19.7 188.65 20 188.95 20.3 189.35 20.3
M 185.9 14.1
Q 185.6 13.8 185.2 13.8 184.8 13.8 184.5 14.1 184.2 14.4 184.2 14.8 184.2 15.2 184.5 15.5 184.8 15.8 185.2 15.8 185.6 15.8 185.9 15.5 186.2 15.2 186.2 14.8 186.2 14.4 185.9 14.1
M 185.15 7.7
Q 184.85 7.4 184.45 7.4 184.05 7.4 183.75 7.7 183.45 8 183.45 8.4 183.45 8.8 183.75 9.1 184.05 9.4 184.45 9.4 184.85 9.4 185.15 9.1 185.45 8.8 185.45 8.4 185.45 8 185.15 7.7
M 182.9 3.15
Q 182.6 3.45 182.6 3.85 182.6 4.25 182.9 4.55 183.2 4.85 183.6 4.85 184 4.85 184.3 4.55 184.6 4.25 184.6 3.85 184.6 3.45 184.3 3.15 184 2.85 183.6 2.85 183.2 2.85 182.9 3.15
M 204.45 28.9
Q 204.85 28.9 205.15 28.6 205.45 28.3 205.45 27.9 205.45 27.5 205.15 27.2 204.85 26.9 204.45 26.9 204.05 26.9 203.75 27.2 203.45 27.5 203.45 27.9 203.45 28.3 203.75 28.6 204.05 28.9 204.45 28.9
M 203.95 21.25
Q 203.65 20.95 203.25 20.95 202.85 20.95 202.55 21.25 202.25 21.55 202.25 21.95 202.25 22.35 202.55 22.65 202.85 22.95 203.25 22.95 203.65 22.95 203.95 22.65 204.25 22.35 204.25 21.95 204.25 21.55 203.95 21.25 Z"/>
</g>
</g>

<g>
<path stroke="#FFFFFF" stroke-width="0.5" stroke-linejoin="round" stroke-linecap="round" fill="none" d="
M 204.25 21.95
Q 204.25 22.35 203.95 22.65 203.65 22.95 203.25 22.95 202.85 22.95 202.55 22.65 202.25 22.35 202.25 21.95 202.25 21.55 202.55 21.25 202.85 20.95 203.25 20.95 203.65 20.95 203.95 21.25 204.25 21.55 204.25 21.95 Z
M 205.45 27.9
Q 205.45 28.3 205.15 28.6 204.85 28.9 204.45 28.9 204.05 28.9 203.75 28.6 203.45 28.3 203.45 27.9 203.45 27.5 203.75 27.2 204.05 26.9 204.45 26.9 204.85 26.9 205.15 27.2 205.45 27.5 205.45 27.9 Z
M 184.6 3.85
Q 184.6 4.25 184.3 4.55 184 4.85 183.6 4.85 183.2 4.85 182.9 4.55 182.6 4.25 182.6 3.85 182.6 3.45 182.9 3.15 183.2 2.85 183.6 2.85 184 2.85 184.3 3.15 184.6 3.45 184.6 3.85 Z
M 185.45 8.4
Q 185.45 8.8 185.15 9.1 184.85 9.4 184.45 9.4 184.05 9.4 183.75 9.1 183.45 8.8 183.45 8.4 183.45 8 183.75 7.7 184.05 7.4 184.45 7.4 184.85 7.4 185.15 7.7 185.45 8 185.45 8.4 Z
M 186.2 14.8
Q 186.2 15.2 185.9 15.5 185.6 15.8 185.2 15.8 184.8 15.8 184.5 15.5 184.2 15.2 184.2 14.8 184.2 14.4 184.5 14.1 184.8 13.8 185.2 13.8 185.6 13.8 185.9 14.1 186.2 14.4 186.2 14.8 Z
M 190.35 19.3
Q 190.35 19.7 190.05 20 189.75 20.3 189.35 20.3 188.95 20.3 188.65 20 188.35 19.7 188.35 19.3 188.35 18.9 188.65 18.6 188.95 18.3 189.35 18.3 189.75 18.3 190.05 18.6 190.35 18.9 190.35 19.3 Z
M 197.35 20.3
Q 197.35 20.7 197.05 21 196.75 21.3 196.35 21.3 195.95 21.3 195.65 21 195.35 20.7 195.35 20.3 195.35 19.9 195.65 19.6 195.95 19.3 196.35 19.3 196.75 19.3 197.05 19.6 197.35 19.9 197.35 20.3 Z
M 179.35 7.3
Q 179.35 7.7 179.05 8 178.75 8.3 178.35 8.3 177.95 8.3 177.65 8 177.35 7.7 177.35 7.3 177.35 6.9 177.65 6.6 177.95 6.3 178.35 6.3 178.75 6.3 179.05 6.6 179.35 6.9 179.35 7.3 Z
M 165.9 20.25
Q 165.9 20.65 165.6 20.95 165.3 21.25 164.9 21.25 164.5 21.25 164.2 20.95 163.9 20.65 163.9 20.25 163.9 19.85 164.2 19.55 164.5 19.25 164.9 19.25 165.3 19.25 165.6 19.55 165.9 19.85 165.9 20.25 Z
M 172.85 19.3
Q 172.85 19.7 172.55 20 172.25 20.3 171.85 20.3 171.45 20.3 171.15 20 170.85 19.7 170.85 19.3 170.85 18.9 171.15 18.6 171.45 18.3 171.85 18.3 172.25 18.3 172.55 18.6 172.85 18.9 172.85 19.3 Z
M 175.9 13.25
Q 175.9 13.65 175.6 13.95 175.3 14.25 174.9 14.25 174.5 14.25 174.2 13.95 173.9 13.65 173.9 13.25 173.9 12.85 174.2 12.55 174.5 12.25 174.9 12.25 175.3 12.25 175.6 12.55 175.9 12.85 175.9 13.25 Z
M 166.15 31.25
Q 166.15 31.65 165.85 31.95 165.55 32.25 165.15 32.25 164.75 32.25 164.45 31.95 164.15 31.65 164.15 31.25 164.15 30.85 164.45 30.55 164.75 30.25 165.15 30.25 165.55 30.25 165.85 30.55 166.15 30.85 166.15 31.25 Z
M 168 37
Q 168 37.4 167.7 37.7 167.4 38 167 38 166.6 38 166.3 37.7 166 37.4 166 37 166 36.6 166.3 36.3 166.6 36 167 36 167.4 36 167.7 36.3 168 36.6 168 37 Z
M 165.8 43.3
Q 165.8 43.7 165.5 44 165.2 44.3 164.8 44.3 164.4 44.3 164.1 44 163.8 43.7 163.8 43.3 163.8 42.9 164.1 42.6 164.4 42.3 164.8 42.3 165.2 42.3 165.5 42.6 165.8 42.9 165.8 43.3 Z
M 167.8 48.8
Q 167.8 49.2 167.5 49.5 167.2 49.8 166.8 49.8 166.4 49.8 166.1 49.5 165.8 49.2 165.8 48.8 165.8 48.4 166.1 48.1 166.4 47.8 166.8 47.8 167.2 47.8 167.5 48.1 167.8 48.4 167.8 48.8 Z
M 180.35 42.6
Q 180.35 43 180.05 43.3 179.75 43.6 179.35 43.6 178.95 43.6 178.65 43.3 178.35 43 178.35 42.6 178.35 42.2 178.65 41.9 178.95 41.6 179.35 41.6 179.75 41.6 180.05 41.9 180.35 42.2 180.35 42.6 Z
M 174.25 45.95
Q 174.25 46.35 173.95 46.65 173.65 46.95 173.25 46.95 172.85 46.95 172.55 46.65 172.25 46.35 172.25 45.95 172.25 45.55 172.55 45.25 172.85 44.95 173.25 44.95 173.65 44.95 173.95 45.25 174.25 45.55 174.25 45.95 Z
M 199.25 27.4
Q 199.25 27.8 198.95 28.1 198.65 28.4 198.25 28.4 197.85 28.4 197.55 28.1 197.25 27.8 197.25 27.4 197.25 27 197.55 26.7 197.85 26.4 198.25 26.4 198.65 26.4 198.95 26.7 199.25 27 199.25 27.4 Z
M 194.3 32.1
Q 194.3 32.5 194 32.8 193.7 33.1 193.3 33.1 192.9 33.1 192.6 32.8 192.3 32.5 192.3 32.1 192.3 31.7 192.6 31.4 192.9 31.1 193.3 31.1 193.7 31.1 194 31.4 194.3 31.7 194.3 32.1 Z
M 194 38.45
Q 194 38.85 193.7 39.15 193.4 39.45 193 39.45 192.6 39.45 192.3 39.15 192 38.85 192 38.45 192 38.05 192.3 37.75 192.6 37.45 193 37.45 193.4 37.45 193.7 37.75 194 38.05 194 38.45 Z
M 186.3 45.25
Q 186.3 45.65 186 45.95 185.7 46.25 185.3 46.25 184.9 46.25 184.6 45.95 184.3 45.65 184.3 45.25 184.3 44.85 184.6 44.55 184.9 44.25 185.3 44.25 185.7 44.25 186 44.55 186.3 44.85 186.3 45.25 Z
M 194.95 45.45
Q 194.95 45.85 194.65 46.15 194.35 46.45 193.95 46.45 193.55 46.45 193.25 46.15 192.95 45.85 192.95 45.45 192.95 45.05 193.25 44.75 193.55 44.45 193.95 44.45 194.35 44.45 194.65 44.75 194.95 45.05 194.95 45.45 Z
M 193.95 52
Q 193.95 52.4 193.65 52.7 193.35 53 192.95 53 192.55 53 192.25 52.7 191.95 52.4 191.95 52 191.95 51.6 192.25 51.3 192.55 51 192.95 51 193.35 51 193.65 51.3 193.95 51.6 193.95 52 Z
M 189.25 50.5
Q 189.25 50.9 188.95 51.2 188.65 51.5 188.25 51.5 187.85 51.5 187.55 51.2 187.25 50.9 187.25 50.5 187.25 50.1 187.55 49.8 187.85 49.5 188.25 49.5 188.65 49.5 188.95 49.8 189.25 50.1 189.25 50.5 Z
M 161 16.5
Q 161 16.9 160.7 17.2 160.4 17.5 160 17.5 159.6 17.5 159.3 17.2 159 16.9 159 16.5 159 16.1 159.3 15.8 159.6 15.5 160 15.5 160.4 15.5 160.7 15.8 161 16.1 161 16.5 Z
M 156.75 20.05
Q 156.75 20.1033203125 156.75 20.15
L 156.75 20.175
Q 156.7359375 20.2013671875 156.725 20.225
L 156.725 20.25
Q 156.78671875 20.32109375 156.825 20.4 156.87890625 20.4875 156.9 20.575
L 156.95 20.75 156.95 20.775
Q 156.95 20.816015625 156.95 20.85 156.95 21.25 156.65 21.55 156.35 21.85 155.95 21.85 155.55 21.85 155.25 21.55 155.2267578125 21.5267578125 155.2 21.5 155.1560546875 21.450390625 155.125 21.4 155.01640625 21.2482421875 154.975 21.075 154.95 20.9673828125 154.95 20.85 154.95 20.7515625 154.975 20.65 154.9052734375 20.5697265625 154.85 20.475 154.75 20.2853515625 154.75 20.05 154.75 19.65 155.05 19.35 155.35 19.05 155.75 19.05 156.15 19.05 156.45 19.35 156.75 19.65 156.75 20.05 Z
M 161.2 26.25
Q 161.2 26.65 160.9 26.95 160.6 27.25 160.2 27.25 159.8 27.25 159.5 26.95 159.2 26.65 159.2 26.25 159.2 25.85 159.5 25.55 159.8 25.25 160.2 25.25 160.6 25.25 160.9 25.55 161.2 25.85 161.2 26.25 Z
M 162.05 46.8
Q 162.05 47.2 161.75 47.5 161.45 47.8 161.05 47.8 160.65 47.8 160.35 47.5 160.05 47.2 160.05 46.8 160.05 46.4 160.35 46.1 160.65 45.8 161.05 45.8 161.45 45.8 161.75 46.1 162.05 46.4 162.05 46.8 Z"/>
</g>
</g>

<g transform="matrix( 1, 0, 0, 1, -1.25,-2) ">
<g>
<g>
<path fill="#FFFF00" stroke="none" d="
M 155.25 22.65
Q 155.25 23.35 155.75 23.85 156.25 24.35 156.95 24.35 157.65 24.35 158.15 23.85 158.65 23.35 158.65 22.65 158.65 21.95 158.15 21.45 157.65 20.95 156.95 20.95 156.25 20.95 155.75 21.45 155.25 21.95 155.25 22.65
M 156.1 22.65
Q 156.1 22.3 156.35 22.05 156.6 21.8 156.95 21.8 157.3 21.8 157.55 22.05 157.8 22.3 157.8 22.65 157.8 23 157.55 23.25 157.3 23.5 156.95 23.5 156.6 23.5 156.35 23.25 156.1 23 156.1 22.65 Z"/>

<path fill="#FF0000" stroke="none" d="
M 156.35 22.05
Q 156.1 22.3 156.1 22.65 156.1 23 156.35 23.25 156.6 23.5 156.95 23.5 157.3 23.5 157.55 23.25 157.8 23 157.8 22.65 157.8 22.3 157.55 22.05 157.3 21.8 156.95 21.8 156.6 21.8 156.35 22.05 Z"/>
</g>
</g>
</g>
</g>

<g id="Laag_2">
<g transform="matrix( 1, 0, 0, 1, 0,0) ">
<g>
<g>
<path fill="#999999" stroke="none" d="
M 97.55 22.05
Q 89.6 19.75 81.15 19.1 79.55 15.4 77.6 11.65 76.6 9.75 80.55 6.2 76.6 1.9 74.15 4.6 69.35 11.4 66.15 19.3 62.15 19.65 58 20.35 55.9 20.7 53.7 15.85 51.95 16.65 51 17.5 49 19.3 50.2 21.4 51.5 23.1 52.9 24.75
L 52.95 24.8
Q 56.9 29.45 61.7 33.55 60.8 37.5 60.2 41.65 59.9 43.75 54.55 44.3 55.2 50.1 58.9 49.5 66.7 46.7 73.95 42.25 77.4 44.3 81.15 46.15 83.05 47.1 81.95 52.35 87.65 53.5 88.2 49.85 87.95 41.6 85.95 33.35 88.95 30.65 91.9 27.65 93.4 26.1 98 28.75 100.9 23.7 97.55 22.05 Z"/>
</g>
</g>
</g>

<g transform="matrix( 1, 0, 0, 1, 0,0) ">
<g>
<path stroke="#000000" stroke-width="0.5" stroke-linejoin="round" stroke-linecap="round" fill="none" d="
M 51 17.5
Q 50.95 17.4 50.9 17.3 49.05 13.25 45.65 9.85 43 7.2 39.95 5.5 34.5 2.45 27.8 2.45 17.35 2.45 9.95 9.85 2.55 17.25 2.55 27.7 2.55 38.15 9.95 45.55 17.35 52.95 27.8 52.95 34.5 52.95 39.95 49.9 43 48.2 45.65 45.55 53.05 38.15 53.05 27.7 53.05 26.25 52.95 24.9 52.5 20.95 51 17.5 Z"/>
</g>
</g>

<g transform="matrix( 1, 0, 0, 1, 0,0) ">
<g>
<g>
<path fill="#FF0000" stroke="none" d="
M 18.75 50.9
Q 18.45 51.2 18.45 51.6 18.45 52 18.75 52.3 19.05 52.6 19.45 52.6 19.85 52.6 20.15 52.3 20.45 52 20.45 51.6 20.45 51.2 20.15 50.9 19.85 50.6 19.45 50.6 19.05 50.6 18.75 50.9
M 25.9 52.2
Q 25.6 52.5 25.6 52.9 25.6 53.3 25.9 53.6 26.2 53.9 26.6 53.9 27 53.9 27.3 53.6 27.6 53.3 27.6 52.9 27.6 52.5 27.3 52.2 27 51.9 26.6 51.9 26.2 51.9 25.9 52.2
M 32.85 51.65
Q 32.55 51.95 32.55 52.35 32.55 52.75 32.85 53.05 33.15 53.35 33.55 53.35 33.95 53.35 34.25 53.05 34.55 52.75 34.55 52.35 34.55 51.95 34.25 51.65 33.95 51.35 33.55 51.35 33.15 51.35 32.85 51.65
M 40.05 48.85
Q 39.65 48.85 39.35 49.15 39.05 49.45 39.05 49.85 39.05 50.25 39.35 50.55 39.65 50.85 40.05 50.85 40.45 50.85 40.75 50.55 41.05 50.25 41.05 49.85 41.05 49.45 40.75 49.15 40.45 48.85 40.05 48.85
M 14.2 47.85
Q 13.9 47.55 13.5 47.55 13.1 47.55 12.8 47.85 12.5 48.15 12.5 48.55 12.5 48.95 12.8 49.25 13.1 49.55 13.5 49.55 13.9 49.55 14.2 49.25 14.5 48.95 14.5 48.55 14.5 48.15 14.2 47.85
M 9.1 43.2
Q 8.8 42.9 8.4 42.9 8 42.9 7.7 43.2 7.4 43.5 7.4 43.9 7.4 44.3 7.7 44.6 8 44.9 8.4 44.9 8.8 44.9 9.1 44.6 9.4 44.3 9.4 43.9 9.4 43.5 9.1 43.2
M 5.3 38.6
Q 5.6 38.3 5.6 37.9 5.6 37.5 5.3 37.2 5 36.9 4.6 36.9 4.2 36.9 3.9 37.2 3.6 37.5 3.6 37.9 3.6 38.3 3.9 38.6 4.2 38.9 4.6 38.9 5 38.9 5.3 38.6
M 3.9 32.9
Q 3.6 32.6 3.2 32.6 2.8 32.6 2.5 32.9 2.2 33.2 2.2 33.6 2.2 34 2.5 34.3 2.8 34.6 3.2 34.6 3.6 34.6 3.9 34.3 4.2 34 4.2 33.6 4.2 33.2 3.9 32.9
M 1.85 26.1
Q 1.55 26.4 1.55 26.8 1.55 27.2 1.85 27.5 2.15 27.8 2.55 27.8 2.95 27.8 3.25 27.5 3.55 27.2 3.55 26.8 3.55 26.4 3.25 26.1 2.95 25.8 2.55 25.8 2.15 25.8 1.85 26.1
M 4.5 19
Q 4.2 18.7 3.8 18.7 3.4 18.7 3.1 19 2.8 19.3 2.8 19.7 2.8 20.1 3.1 20.4 3.4 20.7 3.8 20.7 4.2 20.7 4.5 20.4 4.8 20.1 4.8 19.7 4.8 19.3 4.5 19
M 7.65 12.7
Q 7.35 12.4 6.95 12.4 6.55 12.4 6.25 12.7 5.95 13 5.95 13.4 5.95 13.8 6.25 14.1 6.55 14.4 6.95 14.4 7.35 14.4 7.65 14.1 7.95 13.8 7.95 13.4 7.95 13 7.65 12.7
M 12.3 7.65
Q 12 7.35 11.6 7.35 11.2 7.35 10.9 7.65 10.6 7.95 10.6 8.35 10.6 8.75 10.9 9.05 11.2 9.35 11.6 9.35 12 9.35 12.3 9.05 12.6 8.75 12.6 8.35 12.6 7.95 12.3 7.65
M 18.2 3.85
Q 17.9 3.55 17.5 3.55 17.1 3.55 16.8 3.85 16.5 4.15 16.5 4.55 16.5 4.95 16.8 5.25 17.1 5.55 17.5 5.55 17.9 5.55 18.2 5.25 18.5 4.95 18.5 4.55 18.5 4.15 18.2 3.85
M 25 1.95
Q 24.7 1.65 24.3 1.65 23.9 1.65 23.6 1.95 23.3 2.25 23.3 2.65 23.3 3.05 23.6 3.35 23.9 3.65 24.3 3.65 24.7 3.65 25 3.35 25.3 3.05 25.3 2.65 25.3 2.25 25 1.95
M 32.1 2
Q 31.8 1.7 31.4 1.7 31 1.7 30.7 2 30.4 2.3 30.4 2.7 30.4 3.1 30.7 3.4 31 3.7 31.4 3.7 31.8 3.7 32.1 3.4 32.4 3.1 32.4 2.7 32.4 2.3 32.1 2
M 37.4 3.9
Q 37.1 4.2 37.1 4.6 37.1 5 37.4 5.3 37.7 5.6 38.1 5.6 38.5 5.6 38.8 5.3 39.1 5 39.1 4.6 39.1 4.2 38.8 3.9 38.5 3.6 38.1 3.6 37.7 3.6 37.4 3.9
M 44.65 45.55
Q 44.65 45.95 44.95 46.25 45.25 46.55 45.65 46.55 46.05 46.55 46.35 46.25 46.65 45.95 46.65 45.55 46.65 45.15 46.35 44.85 46.05 44.55 45.65 44.55 45.25 44.55 44.95 44.85 44.65 45.15 44.65 45.55
M 49.2 39.35
Q 48.9 39.65 48.9 40.05 48.9 40.45 49.2 40.75 49.5 41.05 49.9 41.05 50.3 41.05 50.6 40.75 50.9 40.45 50.9 40.05 50.9 39.65 50.6 39.35 50.3 39.05 49.9 39.05 49.5 39.05 49.2 39.35
M 51.7 32.85
Q 51.4 33.15 51.4 33.55 51.4 33.95 51.7 34.25 52 34.55 52.4 34.55 52.8 34.55 53.1 34.25 53.4 33.95 53.4 33.55 53.4 33.15 53.1 32.85 52.8 32.55 52.4 32.55 52 32.55 51.7 32.85
M 53.75 26
Q 53.45 25.7 53.05 25.7 52.65 25.7 52.35 26 52.05 26.3 52.05 26.7 52.05 27.1 52.35 27.4 52.65 27.7 53.05 27.7 53.45 27.7 53.75 27.4 54.05 27.1 54.05 26.7 54.05 26.3 53.75 26
M 51.15 19.15
Q 50.85 19.45 50.85 19.85 50.85 20.25 51.15 20.55 51.45 20.85 51.85 20.85 52.25 20.85 52.55 20.55 52.85 20.25 52.85 19.85 52.85 19.45 52.55 19.15 52.25 18.85 51.85 18.85 51.45 18.85 51.15 19.15
M 49.45 12.85
Q 49.15 12.55 48.75 12.55 48.35 12.55 48.05 12.85 47.75 13.15 47.75 13.55 47.75 13.95 48.05 14.25 48.35 14.55 48.75 14.55 49.15 14.55 49.45 14.25 49.75 13.95 49.75 13.55 49.75 13.15 49.45 12.85
M 44.7 7.65
Q 44.4 7.35 44 7.35 43.6 7.35 43.3 7.65 43 7.95 43 8.35 43 8.75 43.3 9.05 43.6 9.35 44 9.35 44.4 9.35 44.7 9.05 45 8.75 45 8.35 45 7.95 44.7 7.65 Z"/>
</g>
</g>

<g>
<path stroke="#FFFFFF" stroke-width="0.5" stroke-linejoin="round" stroke-linecap="round" fill="none" d="
M 45 8.35
Q 45 8.75 44.7 9.05 44.4 9.35 44 9.35 43.6 9.35 43.3 9.05 43 8.75 43 8.35 43 7.95 43.3 7.65 43.6 7.35 44 7.35 44.4 7.35 44.7 7.65 45 7.95 45 8.35 Z
M 49.75 13.55
Q 49.75 13.95 49.45 14.25 49.15 14.55 48.75 14.55 48.35 14.55 48.05 14.25 47.75 13.95 47.75 13.55 47.75 13.15 48.05 12.85 48.35 12.55 48.75 12.55 49.15 12.55 49.45 12.85 49.75 13.15 49.75 13.55 Z
M 52.85 19.85
Q 52.85 20.25 52.55 20.55 52.25 20.85 51.85 20.85 51.45 20.85 51.15 20.55 50.85 20.25 50.85 19.85 50.85 19.45 51.15 19.15 51.45 18.85 51.85 18.85 52.25 18.85 52.55 19.15 52.85 19.45 52.85 19.85 Z
M 54.05 26.7
Q 54.05 27.1 53.75 27.4 53.45 27.7 53.05 27.7 52.65 27.7 52.35 27.4 52.05 27.1 52.05 26.7 52.05 26.3 52.35 26 52.65 25.7 53.05 25.7 53.45 25.7 53.75 26 54.05 26.3 54.05 26.7 Z
M 53.4 33.55
Q 53.4 33.95 53.1 34.25 52.8 34.55 52.4 34.55 52 34.55 51.7 34.25 51.4 33.95 51.4 33.55 51.4 33.15 51.7 32.85 52 32.55 52.4 32.55 52.8 32.55 53.1 32.85 53.4 33.15 53.4 33.55 Z
M 50.9 40.05
Q 50.9 40.45 50.6 40.75 50.3 41.05 49.9 41.05 49.5 41.05 49.2 40.75 48.9 40.45 48.9 40.05 48.9 39.65 49.2 39.35 49.5 39.05 49.9 39.05 50.3 39.05 50.6 39.35 50.9 39.65 50.9 40.05 Z
M 46.65 45.55
Q 46.65 45.95 46.35 46.25 46.05 46.55 45.65 46.55 45.25 46.55 44.95 46.25 44.65 45.95 44.65 45.55 44.65 45.15 44.95 44.85 45.25 44.55 45.65 44.55 46.05 44.55 46.35 44.85 46.65 45.15 46.65 45.55 Z
M 39.1 4.6
Q 39.1 5 38.8 5.3 38.5 5.6 38.1 5.6 37.7 5.6 37.4 5.3 37.1 5 37.1 4.6 37.1 4.2 37.4 3.9 37.7 3.6 38.1 3.6 38.5 3.6 38.8 3.9 39.1 4.2 39.1 4.6 Z
M 32.4 2.7
Q 32.4 3.1 32.1 3.4 31.8 3.7 31.4 3.7 31 3.7 30.7 3.4 30.4 3.1 30.4 2.7 30.4 2.3 30.7 2 31 1.7 31.4 1.7 31.8 1.7 32.1 2 32.4 2.3 32.4 2.7 Z
M 25.3 2.65
Q 25.3 3.05 25 3.35 24.7 3.65 24.3 3.65 23.9 3.65 23.6 3.35 23.3 3.05 23.3 2.65 23.3 2.25 23.6 1.95 23.9 1.65 24.3 1.65 24.7 1.65 25 1.95 25.3 2.25 25.3 2.65 Z
M 18.5 4.55
Q 18.5 4.95 18.2 5.25 17.9 5.55 17.5 5.55 17.1 5.55 16.8 5.25 16.5 4.95 16.5 4.55 16.5 4.15 16.8 3.85 17.1 3.55 17.5 3.55 17.9 3.55 18.2 3.85 18.5 4.15 18.5 4.55 Z
M 12.6 8.35
Q 12.6 8.75 12.3 9.05 12 9.35 11.6 9.35 11.2 9.35 10.9 9.05 10.6 8.75 10.6 8.35 10.6 7.95 10.9 7.65 11.2 7.35 11.6 7.35 12 7.35 12.3 7.65 12.6 7.95 12.6 8.35 Z
M 7.95 13.4
Q 7.95 13.8 7.65 14.1 7.35 14.4 6.95 14.4 6.55 14.4 6.25 14.1 5.95 13.8 5.95 13.4 5.95 13 6.25 12.7 6.55 12.4 6.95 12.4 7.35 12.4 7.65 12.7 7.95 13 7.95 13.4 Z
M 4.8 19.7
Q 4.8 20.1 4.5 20.4 4.2 20.7 3.8 20.7 3.4 20.7 3.1 20.4 2.8 20.1 2.8 19.7 2.8 19.3 3.1 19 3.4 18.7 3.8 18.7 4.2 18.7 4.5 19 4.8 19.3 4.8 19.7 Z
M 3.55 26.8
Q 3.55 27.2 3.25 27.5 2.95 27.8 2.55 27.8 2.15 27.8 1.85 27.5 1.55 27.2 1.55 26.8 1.55 26.4 1.85 26.1 2.15 25.8 2.55 25.8 2.95 25.8 3.25 26.1 3.55 26.4 3.55 26.8 Z
M 4.2 33.6
Q 4.2 34 3.9 34.3 3.6 34.6 3.2 34.6 2.8 34.6 2.5 34.3 2.2 34 2.2 33.6 2.2 33.2 2.5 32.9 2.8 32.6 3.2 32.6 3.6 32.6 3.9 32.9 4.2 33.2 4.2 33.6 Z
M 5.6 37.9
Q 5.6 38.3 5.3 38.6 5 38.9 4.6 38.9 4.2 38.9 3.9 38.6 3.6 38.3 3.6 37.9 3.6 37.5 3.9 37.2 4.2 36.9 4.6 36.9 5 36.9 5.3 37.2 5.6 37.5 5.6 37.9 Z
M 9.4 43.9
Q 9.4 44.3 9.1 44.6 8.8 44.9 8.4 44.9 8 44.9 7.7 44.6 7.4 44.3 7.4 43.9 7.4 43.5 7.7 43.2 8 42.9 8.4 42.9 8.8 42.9 9.1 43.2 9.4 43.5 9.4 43.9 Z
M 14.5 48.55
Q 14.5 48.95 14.2 49.25 13.9 49.55 13.5 49.55 13.1 49.55 12.8 49.25 12.5 48.95 12.5 48.55 12.5 48.15 12.8 47.85 13.1 47.55 13.5 47.55 13.9 47.55 14.2 47.85 14.5 48.15 14.5 48.55 Z
M 41.05 49.85
Q 41.05 50.25 40.75 50.55 40.45 50.85 40.05 50.85 39.65 50.85 39.35 50.55 39.05 50.25 39.05 49.85 39.05 49.45 39.35 49.15 39.65 48.85 40.05 48.85 40.45 48.85 40.75 49.15 41.05 49.45 41.05 49.85 Z
M 34.55 52.35
Q 34.55 52.75 34.25 53.05 33.95 53.35 33.55 53.35 33.15 53.35 32.85 53.05 32.55 52.75 32.55 52.35 32.55 51.95 32.85 51.65 33.15 51.35 33.55 51.35 33.95 51.35 34.25 51.65 34.55 51.95 34.55 52.35 Z
M 27.6 52.9
Q 27.6 53.3 27.3 53.6 27 53.9 26.6 53.9 26.2 53.9 25.9 53.6 25.6 53.3 25.6 52.9 25.6 52.5 25.9 52.2 26.2 51.9 26.6 51.9 27 51.9 27.3 52.2 27.6 52.5 27.6 52.9 Z
M 20.45 51.6
Q 20.45 52 20.15 52.3 19.85 52.6 19.45 52.6 19.05 52.6 18.75 52.3 18.45 52 18.45 51.6 18.45 51.2 18.75 50.9 19.05 50.6 19.45 50.6 19.85 50.6 20.15 50.9 20.45 51.2 20.45 51.6 Z"/>
</g>
</g>

<g transform="matrix( 1, 0, 0, 1, 0,0) ">
<g>
<g>
<path fill="#FFFF00" stroke="none" d="
M 53.15 21.45
Q 53.65 20.95 53.65 20.25 53.65 19.55 53.15 19.05 52.65 18.55 51.95 18.55 51.25 18.55 50.75 19.05 50.25 19.55 50.25 20.25 50.25 20.95 50.75 21.45 51.25 21.95 51.95 21.95 52.65 21.95 53.15 21.45
M 52.8 20.25
Q 52.8 20.6 52.55 20.85 52.3 21.1 51.95 21.1 51.6 21.1 51.35 20.85 51.1 20.6 51.1 20.25 51.1 19.9 51.35 19.65 51.6 19.4 51.95 19.4 52.3 19.4 52.55 19.65 52.8 19.9 52.8 20.25 Z"/>

<path fill="#FF0000" stroke="none" d="
M 52.55 20.85
Q 52.8 20.6 52.8 20.25 52.8 19.9 52.55 19.65 52.3 19.4 51.95 19.4 51.6 19.4 51.35 19.65 51.1 19.9 51.1 20.25 51.1 20.6 51.35 20.85 51.6 21.1 51.95 21.1 52.3 21.1 52.55 20.85 Z"/>
</g>
</g>
</g>
</g>
</svg>
