
<svg xmlns="http://www.w3.org/2000/svg" version="1.1" xmlns:xlink="http://www.w3.org/1999/xlink" preserveAspectRatio="none" x="0px" y="0px" width="640px" height="360px" viewBox="0 0 640 360">
<defs/>

<g id="Laag_2">
<g transform="matrix( 1, 0, 0, 1, 0,0) ">
<g>
<g>
<path fill="#000000" stroke="none" d="
M 555.9 95.25
Q 563.4 87.6 566.45 77.2 568.05 71.8 567 66.15 562.55 77 555.95 86.85 550.6 94.9 544.55 102.2 515.6 99 487.05 99.85 486.35 100.1 485.65 100.4 490.05 76.3 471.55 59.8 469.60234375 58.06875 467.55 56.5 467.31484375 56.6052734375 467.05 56.7 470.675 61.6939453125 473.45 67.15 480.55 81.2 484.5 96.45 485 98.4 485.4 100.45 478.95 100.85 472.5 101.3 461 102.55 449.4 105.1
L 458.7 100 455.6 94.55 450.75 97.5
Q 450.9 96.4 451.05 95.3 451.15 94.3 451.3 93.3 451.4 92.45 451.5 91.6 451.65 90.15 451.75 88.75 451.8 87.75 451.7 86.75 451.65 86.35 451.5 86.05 450.85 85.15 450.2 84.3 449.8 83.75 449.4 83.2
L 437.85 89.05 441.05 94.05 446.85 90.1 445.8 102.4 448.05 105.4 445.9 105.9 437.25 89.65 431.25 93.55 440.5 107.75 439.3 108.2 437.5 104.55 432.95 107.1 426.45 95.15 420.65 98.55 428.95 111.85 427.65 112.35 416.05 101.5 410.5 105.45 415 118.4 413.35 119.4 406.45 107.9 401.35 111.6 408.6 122.2 405.85 123.9 404.4 123.05
Q 404.65 122.2 404.85 121.35 405 120.65 405.05 119.9 405.1 119.35 405.1 118.85 405 117.15 403.8 115.9 402.55 114.6 400.75 114.1 397.35 112.95 394.35 114.85 391.45 116.75 389.75 119.75
L 395.9 130.9 393.7 132.55 392.55 129.9 388.8 133.85 387.7 133.9 393.2 128.2
Q 392.9 127.5 392.6 126.85 392.3 126.1 391.9 125.45 391.75 125.15 391.55 124.9 390.95 124.05 389.9 123.45 388.6 122.65 387.3 122.75 384.15 122.45 382.3 124.9 378.8 129.4 381.05 133.8 381.1359375 133.80078125 381.55 134.5 381.0283203125 134.433984375 380.45 134.35 378.2896484375 130.2533203125 375.7 131.1 374.65 131.35 373.7 131.8 372.4755859375 132.151953125 372.15 132.45 372.012890625 132.4130859375 371.85 132.35 370.3 131.85 368.8 131.3 376.8 137.05 386.85 138.2 389.05 138.4 391.25 138.65
L 426.15 118.4
Q 426.73046875 118.0923828125 427.25 117.75
L 427.35 117.9
Q 461.662890625 101.4109375 495.3 103.25 505.05 103.55 515 103.25 492.4 111.9 490.25 135 490.03046875 137.495703125 490.15 139.95
L 491.4 147.25
Q 479.4 147.35 475.45 158.8 474.7 161 473.6 163.1
L 473.75 163.55 471.6 167 471.75 167.9 468.45 173.8
Q 445.1880859375 213.5279296875 405.35 235.8 400.75 238.4 397.25 242.5 415.3 239.6 426.2 223.95 415.15 247.95 390.85 259.2 389.5509765625 266.36953125 386.5 275.25 382.9525390625 277.051953125 380.5 280.2 376.6943359375 288.191796875 376.9 296.4
L 377.55 298.35 364.3 331.05 368.35 325.8
Q 377.5 311.95 382.7 296.35 383.2 294.85 383.85 293.4 404.330859375 283.40703125 417.9 264.5 418.152734375 264.6876953125 418.5 264.9
L 427.2 270.05
Q 398.7810546875 298.6962890625 369.6 326.55
L 365.2 331.3
Q 364.7435546875 331.162890625 364.3 331.05 354.9419921875 328.72578125 351.15 338.3 305.34609375 338.14296875 300 328.75 294.701171875 319.35234375 294 315.95 284.55 268.7 305.05 226.2 311.5982421875 212.6646484375 321.2 201.3
L 321.2 198.9 321.25 198.35
Q 321.252734375 198.3166015625 321.25 198.25 310.0591796875 207.8962890625 302.25 220.9 299.85 155.75 350.7 112.65
L 351.7 111.8 353.75 116.35
Q 353.8 122.3 357.7 126.5 361.6 130.7 367.15 130.7 398.6 110.8 427.85 88.15 446.8921875 73.3130859375 464.55 57.9 456.9015625 61.602734375 449.75 66.6 448.55 67.4 447.6 68.5 448.8 60.2 444.4 53.2 441 47.75 435.25 45 433.05 43.9 430.8 43.5
L 430.05 43.8
Q 441.85 54.9 445.4 70.7 445.5 71.05 445.55 71.5 403.85 97.85 366.95 130.55
L 365.1 127.65
Q 369.55 127.5 370.7 123.4 371.3 121.25 370.45 119.15 369.9 117.7 368.75 116.6 367.35 115.3 365.3 114.65 363.8 114.25 362.35 114.85 359.8 116 358.5 118.45
L 358.35 118.8
Q 356.2 117.95 354.25 116.75 395.75 84.5 429.3 44.1 403.8 62.9 381.55 86.2 367.35 101 354.1 116.55
L 354.45 112.15 351.85 110.05
Q 335.1 121.05 322.6 136.65 308.85 153.75 302.85 174.95 296.25 198.25 301.7 221.75 293.7 234.25 290.55 248.8 282.85 284.55 291.35 320.35 295.2 336.5 312.7 338.4 331.6 340.8 350.7 340
L 350.4 344.25
Q 357.7 350.1 368.1 350.1 375.45 350.75 383.05 350.25 389.05 349.7 395.05 349.15 395.3 346.2 393.95 343.6 393.1 342 392.05 340.55 391.45 339.75 390.75 339.2 390 338.5 389.2 338 388.3 337.4 387.35 337 385.9 336.25 384.4 335.8 382.05 334.9 379.6 334.3 395.55 334.55 410.95 330.15 424.25 326.35 434.5 317.8 436.95 315.75 439.25 313.55 453.45 300.15 468.1 287.3
L 470.3 288.75 495.85 283.35 513.5 305.05 469.25 339.7
Q 465.87109375 343.2580078125 465.35 348.55
L 508.2 350.3
Q 511.2 339.6 498.8 335.05 488.201953125 331.1294921875 480.75 333.1
L 518.15 307.2 518.3 304.5 503.4 281.2 521.25 277.7 521.45 275.35 511.4 262.95 505.95 256.4 507 255.55
Q 511.7029296875 252.2419921875 516.15 248.7 521 245.15 529.15 237.45 539.25 227.95 544.65 220.85 551.62109375 212.5205078125 557.65 203.35 558.8302734375 201.554296875 559.8 199.75 560.46171875 200.71171875 562 202.25 562.65 202.8 562.95 202.85 563.45 203 563.9 202.55 564.25 202.1 564.1 201.6
L 563.85 201
Q 563.75 200.6 563.7 200.45 563.6 200.1 563.15 199.65 562.45 198.95 561.45 198.2 561.0908203125 197.960546875 560.8 197.8 561.241796875 196.9248046875 561.6 196 562.7681640625 196.886328125 563.45 197.25 565.35 198.35 565.55 198.5 566.3 199.15 566.6 199.3 567.35 199.65 567.8 199.2 568.25 198.75 567.95 198.2 567.85 197.85 567.3 197.3 566.5 196.55 563.1 194.45 562.7306640625 194.2150390625 562.4 194.05 562.49296875 193.83515625 562.55 193.6 562.7025390625 193.6 562.85 193.6 564.45 193.6 565.2 193.75 566.35 194 567.25 194.4
L 568 194.75 568.65 194.8
Q 569.1 194.7 569.25 194.55 570 194.05 569.6 193.1 569.5017578125 192.78046875 569.25 192.45 569.2537109375 192.1259765625 569.05 191.8 568.7521484375 191.442578125 568.3 191.2 568.1935546875 190.794921875 567.95 190.6
L 567.35 190.4
Q 566.071484375 190.1259765625 563.55 190.15 566.5892578125 177.6689453125 559.05 165.85 572.75 156.05 574.35 139.55 576.8 114.45 552.3 104.85 548.7 103.45 545 102.35 551.25 99.95 555.9 95.25
M 501.75 174.15
Q 501.75703125 174.0939453125 501.75 174.05
L 502.45 174.2
Q 501.900390625 174.1875 501.75 174.15
M 397.75 118.55
L 399.15 119.25
Q 400.35 121 399.15 122.6 398.9 122.95 398.6 123.25 398.5 123.4 398.35 123.55
L 395.75 119.6 397.75 118.55
M 364.55 119.2
Q 365.45 119.2 366.1 119.8 366.75 120.45 366.75 121.35 366.75 122.25 366.1 122.85 365.45 123.5 364.55 123.5 363.65 123.5 363 122.85 362.35 122.25 362.35 121.35 362.35 120.45 363 119.8 363.65 119.2 364.55 119.2
M 386.6 127.4
L 388.1 128.75 385.15 130.6 386.6 127.4
M 421 113.45
L 419.35 114.35 417.5 109.65 421 113.45
M 467.5 346.7
L 467.15 347.65
Q 467.25 347.3 467.4 346.95 467.4572265625 346.822265625 467.5 346.7
M 543.85 103.5
Q 544.3 103.1 544.6 102.5 579.865234375 114.96328125 568.4 146.75 567.7400390625 148.651953125 566.9 150.6 562.8 160.1 552.95 163.45
L 550.55 164.05
Q 549.133203125 164.5212890625 547.7 164.9 512.403125 174.626171875 499.4 146.9
L 497.35 141.95
Q 496.310546875 139.0044921875 495.45 135.7 493.1 126.55 499.15 118.8 515.1 100.75 539.15 102.05 541.65 102.2 544.2 102.4
L 499.3 118.95
Q 525.4 120.8 543.85 103.5
M 513.45 169
Q 513.3232421875 169.2419921875 513.2 169.55 512.35 171.3 511.4 172.05 510.55 172.55 510.15 172.9 509.578515625 173.4275390625 509.4 173.95
L 500.65 172.65
Q 500.516015625 172.3306640625 500.3 172.05
L 500.75 171.6 500.7 171.15 499.75 170.35 499.55 168.45
Q 499.5224609375 167.95546875 499.5 167.55
L 499.5 167.45
Q 499.501953125 167.409765625 499.5 167.35 499.5017578125 167.333984375 499.5 167.3
L 499.95 159.95 504.75 164.15
Q 504.754296875 164.48046875 513.45 169
M 515.75 170.4
Q 515.7908203125 170.3822265625 515.8 170.35 515.8162109375 170.298046875 515.8 170.25 515.896875 170.28671875 515.95 170.3 516.437109375 170.1294921875 517.25 170.25
L 520.4 170.55
Q 521.45 170.65 521.85 170.9 521.896484375 170.930078125 521.95 170.95
L 537.7 172.2 525.05 189.05 526.5 179.05 526.4 179
Q 526.405859375 178.9916015625 526.4 178.95
L 526.35 178.05
Q 526.35 177.5 526.2 177.25 525.990234375 176.8904296875 525.7 176.75
L 525.45 176.15 513.45 174.5
Q 513.5791015625 174.1818359375 513.7 173.65 514 172.25 515.1 171.3 515.1931640625 171.2068359375 515.25 171.1 515.3154296875 170.903125 515.5 170.7 515.60546875 170.528515625 515.75 170.4
M 492.4 149.45
L 493.15 151.05 489.05 150.25 492.4 149.45
M 487.1 151.05
Q 491.9 155 494.9 160.35 496.4373046875 163.1646484375 497.2 166.25 497.428515625 167.146484375 497.55 168 497.55 168.17890625 497.55 168.35 497.553125 168.4880859375 497.55 168.6 497.05 171 496.6 173.35 495.6 178.6 492.6 182.95 490.9283203125 185.3673828125 489.25 187.8 488.7734375 187.860546875 488.55 187.95 488.15 188.25 488.15 188.85 488.15 189.0763671875 488.25 189.3 487.20703125 190.8896484375 486.15 192.45 483.7833984375 195.591796875 480.75 198.15
L 483.45 186.7 484.95 182.2
Q 485.3 181.1 485.85 177.85
L 486.45 173.85 486.5 173.85
Q 486.8 173.75 487.55 173.75
L 487.95 173.8 489.35 174.6 489.65 174.9
Q 489.8 175.1 490 175.65 490.2 176.15 490.4 176.35 490.8 176.85 491.45 176.55 492.1 176.3 492.1 175.65
L 492.05 175.25 491.95 175
Q 492.046875 174.988671875 492.15 174.95 492.75 174.65 492.85 173.8 493 172.8 492.35 171.85 491.75 171 490.75 170.6 489.120703125 169.958203125 486.7 170.45 486.83203125 170.169921875 486.95 169.85 486.5 169.2 486 168.6
L 485.95 168.55
Q 483.35 166.15 479.55 166.5 477.25 166.9 474.95 167.35 475.7 159 482.35 154 485.1 153.4 487.1 151.05
M 504 174.55
Q 503.9728515625 174.5228515625 503.95 174.5
L 522.2 178.2 489.05 240.9 471.5 235.45 495.5 192.95 493.55 186
Q 495.85 184.05 497.5 181.65 498.446484375 180.2681640625 498.95 178.75 499.206640625 178.678125 499.5 178.45 500 178.05 500.25 178
L 500.8 177.95 502.45 177.95
Q 503.35 177.95 503.7 177.65 504 177.35 504.2 176.55
L 504.35 175.7
Q 504.35 174.85 504 174.55
M 487.3 194.35
L 488.75 192.3
Q 489.5400390625 192.81796875 490.25 192.25 490.65 192.55 491.25 193.4 491.3486328125 193.51171875 491.45 193.6
L 476.1 218.05
Q 476.6 215.45 477.55 213.1 481.37890625 203.1900390625 487.3 194.35
M 520.95 186.9
L 520.6 188.3
Q 519.3 196.55 513.15 202.4 512.9 202.7 512.6 202.95
L 520.95 186.9
M 551.7 169.15
Q 553.2 168.6 554.7 168.1 564.05 179.7 556.95 193
L 553.3 191.3
Q 556.15 180.8 545 178 541.2 177.1 537.7 177.65 543.85 171.85 551.7 169.15
M 401.05 126.15
L 401.7 126.7 400.2 127.75 399.75 126.95 401.05 126.15
M 481.15 170.7
L 482.3 171.7 483.85 171.6 483.8 172.4
Q 483.63203125 172.733984375 483.4 172.85 482.8 173.05 482.55 173.25 482.25 173.45 482.15 174.2 482.04453125 175.4916015625 481.9 176.8
L 476.7 184.05 481.15 170.7
M 474.2 168.25
L 477.55 168.1 476.8 173.85
Q 476.815625 173.9427734375 476.8 174
L 475.35 179.55 474.7 181.15
Q 473.1 184.9 472.95 187.95 472.914453125 188.466015625 473 188.8
L 468.2 194.35
Q 438.587109375 227.956640625 399.75 263.9
L 392.05 272.15 395.2 261.5
Q 417.3 251.9 425.9 229.5 426.95 226.8 426.7 224.05 455.155859375 204.6234375 471.2 174.2
L 474.2 168.25
M 480.8 183.75
Q 480.7673828125 184.10703125 480.7 184.45
L 478.4 195.5
Q 478.3671875 195.5986328125 478.1 196.75 475.90546875 200.6783203125 473.2 204.35 462.65 218.65 449.95 231.3 419.25 261.75 382.4 290.85 380.9376953125 287.071484375 383.55 281.75 390.393359375 278.0630859375 390.7 277.95 391.1205078125 277.8623046875 391.3 277.5
L 406.3 262.65
Q 423.6984375 245.2201171875 444.4 227.35 469.571484375 205.6189453125 480.8 183.75
M 455.8 232.5
Q 457.8 232.45 459.7 232.95 463.05 233.55 466.35 234.7
L 466.75 236.5
Q 468.6 236.75 470.45 237 471.05 237.15 471.7 237.35 482.1 240.9 491.5 245.5 491.55 245.45 491.6 245.55
L 492.85 245.5 514.85 274.3 472.7 283.45
Q 472.2 282.35 471.7 281.25 471.25 280.15 470.8 279.1 468.2 273.05 468 266.5
L 465.65 266.15 454.45 282.05
Q 454.421484375 282.0646484375 454.4 282.05 453.05 281.1 450.15 279.55 448.0853515625 278.4302734375 446.8 277.6
L 445.9 276.9
Q 445.720703125 276.7560546875 445.45 276.7 443.5953125 275.2431640625 442.5 274.65 440.2 273.75 439.1 273.2 438.1 272.75 435.95 271.35
L 433 269.35
Q 431.3 268.3 429.9 267.25 427.4 265.4 427.15 265.25 425.2 263.95 421.25 262.1 421.00625 261.9830078125 420.75 261.9
L 455.8 232.5
M 473.4 213.75
L 466.6 233.9 461 232.25 465.65 221.55 465 223.25 473.4 213.75
M 440.3 279.75
Q 440.003515625 280.0392578125 440 280.45
L 440 297.05
Q 440.003515625 297.4607421875 440.3 297.75 440.4236328125 297.8765625 440.55 297.95 424.3970703125 331.1771484375 383.3 333.2 381.8998046875 333.3939453125 380.5 333.6 375.784375 333.4248046875 375.3 333.3 367.719921875 331.762109375 366.2 331.55
L 370.7 327.4
Q 398.45 306.5 422.5 281.5 426.2751953125 277.551171875 433.5 273.95
L 435 275.2
Q 435.9 275.95 437.9 277.15 438.3568359375 277.4697265625 440.85 279.45 440.5376953125 279.5064453125 440.3 279.75
M 442 280.9
L 442.95 281.4 443.4 281.3
Q 444.2771484375 281.834375 445.05 282.1 446.06171875 282.4853515625 446.65 282.2
L 454.15 286.9 455.55 286.65 465.3 273.4 468.5 286.25 443.25 302.9 442.7 297.75 441.9 297.4
Q 441.9982421875 297.2552734375 442 297.05
L 442 280.9
M 376.35 334.4
L 376.35 334.45
Q 384.5 336.2 389.1 342.8 389.95 344.05 390.75 345.35 372.4 347.9 354.4 342.55 353.35 332.55 362.75 332.6 373.0466796875 333.33828125 376.35 334.4
M 469.4 345.6
Q 470.9146484375 341.1751953125 473.75 339.15 476.75 338.801953125 479.75 337.6 482.8 336.39375 488.15 335.4 493.55 334.458203125 501.25 339.1 507.8201171875 343.0818359375 505 347.95
L 469.4 345.6
M 518.45 234.75
Q 518.2 234.85 517.4 234.4 516.6 233.9 515.6 234.1 515.75 233.7 515.6 233 515.45 232 515.45 231.65 515.45 231.6 516.85 230.6 519.3 228.8 523.35 225.3
L 523 226
Q 519.3 234.4 518.45 234.75
M 544.5 195.5
L 544.5 195.55
Q 539.85 199.15 537.7 201.6 536.606640625 202.8552734375 534.65 205.7 532.55 211.3 525.95 217.25 518 223.6 514.55 226.5
L 514.45 225.25
Q 514.85 224.25 521.75 204.6 522.4826171875 201.8404296875 523.1 199.05 523.75 196.15 524.35 193.25
L 537.7 179.35
Q 543.1 181.05 547.4 184.3 549.05 185.6 549.35 187.5 549.5 188.3 549.6 189.15 549.691796875 189.7927734375 549.7 190.4 549.4912109375 190.4623046875 549.25 190.55 548.45 190.75 548.1 191.3
L 547.75 191.8 547.3 192.15
Q 545.8669921875 193.1326171875 544.5 195.5
M 548.8 197.8
Q 548.9708984375 197.4796875 549.15 197.15
L 556.15 194.9
Q 554.0056640625 198.54453125 551.75 202.1 547.2853515625 209.144921875 542.4 215.85 538.75 221.1 531.15 230.15 521.65 241.4 514.55 247.85 510.2408203125 252.036328125 505.7 256.05
L 495.65 243.9
Q 502.91640625 242.5712890625 507.75 237.4 509.15 235.75 509.7 235.35 510.25 234.95 511 234.95 511.1 234.95 513.65 237.7 516.4 240.4 517.4 240.4 520.55 240.4 529.8 225.9 534.45 218.6 538.95 210.65 543.3203125 205.70078125 544.8 202.05
L 547.75 201.95
Q 548.651171875 201.2240234375 548.9 200.25 549.1244140625 199.3234375 548.7 198.15 548.6892578125 198.121484375 548.65 198.1
L 548.8 197.8
M 516.7 200.8
Q 517.3 199.95 518.05 199.25 516.07421875 204.923046875 514.55 210.7 513.55 213.55 510.9 225.2 509.2 232.45 506.9 234.05 506.88359375 234.11640625 506.85 234.15 501.5 239.2 495.5 242.75
L 492.7 242.15
Q 502.85 220.35 516.7 200.8
M 536.25 124.1
L 537.2 126
Q 542.5974609375 126.974609375 547.8 125.7 549.5724609375 125.3134765625 551.3 124.65 551.6 124.45 551.7 124.15 551.85 123.9 551.75 123.55
L 546.1 121.95 548.2 118.85
Q 540.75 117.8 536.5 123.55 536.3 123.75 536.25 124.1
M 528.8 130.4
L 529.25 127.25
Q 528.45 126.8 527.7 126.4 527.25 126.3 526.85 126.2 521.6 126.75 516.4 128.7
L 520.15 130.1 516.25 134.45 528.8 130.4
M 539.5 147.05
Q 540 146.8 540.55 146.6 542.61640625 151.05703125 542.25 151.75 541.8943359375 152.49765625 542.55 153.15 544.55625 153.4908203125 543.9 150.95 543.24375 148.4091796875 544.35 146.25
L 551.6 145.6
Q 550.5 147.8 552.05 149.7 552.55 150.25 553.2 150.75 543 155.05 531.9 154.1 529.070703125 150.7048828125 530.15 148.25 529.11953125 150.1642578125 528.25 152.3 536.18515625 159.9228515625 545.8 157.75 546.2748046875 157.6421875 546.75 157.5 552.096484375 156.041796875 557.95 151.6 562.2822265625 148.2994140625 563.3 144.75 564.9802734375 138.89921875 557.45 132.4 553.140234375 132.45078125 549.35 133.3 537.017578125 136.101953125 530.55 147.55 535.45 148.65 539.5 147.05
M 533 147.05
Q 531.5166015625 146.75078125 536.4 142.7
L 539.9 141.2 540.4 144.9
Q 534.5435546875 147.33828125 533 147.05
M 543.95 143.8
L 541.75 140.35 546.9 137.9 553.15 136.8
Q 553.75703125 139.4017578125 551.85 142.35 548.4625 141.675 543.95 143.8
M 555.2 141.65
Q 555.2123046875 140.75 555.4 139.65 555.6333984375 138.6 555.5 138.15
L 556.9 139.9 559.25 144.3 555.95 148.25
Q 553.0931640625 148.40078125 553.95 143.6 554.4 143.3 554.8 142.9 555.195703125 142.6 555.2 141.65
M 460.7 77.55
Q 456.7 77.05 456.3 80.55 453.55 103.65 470.3 92.05
L 467.85 85.85
Q 467.55 89 464.65 90.35 464.4 90.45 464.15 90.55
L 461.3 89.75 468.55 83.9
Q 466.45 78 460.7 77.55
M 459.5 86.55
L 459.35 83.5 460.9 82.45 462.7 84.2 459.5 86.55
M 368.95 107.85
Q 368.1 108.45 367.3 109.1 365.9 110.4 364.45 111.7
L 367.75 115.25 369.8 112.95 377.1 119.65 380.2 116.4 373.55 109.1 375.95 106.85
Q 374.15 105.3 371.85 106.35 370.3 106.95 368.95 107.85
M 389.1 103.15
Q 387.8 101.3 385.4 101.15
L 380.15 103.65 384.6 99.85 382.3 96.5
Q 376.85 98.15 376.25 103.8 375.85 107.75 379.85 108
L 384.85 106.05 380.25 110.15 382.6 113.1
Q 383.35 112.9 384.05 112.6 389.15 110.9 389.9 105.6 389.85 104.3 389.1 103.15
M 393.05 93
L 395.75 90.75 393.6 89.5 383.05 95.45 385.95 99.05 388.5 96.8 394.9 103.5 398.5 100.3 393.05 93
M 419.4 80.85
L 421.25 82.15 425.8 77.8 413.85 70.5 408.7 75.25 412.75 88 407.95 86.6
Q 408.05 86.2 408.15 85.85 408.25 85.45 408.25 85.05 408.25 84.3 408.1 83.6 407.95 82.9 407.6 82.3 407.2 81.55 406.65 80.95 406.5 80.75 406.35 80.65 404.8 80.05 403.05 80.55 399.65 81.45 396.7 83.65 396.2 84.05 395.8 84.55 395.35 85 395 85.55 394.7 86.1 394.45 86.7 394.3 87.05 394.25 87.45
L 402.25 97.5 406.2 94.3 404.05 90.5 408.95 92.1
Q 410.3 90.05 412.2 88.55 412.75 88.05 413.4 87.65 414.1 87.25 414.8 86.85 415.1 86.65 415.4 86.45 416.7 85.55 418 84.7
L 417.3 82.3 419.4 80.85
M 417.3 78.8
L 415.8 79.95 414.5 76.75 417.3 78.8
M 400.3 85.55
L 402.3 84.45 403.8 85.9 402.05 88.6 400.3 85.55
M 428.6 71.5
L 432.9 65.55
Q 432.35 60.2 427.15 61 422.9 61.35 420.25 64.5 418.95 66.05 418.35 67.75
L 426.6 78.45 431.15 75 428.6 71.5
M 426.9 65.25
L 428.15 66.05 426.85 68.95 424.95 66.55 426.9 65.25
M 316.85 277.6
Q 317.65 278.75 318.5 279.9 306.7984375 261.666796875 315.55 241.8 305 259.85 316.85 277.6
M 461.8 148.7
Q 463.1669921875 155.6115234375 463.3 158.45 464.755078125 140.4173828125 446.6 127.3 439.35 122 430.15 122.65 459.75703125 138.05 461.8 148.7
M 353.35 143.55
Q 352.4 143.25 351.45 143
L 349.45 144.7 329.75 227.7 323.25 227.25 378.8 237.7
Q 378.45 260 366.1 278.6 365.45 279.55 364.75 280.45 360.05 285.9 353.25 288.2 340.15 292.5 326.6 290.5 345.3 296.6 362.05 287.3 362.85 286.85 363.6 286.3 368.45 282.75 372 277.75 385.65 258.6 383.55 234.65
L 376.35 232.65 414.9 163.85 415.05 161.9
Q 412.8 160.8 411.15 159.2 407.55 155.8 404.55 151.9 379.65 142.1 353.35 143.55
M 366.5 147.1
Q 367.45 147.2 368.45 147.35 388.3 152.1 407.7 158.9
L 366.5 147.1
M 353.4 148.3
L 409.45 164.25 376.05 232.6 361.55 230.9 360.65 227.05 358.05 228
Q 355.25 222.4 348.85 222.3 344.25 222.5 342 226.35 341.7220703125 226.859375 340.6 228.6
L 329.9 227.75 353.4 148.3
M 350.75 228.9
Q 352.275390625 229.35 352.1 229.8
L 347.7 229.3
Q 348.2814453125 227.9677734375 350.75 228.9
M 365.65 217.3
L 366.6 212.45 350.1 204.55 348.05 210.15
Q 349.6 210.75 351.2 211.35 356.25 213.35 359.3 217.55
L 359.3 217.6
Q 359.15 217.6 359.05 217.65 353.2 217.25 348.8 213.4 348.35 213 347.95 212.6
L 345.6 218.55
Q 357.75 228.05 363.3 217.6 363.5 217.25 363.3 216.65
L 365.65 217.3
M 364.65 193.8
Q 360.85 191.6 356.85 193.2 350.3 195.8 354.8 200.95 367.25 215.3 370.65 198.25
L 365.3 195.65 365.65 200.55 362.7 202.45 364.65 193.8
M 358 197.9
Q 358.45 197.35 359.05 197.35 359.65 197.35 360.05 197.9 360.5 198.5 360.5 199.35 360.5 200.2 360.05 200.75 359.65 201.35 359.05 201.35 358.45 201.35 358 200.75 357.6 200.2 357.6 199.35 357.6 198.5 358 197.9
M 363.25 169.25
L 361.7 175.8
Q 366.35 175 370.85 175.05 374.65 175.1 377.9 176.55 378.5 176.9 379.2 177.2
L 381.45 170.95 374.5 168.65 367.25 159.5 364.7 165.2 369.2 169.2 363.25 169.25
M 361.6 178.05
Q 359.9 178.85 358.75 180.6 356.1 184.5 356.1 189.3
L 372.55 195.75 374.45 190.5 369.45 187.3 375.85 186.9 376.75 181 370.55 182.05
Q 368.45 175.05 361.6 178.05
M 363.2 182.8
Q 363.7 182.65 364.25 182.55 364.5 182.6 364.75 182.7
L 365.95 183.7 365.75 186.85 361.25 185
Q 361.75 183.3 363.2 182.8
M 543.95 43.9
Q 543.15 42.4 542.2 41 527.75 42.15 513.6 47.25 489.69296875 47.0830078125 469.2 55.75 504.5796875 52.127734375 539.55 45.25 550.8 71.3 544.6 99.7 558.55 71.7 543.95 43.9
M 506.65 25.2
Q 508.1 27.45 509.45 29.8 510.7 32.05 511.65 34.45 512.55 36.85 513.25 39.35 514.1 42.3 514 45.55 514 46.1 513.9 46.6 518.7 35.6 511.1 24.85 509.9 23.2 508.9 21.45 469.6 27.8 431.95 43.1 465.05 37.35 497.5 27.95 502.05 26.55 506.65 25.2
M 592.6 115.4
Q 591.05 115.4 587.8 115.7 584.5 115.95 584.6 117.5 584.7 119.05 588.65 122.65 592.6 126.2 595.3 126.2 597.95 126.2 598.85 124.8 599.65 123.55 599.65 120.05 599.65 117.4 598.15 116.4 596.65 115.4 592.6 115.4
M 598.45 120.2
Q 598.45 120.2740234375 598.45 120.35 598.45 124.25 595.6 124.25 592.6 124.25 586.95 117.55 591.3306640625 117.7 593.5 117.7 596.85 117.7 597.9 118.65 598.415234375 119.118359375 598.45 120.2
M 579 95.8
Q 577.89765625 94.0712890625 573.65 95.7 569.4388671875 97.3224609375 566.65 97.75 563.8642578125 98.2203125 564.45 98.75 565.0947265625 99.344140625 568.55 101.65 572.65 104.3 576.35 104.3 578.15 104.3 579.2 102.6 580.15 101.15 580.15 99.1 580.1525390625 97.5943359375 579 95.8
M 569.85 98.1
Q 571.950390625 97.54609375 574.2 96.75 576.448828125 95.96171875 577.8 98 577.8 98.15 578 98.5 578.15 98.9 578.15 99.45 578.15 102.15 576 102.15 573.55 102.1 567.85 98.6
L 569.85 98.1
M 261.95 91.1
Q 261.45 91.5 260.75 91.8 258.586328125 93.07265625 257.8 96.75
L 257.85 100.25
Q 255.55 102.75 253.7 105.25 252.95 106.25 252.2 107.2 251.45 108.15 250.65 109.05 249 110.8 247.3 112.55
L 228.15 130.8
Q 228.7298828125 121.365234375 226.55 112 225.4 107.1 224.15 102.3
L 229.5 97 225.9 97.15 223.45 100.65 222.55 102.25
Q 208.05 104.2 200.35 91.65 197.4 83.25 197.7 74.05 197.7 73.9 197.7 73.75
L 200.35 69.1 199.5 69.95 198.35 70.2 200.35 69.1 200.9 68.25
Q 222.3 53 228.15 74.65 229.18125 78.5875 227.75 82.45 237.5689453125 57.8669921875 210.6 59.5 198.8 60 191.5 69.75 189.55 72.35 186.6 74.2 179.6759765625 41.0638671875 149.2 44.1 166.3875 44.5640625 176.8 58.75
L 167.35 56.2 132 49.05
Q 133.23828125 48.312109375 134.5 47.65 133.141796875 48.265625 131.8 48.95
L 120.05 35
Q 118.35 45.75 129.55 48.8 130.5 49 131.45 49.2 102.55 77.15 132.5 103.8 133.458984375 104.6466796875 134.45 105.4
L 138.8 108.2
Q 147.6294921875 112.9080078125 158.45 111.05 164.2 109.9 169.15 106.85 171.4 110.95 175.2 113.35 176.14375 113.9443359375 177.15 114.45 177.1146484375 114.594140625 177.1 114.75
L 176.75 120.8
Q 176.7447265625 120.9115234375 176.75 121
L 170.35 121.75
Q 169.9615234375 120.6505859375 168.95 118.8 164.84921875 111.052734375 163.35 110.2
L 165.8 122.35
Q 162.5794921875 123.284375 160.3 123.7
L 148.45 127.65 147.8 128.6 148.05 131.35 123.55 159.9 128.95 138.6
Q 131.5716796875 128.22265625 132.3 121.1 133.6193359375 108.66171875 129.2 106.15 128.6 105.8 128 105.4 120.5181640625 99.740625 110.75 98.8 115.455859375 103.65859375 121.2 106.6 130.7908203125 109.8294921875 130.9 117.8
L 130.85 117.8
Q 130.350390625 119.44921875 129.8 121.1 122.0404296875 146.0751953125 116.35 171.6
L 119.1 172.9 148.3 132.15 160.3 173
Q 160.7 174 161.15 175 165.7 184.6 162.1 194.4
L 150.15 231.7 151.65 233.5 161.05 233.5
Q 153.968359375 250.0421875 149.5 266.75 151.9255859375 283.516796875 157 300.45 159.6126953125 309.177734375 163.85 317.95 152.3 307.85 138 313.8 136.25 314.5 134.7 315.55 133.95 316.05 133.25 316.6 126.5 321.9 130.3 328.65
L 168.55 326.7
Q 168.6 326 168.55 325.35 168.25 320.7 167.2 321.05 163.662109375 309.953515625 161.4 300.45 156.829296875 281.0369140625 155.95 268 157.965625 262.721484375 159.3 258.4 165.831640625 237.9302734375 170.35 234.35
L 177.85 234.35 181.25 224.2 189.25 235.1 201.25 232.9 210.4 262.45
Q 201.25703125 277.81484375 189.35 300.45 184.691015625 309.3283203125 179.6 319.3 177.398828125 321.5501953125 176.7 324.8 176.55 325.45 176.45 326.15
L 177.45 327.4 215.6 328
Q 218.6 321.9 212.95 317 205.45 310.7 195.55 311.8 187.7 312.7 181.75 317.6
L 215.2 263.05 209.1 231.4 215.25 229.1 216.1 227.6 204.45 193.7
Q 215.95 202.6 224.85 192.35 225.25 191.9 225.5 191.35 229.05 183.45 227.8 174.5 225.35859375 156.5810546875 227.3 138.45 233.4853515625 132.13046875 239.55 126.35 241 124.95 242.5 123.55 246.85 119.3 250.95 114.75
L 259.15 103.5
Q 259.2 102.75 259.35 102.1 259.95 99.15 261.6 96.75 264.03984375 93.9533203125 268.9 92.35 274.55 89.3 279.3 84.55 269.5 85.45 261.95 91.1
M 187.85 77.35
L 193.1 75.95
Q 191.6 92.95 205.6 102.75 207.5 104.1 209.35 105.5 189.4 111.45 172.8 105.6 171.5 105.05 173.75 103.6 182.45 97.6 184.35 87.3
L 171.85 104.3 187.85 77.35
M 162.4 59.65
Q 164.492578125 59.69453125 166.6 59.75 166.887109375 59.7890625 167.15 59.8
L 177.15 59.05
Q 178.11875 61.3892578125 178.85 63.6 188.4873046875 92.6619140625 159.5 103.75 159.080078125 103.9419921875 158.65 104.1 144.9 109.15 133.45 100.05 111.25 82.5 125.6 57.1 128.1 52.65 131.8 49.2 141.9490234375 55.8818359375 153.4 58.35 157.8048828125 59.316796875 162.4 59.65
M 133.95 323.65
Q 135.7 321.75 137.65 320.05 150.1 309.8 165.2 321.65
L 133.95 323.65
M 210.95 322
Q 211.15 322.25 211.25 322.6
L 178.9 324.8
Q 182 313.5 195 314.6 204.8 314.75 210.95 322
M 165.2 190.4
L 179.6 187.6
Q 180.901953125 187.4189453125 182.35 187.15 190.139453125 185.8939453125 192.8 185.55 193.2998046875 185.3939453125 193.8 185.25
L 193.85 185.4
Q 194.241796875 185.393359375 194.15 185.45
L 195.95 184.95
Q 201.035546875 194.8845703125 210.6 225.35
L 191.45 230 181.05 216.2 178.8 216.7 174.95 230.15 154.2 229.85 165.2 190.4
M 177.7 122.8
L 180.7 122.35
Q 171.444140625 131.59453125 178.15 143.7 178.90546875 145.0125 179.5 146.05
L 179.2 145.55
Q 180.779296875 148.5775390625 180.9 149 182 152.95 184.4 156.35 186.6 159.4 188.1 162.75 192.25 172.15 192.95 182.7
L 166.25 187.75 162.15 173 152.9 130.85 165.65 126.2 165.65 126.2
Q 165.8349609375 126.1857421875 166.05 126.15 166.5 126 167 126
L 168.4 126
Q 168.3701171875 125.925 168.35 125.85
L 177.7 122.8
M 191.05 119.25
L 191.1 119.25 193.95 119.25 186.85 125.55 186.45 129.85
Q 186.3267578125 138.1888671875 185.65 142.3 188.66953125 152.7681640625 196.35 160.4 196.396484375 160.74296875 196.5 160.95 196.9517578125 161.6275390625 197.5 161.5 199.2541015625 163.1306640625 201.2 164.6 201.2533203125 164.6337890625 201.3 164.65 201.27265625 164.8890625 202.95 165.6
L 198 167.3 191.4 159.95
Q 189.6 155.7 186.7 152.05 184.830078125 149.696484375 182.75 147.55 181.883203125 146.18984375 180.2 143.75
L 180 142.15
Q 178 130.3 187.6 122.45 188.1 122.05 188.45 121.5
L 191.05 119.25
M 206.7 107.2
Q 208.3 106.4 209.85 105.65 216 109.1 222.05 104.15 222.65 103.6 223.4 103.2 224.07265625 117.677734375 223.8 132
L 213.25 130.15 196.8 127.25
Q 196.80625 127.146484375 196.8 127 196.8 123.15 198.15 120.35 198.458984375 119.7400390625 198.3 117.8 198.3076171875 117.7734375 198.3 117.75 197.959765625 117.7609375 197.55 117.75 194.957421875 117.8650390625 194.35 116.9 193.7474609375 115.994921875 191.2 117.45 190.8396484375 117.6734375 190.45 117.9 184.513671875 118.815625 178.75 120.55
L 179.1 114.9
Q 179.1044921875 114.8494140625 179.1 114.75 193.6005859375 113.62890625 206.7 107.2
M 213.6 137
L 223.65 138.65
Q 222.739453125 165.7322265625 218.5 192.35 218.1 194.75 214.95 195.3 211.75 195.7 209 194.55
L 204 192.4 199.85 181.75 193.85 182.5 197.3 169.2 203.9 167.3
Q 203.1771484375 165.37265625 203.25 165.05 203.01640625 164.3453125 202.9 164.25 202.155859375 163.5369140625 201.5 163.8 199.7587890625 161.667578125 198.3 159.45
L 198.35 146.05
Q 198.35 142.15 198.15 140.2 198.1 139.4 197.6 135.65 197.513671875 134.991015625 197.4 134.35
L 213.6 137
M 194.7 126.9
L 192.65 126.55 194.65 124.85
Q 194.6 125.35 194.6 125.85 194.620703125 126.0033203125 194.65 126.15
L 194.7 126.9
M 195.5 134
L 195.65 135.55
Q 195.95 138.65 195.95 138.75 196.35 143 196.35 149.15 196.35 151.71015625 196.3 156.15 190.6064453125 145.66328125 190.8 133.25
L 195.5 134
M 203.9 166.7
L 203.7 166.45
Q 203.79296875 166.8373046875 203.9 167.3
L 203.9 166.7
M 148.65 67.15
Q 148.65 69.55 149.85 71.25 151.05 72.95 152.75 72.95 154.45 72.95 155.65 71.25 156.72265625 69.73046875 156.8 67.65 156.85 67.4048828125 156.85 67.15 156.85 64.75 155.65 63.05 154.45 61.35 152.75 61.35 151.05 61.35 149.85 63.05 148.65 64.75 148.65 67.15
M 170.2 66.4
Q 169.915625 65.50390625 169.3 64.75 168.15 63.25 166.5 63.25 164.85 63.25 163.65 64.75 162.5 66.25 162.5 68.4 162.5 70.55 163.65 72.05 164.85 73.55 166.5 73.55 168.15 73.55 169.3 72.05 170.5 70.55 170.5 68.4 170.5 67.3306640625 170.2 66.4
M 167.7 87.55
Q 167.7 86.5 167.65 85.45
L 156.2 98.25
Q 151.35 97.75 147.95 94.45 147.9 97.95 151 100.55 153.2 102.45 156.1 102.95 157.1755859375 102.708984375 158.15 102.35 158.4908203125 102.2603515625 158.8 102.1 167.7 98.7486328125 167.7 87.55
M 201.2 90.1
Q 201.4 90.55 201.6 91.05 208.8 99.75 219.85 98.4 221.25 98.2 222.65 98 228.1 96.4 229.1 91 229.2 90.5 229.3 90
L 226.55 87.55
Q 224.9 100.8 210 89.55 209.919921875 89.490625 209.85 89.4 218.58359375 93.863671875 224.2 85.2
L 224.15 85.15 223.9 85.2
Q 223.9 85.15 224.05 85.1
L 224.4 82.35 224.25 82.3 223.05 83 222.75 83.1 220.65 84 222.35 82.25 222.5 82.05 223 81.45
Q 224.95 60.9 203.15 69.1 202.7 69.3 202.25 69.65 196.1 79.5 201.2 90.1
M 209.6 72.85
Q 213.95 69.65 218 73.3 223.5 78.35 217.75 81.65
L 214.45 75.4 206.95 76.7 213.3 76.8 216.75 84.5 218.9 84.65 209.1 88.85
Q 198.9390625 80.677734375 209.6 72.85
M 227.1 85.2
L 224.65 85.7 223.05 87.75 225.95 87.1 227.1 85.2
M 527.65 302.15
Q 531.4517578125 306 529.8 308.5 528.1482421875 311 527.65 311.95 534.65 311.5 532.1 304.8 530.95 301.8 527.65 302.15
M 541.05 307.35
Q 540.842578125 313.25 536.15 320.4 542.05 317.05 543.5 310.35 545.4 301.35 538.6 296.85 541.257421875 301.5 541.05 307.35
M 575.05 191
Q 571.688671875 196.408984375 571.15 197.8 578.4 195.75 579.45 185.05 580.05 178.8 575.6 174.3 578.411328125 185.591015625 575.05 191
M 591.4 164.3
Q 598.3919921875 182.7 592.1 192.95 585.8580078125 203.2 584 206.7 597.75 197.05 597.25 179.7 597 171.1 591.4 164.3 Z"/>

<path fill="#6B9B37" stroke="none" d="
M 549.15 197.15
Q 548.9708984375 197.4796875 548.8 197.8
L 548.65 198.1
Q 548.6892578125 198.121484375 548.7 198.15 549.1244140625 199.3234375 548.9 200.25 548.651171875 201.2240234375 547.75 201.95
L 544.8 202.05
Q 543.3203125 205.70078125 538.95 210.65 534.45 218.6 529.8 225.9 520.55 240.4 517.4 240.4 516.4 240.4 513.65 237.7 511.1 234.95 511 234.95 510.25 234.95 509.7 235.35 509.15 235.75 507.75 237.4 502.91640625 242.5712890625 495.65 243.9
L 505.7 256.05
Q 510.2408203125 252.036328125 514.55 247.85 521.65 241.4 531.15 230.15 538.75 221.1 542.4 215.85 547.2853515625 209.144921875 551.75 202.1 554.0056640625 198.54453125 556.15 194.9
L 549.15 197.15
M 517.4 234.4
Q 518.2 234.85 518.45 234.75 519.3 234.4 523 226
L 523.35 225.3
Q 519.3 228.8 516.85 230.6 515.45 231.6 515.45 231.65 515.45 232 515.6 233 515.75 233.7 515.6 234.1 516.6 233.9 517.4 234.4
M 442.95 281.4
L 442 280.9 442 297.05
Q 441.9982421875 297.2552734375 441.9 297.4
L 442.7 297.75 443.25 302.9 468.5 286.25 465.3 273.4 455.55 286.65 454.15 286.9 446.65 282.2
Q 446.06171875 282.4853515625 445.05 282.1 444.2771484375 281.834375 443.4 281.3
L 442.95 281.4
M 440 280.45
Q 440.003515625 280.0392578125 440.3 279.75 440.5376953125 279.5064453125 440.85 279.45 438.3568359375 277.4697265625 437.9 277.15 435.9 275.95 435 275.2
L 433.5 273.95
Q 426.2751953125 277.551171875 422.5 281.5 398.45 306.5 370.7 327.4
L 366.2 331.55
Q 367.719921875 331.762109375 375.3 333.3 375.784375 333.4248046875 380.5 333.6 381.8998046875 333.3939453125 383.3 333.2 424.3970703125 331.1771484375 440.55 297.95 440.4236328125 297.8765625 440.3 297.75 440.003515625 297.4607421875 440 297.05
L 440 280.45
M 480.7 184.45
Q 480.7673828125 184.10703125 480.8 183.75 469.571484375 205.6189453125 444.4 227.35 423.6984375 245.2201171875 406.3 262.65
L 391.3 277.5
Q 391.1205078125 277.8623046875 390.7 277.95 390.393359375 278.0630859375 383.55 281.75 380.9376953125 287.071484375 382.4 290.85 419.25 261.75 449.95 231.3 462.65 218.65 473.2 204.35 475.90546875 200.6783203125 478.1 196.75 478.3671875 195.5986328125 478.4 195.5
L 480.7 184.45
M 477.55 168.1
L 474.2 168.25 471.2 174.2
Q 455.155859375 204.6234375 426.7 224.05 426.95 226.8 425.9 229.5 417.3 251.9 395.2 261.5
L 392.05 272.15 399.75 263.9
Q 438.587109375 227.956640625 468.2 194.35
L 473 188.8
Q 472.914453125 188.466015625 472.95 187.95 473.1 184.9 474.7 181.15
L 475.35 179.55 476.8 174
Q 476.815625 173.9427734375 476.8 173.85
L 477.55 168.1
M 554.7 168.1
Q 553.2 168.6 551.7 169.15 543.85 171.85 537.7 177.65 541.2 177.1 545 178 556.15 180.8 553.3 191.3
L 556.95 193
Q 564.05 179.7 554.7 168.1
M 520.6 188.3
L 520.95 186.9 512.6 202.95
Q 512.9 202.7 513.15 202.4 519.3 196.55 520.6 188.3
M 494.9 160.35
Q 491.9 155 487.1 151.05 485.1 153.4 482.35 154 475.7 159 474.95 167.35 477.25 166.9 479.55 166.5 483.35 166.15 485.95 168.55
L 486 168.6
Q 486.5 169.2 486.95 169.85 486.83203125 170.169921875 486.7 170.45 489.120703125 169.958203125 490.75 170.6 491.75 171 492.35 171.85 493 172.8 492.85 173.8 492.75 174.65 492.15 174.95 492.046875 174.988671875 491.95 175
L 492.05 175.25 492.1 175.65
Q 492.1 176.3 491.45 176.55 490.8 176.85 490.4 176.35 490.2 176.15 490 175.65 489.8 175.1 489.65 174.9
L 489.35 174.6 487.95 173.8 487.55 173.75
Q 486.8 173.75 486.5 173.85
L 486.45 173.85 485.85 177.85
Q 485.3 181.1 484.95 182.2
L 483.45 186.7 480.75 198.15
Q 483.7833984375 195.591796875 486.15 192.45 487.20703125 190.8896484375 488.25 189.3 488.15 189.0763671875 488.15 188.85 488.15 188.25 488.55 187.95 488.7734375 187.860546875 489.25 187.8 490.9283203125 185.3673828125 492.6 182.95 495.6 178.6 496.6 173.35 497.05 171 497.55 168.6 497.553125 168.4880859375 497.55 168.35 497.55 168.17890625 497.55 168 497.428515625 167.146484375 497.2 166.25 496.4373046875 163.1646484375 494.9 160.35
M 493.15 151.05
L 492.4 149.45 489.05 150.25 493.15 151.05
M 515.8 170.35
Q 515.7908203125 170.3822265625 515.75 170.4 515.60546875 170.528515625 515.5 170.7 515.3154296875 170.903125 515.25 171.1 515.1931640625 171.2068359375 515.1 171.3 514 172.25 513.7 173.65 513.5791015625 174.1818359375 513.45 174.5
L 525.45 176.15 525.7 176.75
Q 525.990234375 176.8904296875 526.2 177.25 526.35 177.5 526.35 178.05
L 526.4 178.95
Q 526.405859375 178.9916015625 526.4 179
L 526.5 179.05 525.05 189.05 537.7 172.2 521.95 170.95
Q 521.896484375 170.930078125 521.85 170.9 521.45 170.65 520.4 170.55
L 517.25 170.25
Q 516.437109375 170.1294921875 515.95 170.3 515.896875 170.28671875 515.8 170.25 515.8162109375 170.298046875 515.8 170.35
M 513.2 169.55
Q 513.3232421875 169.2419921875 513.45 169 504.754296875 164.48046875 504.75 164.15
L 499.95 159.95 499.5 167.3
Q 499.5017578125 167.333984375 499.5 167.35 499.501953125 167.409765625 499.5 167.45
L 499.5 167.55
Q 499.5224609375 167.95546875 499.55 168.45
L 499.75 170.35 500.7 171.15 500.75 171.6 500.3 172.05
Q 500.516015625 172.3306640625 500.65 172.65
L 509.4 173.95
Q 509.578515625 173.4275390625 510.15 172.9 510.55 172.55 511.4 172.05 512.35 171.3 513.2 169.55
M 418.5 264.9
Q 418.152734375 264.6876953125 417.9 264.5 404.330859375 283.40703125 383.85 293.4 383.2 294.85 382.7 296.35 377.5 311.95 368.35 325.8
L 364.3 331.05
Q 364.7435546875 331.162890625 365.2 331.3
L 369.6 326.55
Q 398.7810546875 298.6962890625 427.2 270.05
L 418.5 264.9
M 197.4 134.35
Q 197.513671875 134.991015625 197.6 135.65 198.1 139.4 198.15 140.2 198.35 142.15 198.35 146.05
L 198.3 159.45
Q 199.7587890625 161.667578125 201.5 163.8 202.155859375 163.5369140625 202.9 164.25 203.01640625 164.3453125 203.25 165.05 203.1771484375 165.37265625 203.9 167.3 203.79296875 166.8373046875 203.7 166.45
L 203.9 166.7 203.9 167.3 197.3 169.2 193.85 182.5 199.85 181.75 204 192.4 209 194.55
Q 209.55 182.85 211.4 171.3 214.1796875 154.22890625 213.6 137
L 197.4 134.35
M 209.85 105.65
Q 208.3 106.4 206.7 107.2 193.6005859375 113.62890625 179.1 114.75 179.1044921875 114.8494140625 179.1 114.9
L 178.75 120.55
Q 184.513671875 118.815625 190.45 117.9 190.8396484375 117.6734375 191.2 117.45 193.7474609375 115.994921875 194.35 116.9 194.957421875 117.8650390625 197.55 117.75 197.959765625 117.7609375 198.3 117.75 198.3076171875 117.7734375 198.3 117.8 198.458984375 119.7400390625 198.15 120.35 196.8 123.15 196.8 127 196.80625 127.146484375 196.8 127.25
L 213.25 130.15
Q 212.4111328125 117.949609375 209.85 105.65
M 209.85 89.4
Q 209.919921875 89.490625 210 89.55 224.9 100.8 226.55 87.55
L 225.95 87.1 223.05 87.75 224.65 85.7 224.2 85.2
Q 218.58359375 93.863671875 209.85 89.4
M 218 73.3
Q 213.95 69.65 209.6 72.85 198.9390625 80.677734375 209.1 88.85
L 218.9 84.65 216.75 84.5 213.3 76.8 206.95 76.7 214.45 75.4 217.75 81.65
Q 223.5 78.35 218 73.3
M 224.15 85.15
L 224.05 85.1
Q 223.9 85.15 223.9 85.2
L 224.15 85.15
M 222.35 82.25
L 220.65 84 222.75 83.1 222.35 82.25
M 201.6 91.05
L 200.35 91.65
Q 208.05 104.2 222.55 102.25
L 223.45 100.65 222.65 98
Q 221.25 98.2 219.85 98.4 208.8 99.75 201.6 91.05
M 200.9 68.25
L 202.25 69.65
Q 202.7 69.3 203.15 69.1 224.95 60.9 223 81.45
L 224.25 82.3 224.4 82.35 227.55 83
Q 227.65625 82.740625 227.75 82.45 229.18125 78.5875 228.15 74.65 222.3 53 200.9 68.25 Z"/>

<path fill="#EF5350" stroke="none" d="
M 473.75 339.15
Q 470.9146484375 341.1751953125 469.4 345.6
L 505 347.95
Q 507.8201171875 343.0818359375 501.25 339.1 493.55 334.458203125 488.15 335.4 482.8 336.39375 479.75 337.6 476.75 338.801953125 473.75 339.15
M 376.35 334.45
L 376.35 334.4
Q 373.0466796875 333.33828125 362.75 332.6 353.35 332.55 354.4 342.55 372.4 347.9 390.75 345.35 389.95 344.05 389.1 342.8 384.5 336.2 376.35 334.45
M 466.6 233.9
L 473.4 213.75 465 223.25 465.65 221.55 461 232.25 466.6 233.9
M 482.3 171.7
L 481.15 170.7 476.7 184.05 481.9 176.8
Q 482.04453125 175.4916015625 482.15 174.2 482.25 173.45 482.55 173.25 482.8 173.05 483.4 172.85 483.63203125 172.733984375 483.8 172.4
L 483.85 171.6 482.3 171.7
M 488.75 192.3
L 487.3 194.35
Q 481.37890625 203.1900390625 477.55 213.1 476.6 215.45 476.1 218.05
L 491.45 193.6
Q 491.3486328125 193.51171875 491.25 193.4 490.65 192.55 490.25 192.25 489.5400390625 192.81796875 488.75 192.3
M 503.95 174.5
Q 503.9728515625 174.5228515625 504 174.55 504.35 174.85 504.35 175.7
L 504.2 176.55
Q 504 177.35 503.7 177.65 503.35 177.95 502.45 177.95
L 500.8 177.95 500.25 178
Q 500 178.05 499.5 178.45 499.206640625 178.678125 498.95 178.75 498.446484375 180.2681640625 497.5 181.65 495.85 184.05 493.55 186
L 495.5 192.95 471.5 235.45 489.05 240.9 522.2 178.2 503.95 174.5
M 467.15 347.65
L 467.5 346.7
Q 467.4572265625 346.822265625 467.4 346.95 467.25 347.3 467.15 347.65
M 501.75 174.05
Q 501.75703125 174.0939453125 501.75 174.15 501.900390625 174.1875 502.45 174.2
L 501.75 174.05
M 179.6 187.6
L 165.2 190.4 154.2 229.85 174.95 230.15 178.8 216.7 181.05 216.2 191.45 230 210.6 225.35
Q 201.035546875 194.8845703125 195.95 184.95
L 194.15 185.45
Q 194.241796875 185.393359375 193.85 185.4
L 193.8 185.25
Q 193.2998046875 185.3939453125 192.8 185.55 190.139453125 185.8939453125 182.35 187.15 180.901953125 187.4189453125 179.6 187.6 Z"/>

<path fill="#90CAF9" stroke="none" d="
M 459.7 232.95
Q 457.8 232.45 455.8 232.5
L 420.75 261.9
Q 421.00625 261.9830078125 421.25 262.1 425.2 263.95 427.15 265.25 427.4 265.4 429.9 267.25 431.3 268.3 433 269.35
L 435.95 271.35
Q 438.1 272.75 439.1 273.2 440.2 273.75 442.5 274.65 443.5953125 275.2431640625 445.45 276.7 445.720703125 276.7560546875 445.9 276.9
L 446.8 277.6
Q 448.0853515625 278.4302734375 450.15 279.55 453.05 281.1 454.4 282.05 454.421484375 282.0646484375 454.45 282.05
L 465.65 266.15 468 266.5
Q 468.2 273.05 470.8 279.1 471.25 280.15 471.7 281.25 472.2 282.35 472.7 283.45
L 514.85 274.3 492.85 245.5 491.6 245.55
Q 491.55 245.45 491.5 245.5 482.1 240.9 471.7 237.35 471.05 237.15 470.45 237 468.6 236.75 466.75 236.5
L 466.35 234.7
Q 463.05 233.55 459.7 232.95
M 544.2 102.4
Q 541.65 102.2 539.15 102.05 515.1 100.75 499.15 118.8
L 499.3 118.95 544.2 102.4
M 195.65 135.55
L 195.5 134 190.8 133.25
Q 190.6064453125 145.66328125 196.3 156.15 196.35 151.71015625 196.35 149.15 196.35 143 195.95 138.75 195.95 138.65 195.65 135.55
M 192.65 126.55
L 194.7 126.9 194.65 126.15
Q 194.620703125 126.0033203125 194.6 125.85 194.6 125.35 194.65 124.85
L 192.65 126.55
M 180.7 122.35
L 177.7 122.8 168.35 125.85
Q 168.3701171875 125.925 168.4 126
L 167 126
Q 166.5 126 166.05 126.15 165.8349609375 126.1857421875 165.65 126.2
L 165.65 126.2 152.9 130.85 162.15 173 166.25 187.75 192.95 182.7
Q 192.25 172.15 188.1 162.75 186.6 159.4 184.4 156.35 182 152.95 180.9 149 180.779296875 148.5775390625 179.2 145.55
L 179.5 146.05
Q 178.90546875 145.0125 178.15 143.7 171.444140625 131.59453125 180.7 122.35
M 211.25 322.6
Q 211.15 322.25 210.95 322 204.8 314.75 195 314.6 182 313.5 178.9 324.8
L 211.25 322.6
M 137.65 320.05
Q 135.7 321.75 133.95 323.65
L 165.2 321.65
Q 150.1 309.8 137.65 320.05 Z"/>

<path fill="#9575CD" stroke="none" d="
M 401.7 126.7
L 401.05 126.15 399.75 126.95 400.2 127.75 401.7 126.7
M 419.35 114.35
L 421 113.45 417.5 109.65 419.35 114.35
M 388.1 128.75
L 386.6 127.4 385.15 130.6 388.1 128.75
M 399.15 119.25
L 397.75 118.55 395.75 119.6 398.35 123.55
Q 398.5 123.4 398.6 123.25 398.9 122.95 399.15 122.6 400.35 121 399.15 119.25
M 441.05 94.05
L 437.85 89.05 449.4 83.2
Q 449.8 83.75 450.2 84.3 450.85 85.15 451.5 86.05 451.65 86.35 451.7 86.75 451.8 87.75 451.75 88.75 451.65 90.15 451.5 91.6 451.4 92.45 451.3 93.3 451.15 94.3 451.05 95.3 450.9 96.4 450.75 97.5
L 455.6 94.55 458.7 100 449.4 105.1
Q 461 102.55 472.5 101.3 478.95 100.85 485.4 100.45 485 98.4 484.5 96.45 480.55 81.2 473.45 67.15 470.675 61.6939453125 467.05 56.7 466.83125 56.411328125 466.6 56.1 465.57734375 56.998828125 464.55 57.9 446.8921875 73.3130859375 427.85 88.15 398.6 110.8 367.15 130.7
L 368.8 131.3
Q 370.3 131.85 371.85 132.35 372.012890625 132.4130859375 372.15 132.45 372.4755859375 132.151953125 373.7 131.8 374.65 131.35 375.7 131.1 378.2896484375 130.2533203125 380.45 134.35 381.0283203125 134.433984375 381.55 134.5 381.1359375 133.80078125 381.05 133.8 378.8 129.4 382.3 124.9 384.15 122.45 387.3 122.75 388.6 122.65 389.9 123.45 390.95 124.05 391.55 124.9 391.75 125.15 391.9 125.45 392.3 126.1 392.6 126.85 392.9 127.5 393.2 128.2
L 387.7 133.9 388.8 133.85 392.55 129.9 393.7 132.55 395.9 130.9 389.75 119.75
Q 391.45 116.75 394.35 114.85 397.35 112.95 400.75 114.1 402.55 114.6 403.8 115.9 405 117.15 405.1 118.85 405.1 119.35 405.05 119.9 405 120.65 404.85 121.35 404.65 122.2 404.4 123.05
L 405.85 123.9 408.6 122.2 401.35 111.6 406.45 107.9 413.35 119.4 415 118.4 410.5 105.45 416.05 101.5 427.65 112.35 428.95 111.85 420.65 98.55 426.45 95.15 432.95 107.1 437.5 104.55 439.3 108.2 440.5 107.75 431.25 93.55 437.25 89.65 445.9 105.9 448.05 105.4 445.8 102.4 446.85 90.1 441.05 94.05
M 456.3 80.55
Q 456.7 77.05 460.7 77.55 466.45 78 468.55 83.9
L 461.3 89.75 464.15 90.55
Q 464.4 90.45 464.65 90.35 467.55 89 467.85 85.85
L 470.3 92.05
Q 453.55 103.65 456.3 80.55
M 459.35 83.5
L 459.5 86.55 462.7 84.2 460.9 82.45 459.35 83.5 Z"/>

<path fill="#F2F1F5" stroke="none" d="
M 552.95 163.45
Q 562.8 160.1 566.9 150.6 567.7400390625 148.651953125 568.4 146.75
L 563.3 144.75
Q 562.2822265625 148.2994140625 557.95 151.6 552.096484375 156.041796875 546.75 157.5 546.2748046875 157.6421875 545.8 157.75
L 546.6 160.85 547.7 160.3 552.95 163.45
M 547.7 164.9
Q 549.133203125 164.5212890625 550.55 164.05
L 546.75 161.4 547.7 164.9
M 536.4 142.7
Q 531.5166015625 146.75078125 533 147.05 534.5435546875 147.33828125 540.4 144.9
L 539.9 141.2 536.4 142.7
M 530.55 147.55
Q 530.5107421875 147.611328125 530.45 147.65 530.309375 147.953515625 530.15 148.25 529.070703125 150.7048828125 531.9 154.1 543 155.05 553.2 150.75 552.55 150.25 552.05 149.7 550.5 147.8 551.6 145.6
L 544.35 146.25
Q 543.24375 148.4091796875 543.9 150.95 544.55625 153.4908203125 542.55 153.15 541.8943359375 152.49765625 542.25 151.75 542.61640625 151.05703125 540.55 146.6 540 146.8 539.5 147.05 535.45 148.65 530.55 147.55
M 511.4 262.95
L 507 255.55 505.95 256.4 511.4 262.95 Z"/>

<path fill="#FFFFFF" stroke="none" d="
M 544.6 102.5
Q 544.3 103.1 543.85 103.5 525.4 120.8 499.3 118.95
L 499.15 118.8
Q 493.1 126.55 495.45 135.7 496.310546875 139.0044921875 497.35 141.95
L 499.4 146.9
Q 512.403125 174.626171875 547.7 164.9
L 546.75 161.4 546.3 161.05 546.6 160.85 545.8 157.75
Q 536.18515625 159.9228515625 528.25 152.3 529.11953125 150.1642578125 530.15 148.25 530.309375 147.953515625 530.45 147.65 530.5107421875 147.611328125 530.55 147.55 537.017578125 136.101953125 549.35 133.3 553.140234375 132.45078125 557.45 132.4 564.9802734375 138.89921875 563.3 144.75
L 568.4 146.75
Q 579.865234375 114.96328125 544.6 102.5
M 529.25 127.25
L 528.8 130.4 516.25 134.45 520.15 130.1 516.4 128.7
Q 521.6 126.75 526.85 126.2 527.25 126.3 527.7 126.4 528.45 126.8 529.25 127.25
M 537.2 126
L 536.25 124.1
Q 536.3 123.75 536.5 123.55 540.75 117.8 548.2 118.85
L 546.1 121.95 551.75 123.55
Q 551.85 123.9 551.7 124.15 551.6 124.45 551.3 124.65 549.5724609375 125.3134765625 547.8 125.7 542.5974609375 126.974609375 537.2 126
M 541.75 140.35
L 543.95 143.8
Q 548.4625 141.675 551.85 142.35 553.75703125 139.4017578125 553.15 136.8
L 546.9 137.9 541.75 140.35
M 598.45 120.35
Q 598.45 120.2740234375 598.45 120.2 598.415234375 119.118359375 597.9 118.65 596.85 117.7 593.5 117.7 591.3306640625 117.7 586.95 117.55 592.6779296875 123.9 595.6 123.9 598.31875 123.9 598.45 120.35
M 574.2 96.75
Q 571.950390625 97.54609375 569.85 98.1
L 567.85 98.6
Q 573.55 102.1 576 102.15 578.15 102.15 578.15 99.45 578.15 98.9 578 98.5 577.8 98.15 577.8 98 576.448828125 95.96171875 574.2 96.75
M 166.6 59.75
Q 164.492578125 59.69453125 162.4 59.65 157.8048828125 59.316796875 153.4 58.35 141.9490234375 55.8818359375 131.8 49.2 128.1 52.65 125.6 57.1 111.25 82.5 133.45 100.05 144.9 109.15 158.65 104.1
L 158.15 102.35
Q 157.1755859375 102.708984375 156.1 102.95 153.2 102.45 151 100.55 147.9 97.95 147.95 94.45 151.35 97.75 156.2 98.25
L 167.65 85.45
Q 167.7 86.5 167.7 87.55 167.7 98.7486328125 158.8 102.1
L 159.5 103.75
Q 188.4873046875 92.6619140625 178.85 63.6 178.11875 61.3892578125 177.15 59.05
L 167.15 59.8
Q 166.887109375 59.7890625 166.6 59.75
M 169.3 64.75
Q 169.915625 65.50390625 170.2 66.4 170.5 67.3306640625 170.5 68.4 170.5 70.55 169.3 72.05 168.15 73.55 166.5 73.55 164.85 73.55 163.65 72.05 162.5 70.55 162.5 68.4 162.5 66.25 163.65 64.75 164.85 63.25 166.5 63.25 168.15 63.25 169.3 64.75
M 149.85 71.25
Q 148.65 69.55 148.65 67.15 148.65 64.75 149.85 63.05 151.05 61.35 152.75 61.35 154.45 61.35 155.65 63.05 156.85 64.75 156.85 67.15 156.85 67.4048828125 156.8 67.65 156.72265625 69.73046875 155.65 71.25 154.45 72.95 152.75 72.95 151.05 72.95 149.85 71.25 Z"/>

<path fill="#666666" stroke="none" d="
M 555.4 139.65
Q 555.2123046875 140.75 555.2 141.65 555.195703125 142.6 554.8 142.9 554.4 143.3 553.95 143.6 553.0931640625 148.40078125 555.95 148.25
L 559.25 144.3 556.9 139.9 555.5 138.15
Q 555.6333984375 138.6 555.4 139.65 Z"/>

<path fill="#FF5722" stroke="none" d="
M 366.1 119.8
Q 365.45 119.2 364.55 119.2 363.65 119.2 363 119.8 362.35 120.45 362.35 121.35 362.35 122.25 363 122.85 363.65 123.5 364.55 123.5 365.45 123.5 366.1 122.85 366.75 122.25 366.75 121.35 366.75 120.45 366.1 119.8
M 429.9 43.8
Q 429.55 43.85 429.3 44.1 395.75 84.5 354.25 116.75 356.2 117.95 358.35 118.8
L 358.5 118.45
Q 359.8 116 362.35 114.85 363.8 114.25 365.3 114.65 367.35 115.3 368.75 116.6 369.9 117.7 370.45 119.15 371.3 121.25 370.7 123.4 369.55 127.5 365.1 127.65
L 366.95 130.55
Q 403.85 97.85 445.55 71.5 445.5 71.05 445.4 70.7 441.85 54.9 430.05 43.8 429.95 43.7 429.9 43.8
M 432.9 65.55
L 428.6 71.5 431.15 75 426.6 78.45 418.35 67.75
Q 418.95 66.05 420.25 64.5 422.9 61.35 427.15 61 432.35 60.2 432.9 65.55
M 421.25 82.15
L 419.4 80.85 417.3 82.3 418 84.7
Q 416.7 85.55 415.4 86.45 415.1 86.65 414.8 86.85 414.1 87.25 413.4 87.65 412.75 88.05 412.2 88.55 410.3 90.05 408.95 92.1
L 404.05 90.5 406.2 94.3 402.25 97.5 394.25 87.45
Q 394.3 87.05 394.45 86.7 394.7 86.1 395 85.55 395.35 85 395.8 84.55 396.2 84.05 396.7 83.65 399.65 81.45 403.05 80.55 404.8 80.05 406.35 80.65 406.5 80.75 406.65 80.95 407.2 81.55 407.6 82.3 407.95 82.9 408.1 83.6 408.25 84.3 408.25 85.05 408.25 85.45 408.15 85.85 408.05 86.2 407.95 86.6
L 412.75 88 408.7 75.25 413.85 70.5 425.8 77.8 421.25 82.15
M 395.75 90.75
L 393.05 93 398.5 100.3 394.9 103.5 388.5 96.8 385.95 99.05 383.05 95.45 393.6 89.5 395.75 90.75
M 385.4 101.15
Q 387.8 101.3 389.1 103.15 389.85 104.3 389.9 105.6 389.15 110.9 384.05 112.6 383.35 112.9 382.6 113.1
L 380.25 110.15 384.85 106.05 379.85 108
Q 375.85 107.75 376.25 103.8 376.85 98.15 382.3 96.5
L 384.6 99.85 380.15 103.65 385.4 101.15
M 367.3 109.1
Q 368.1 108.45 368.95 107.85 370.3 106.95 371.85 106.35 374.15 105.3 375.95 106.85
L 373.55 109.1 380.2 116.4 377.1 119.65 369.8 112.95 367.75 115.25 364.45 111.7
Q 365.9 110.4 367.3 109.1
M 402.3 84.45
L 400.3 85.55 402.05 88.6 403.8 85.9 402.3 84.45
M 415.8 79.95
L 417.3 78.8 414.5 76.75 415.8 79.95
M 428.15 66.05
L 426.9 65.25 424.95 66.55 426.85 68.95 428.15 66.05 Z"/>

<path fill="#CCCCCC" stroke="none" d="
M 351.7 111.8
L 350.7 112.65 353.75 116.35 351.7 111.8 Z"/>

<path fill="#9CCC65" stroke="none" d="
M 491.4 147.25
L 490.15 139.95
Q 490.03046875 137.495703125 490.25 135 492.4 111.9 515 103.25 505.05 103.55 495.3 103.25 461.662890625 101.4109375 427.35 117.9
L 427.25 117.75
Q 426.73046875 118.0923828125 426.15 118.4
L 391.25 138.65
Q 389.05 138.4 386.85 138.2 376.8 137.05 368.8 131.3
L 367.15 130.7
Q 361.6 130.7 357.7 126.5 353.8 122.3 353.75 116.35
L 350.7 112.65
Q 299.85 155.75 302.25 220.9 310.0591796875 207.8962890625 321.25 198.25 321.252734375 198.3166015625 321.25 198.35
L 321.2 198.9 321.2 201.3
Q 311.5982421875 212.6646484375 305.05 226.2 284.55 268.7 294 315.95 294.701171875 319.35234375 300 328.75 305.34609375 338.14296875 351.15 338.3 354.9419921875 328.72578125 364.3 331.05
L 377.55 298.35 376.9 296.4
Q 376.6943359375 288.191796875 380.5 280.2 382.9525390625 277.051953125 386.5 275.25 389.5509765625 266.36953125 390.85 259.2 415.15 247.95 426.2 223.95 415.3 239.6 397.25 242.5 400.75 238.4 405.35 235.8 445.1880859375 213.5279296875 468.45 173.8
L 471.75 167.9 471.6 167 473.75 163.55 473.6 163.1
Q 474.7 161 475.45 158.8 479.4 147.35 491.4 147.25
M 351.45 143
Q 352.4 143.25 353.35 143.55 379.65 142.1 404.55 151.9 407.55 155.8 411.15 159.2 412.8 160.8 415.05 161.9
L 414.9 163.85 376.35 232.65 383.55 234.65
Q 385.65 258.6 372 277.75 368.45 282.75 363.6 286.3 362.85 286.85 362.05 287.3 345.3 296.6 326.6 290.5 340.15 292.5 353.25 288.2 360.05 285.9 364.75 280.45 365.45 279.55 366.1 278.6 378.45 260 378.8 237.7
L 323.25 227.25 329.75 227.7 349.45 144.7 351.45 143
M 463.3 158.45
Q 463.1669921875 155.6115234375 461.8 148.7 459.75703125 138.05 430.15 122.65 439.35 122 446.6 127.3 464.755078125 140.4173828125 463.3 158.45
M 318.5 279.9
Q 317.65 278.75 316.85 277.6 305 259.85 315.55 241.8 306.7984375 261.666796875 318.5 279.9
M 223.65 138.65
L 213.6 137
Q 214.1796875 154.22890625 211.4 171.3 209.55 182.85 209 194.55 211.75 195.7 214.95 195.3 218.1 194.75 218.5 192.35 222.739453125 165.7322265625 223.65 138.65
M 222.05 104.15
Q 216 109.1 209.85 105.65 212.4111328125 117.949609375 213.25 130.15
L 223.8 132
Q 224.07265625 117.677734375 223.4 103.2 222.65 103.6 222.05 104.15
M 191.1 119.25
L 191.05 119.25 188.45 121.5
Q 188.1 122.05 187.6 122.45 178 130.3 180 142.15
L 180.2 143.75
Q 181.883203125 146.18984375 182.75 147.55 184.830078125 149.696484375 186.7 152.05 189.6 155.7 191.4 159.95
L 198 167.3 202.95 165.6
Q 201.27265625 164.8890625 201.3 164.65 201.2533203125 164.6337890625 201.2 164.6 199.2541015625 163.1306640625 197.5 161.5 196.9517578125 161.6275390625 196.5 160.95 196.396484375 160.74296875 196.35 160.4 188.66953125 152.7681640625 185.65 142.3 186.3267578125 138.1888671875 186.45 129.85
L 186.85 125.55 193.95 119.25 191.1 119.25
M 193.1 75.95
L 187.85 77.35 171.85 104.3 184.35 87.3
Q 182.45 97.6 173.75 103.6 171.5 105.05 172.8 105.6 189.4 111.45 209.35 105.5 207.5 104.1 205.6 102.75 191.6 92.95 193.1 75.95 Z"/>

<path fill="#FFD740" stroke="none" d="
M 352.1 229.8
Q 352.275390625 229.35 350.75 228.9 348.2814453125 227.9677734375 347.7 229.3
L 352.1 229.8
M 409.45 164.25
L 353.4 148.3 329.9 227.75 340.6 228.6
Q 341.7220703125 226.859375 342 226.35 344.25 222.5 348.85 222.3 355.25 222.4 358.05 228
L 360.65 227.05 361.55 230.9 376.05 232.6 409.45 164.25
M 358.75 180.6
Q 359.9 178.85 361.6 178.05 368.45 175.05 370.55 182.05
L 376.75 181 375.85 186.9 369.45 187.3 374.45 190.5 372.55 195.75 356.1 189.3
Q 356.1 184.5 358.75 180.6
M 361.7 175.8
L 363.25 169.25 369.2 169.2 364.7 165.2 367.25 159.5 374.5 168.65 381.45 170.95 379.2 177.2
Q 378.5 176.9 377.9 176.55 374.65 175.1 370.85 175.05 366.35 175 361.7 175.8
M 356.85 193.2
Q 360.85 191.6 364.65 193.8
L 362.7 202.45 365.65 200.55 365.3 195.65 370.65 198.25
Q 367.25 215.3 354.8 200.95 350.3 195.8 356.85 193.2
M 366.6 212.45
L 365.65 217.3 363.3 216.65
Q 363.5 217.25 363.3 217.6 357.75 228.05 345.6 218.55
L 347.95 212.6
Q 348.35 213 348.8 213.4 353.2 217.25 359.05 217.65 359.15 217.6 359.3 217.6
L 359.3 217.55
Q 356.25 213.35 351.2 211.35 349.6 210.75 348.05 210.15
L 350.1 204.55 366.6 212.45
M 359.05 197.35
Q 358.45 197.35 358 197.9 357.6 198.5 357.6 199.35 357.6 200.2 358 200.75 358.45 201.35 359.05 201.35 359.65 201.35 360.05 200.75 360.5 200.2 360.5 199.35 360.5 198.5 360.05 197.9 359.65 197.35 359.05 197.35
M 364.25 182.55
Q 363.7 182.65 363.2 182.8 361.75 183.3 361.25 185
L 365.75 186.85 365.95 183.7 364.75 182.7
Q 364.5 182.6 364.25 182.55 Z"/>

<path fill="#FFAB00" stroke="none" d="
M 368.45 147.35
Q 367.45 147.2 366.5 147.1
L 407.7 158.9
Q 388.3 152.1 368.45 147.35 Z"/>

<path fill="#B39DDB" stroke="none" d="
M 544.55 102.2
L 544.6 99.7
Q 550.8 71.3 539.55 45.25 504.5796875 52.127734375 469.2 55.75 468.0923828125 55.8857421875 466.95 56 467.2658203125 56.241796875 467.55 56.5 469.60234375 58.06875 471.55 59.8 490.05 76.3 485.65 100.4 486.35 100.1 487.05 99.85 515.6 99 544.55 102.2 Z"/>

<path fill="#FF8A65" stroke="none" d="
M 509.45 29.8
Q 508.1 27.45 506.65 25.2 502.05 26.55 497.5 27.95 465.05 37.35 431.95 43.1 431.05 43.25 430.5 43.45
L 430.8 43.5
Q 433.05 43.9 435.25 45 441 47.75 444.4 53.2 448.8 60.2 447.6 68.5 448.55 67.4 449.75 66.6 456.9015625 61.602734375 464.55 57.9 465.57734375 56.998828125 466.6 56.1 466.83125 56.411328125 467.05 56.7 467.31484375 56.6052734375 467.55 56.5 467.2658203125 56.241796875 466.95 56 468.0923828125 55.8857421875 469.2 55.75 489.69296875 47.0830078125 513.6 47.25
L 513.9 46.6
Q 514 46.1 514 45.55 514.1 42.3 513.25 39.35 512.55 36.85 511.65 34.45 510.7 32.05 509.45 29.8 Z"/>

<path fill="#FF0400" stroke="none" d="
M 167.35 56.2
L 176.8 58.75
Q 166.3875 44.5640625 149.2 44.1 145.8087890625 44.4537109375 142.1 45.25 138.2224609375 46.09140625 134.5 47.65 133.23828125 48.312109375 132 49.05
L 167.35 56.2 Z"/>

<path fill="#808080" stroke="none" d="
M 222.5 82.05
L 222.35 82.25 222.75 83.1 223.05 83 222.5 82.05
M 198.35 70.2
L 199.5 69.95 200.35 69.1 198.35 70.2
M 200.9 68.25
L 200.35 69.1 197.7 73.75
Q 197.7 73.9 197.7 74.05 197.4 83.25 200.35 91.65
L 201.6 91.05
Q 201.4 90.55 201.2 90.1 196.1 79.5 202.25 69.65
L 200.9 68.25 Z"/>
</g>
</g>
</g>
</g>
</svg>
